#N canvas 29 601 543 381 10;
#X obj 61 75 r UKI_ESP_\$1;
#X text 102 13 \$1 : sensor/player number;
#N canvas 1 53 450 300 mean 0;
#X obj 84 46 inlet;
#X obj 84 168 outlet;
#X text 44 12 ici bientôt un système incroyable pour gérer ces capteurs
;
#X obj 84 90 list-abs/list-mean;
#X obj 142 117 vsl 10 50 0 1024 0 0 empty empty empty 0 -9 0 10 -262144
-1 -1 435 1;
#X obj 84 68 list-abs/last-x 10;
#X connect 0 0 5 0;
#X connect 3 0 4 0;
#X connect 3 0 1 0;
#X connect 5 0 3 0;
#X restore 61 105 pd mean;
#X obj 262 84 vsl 10 55 0 1024 0 0 empty empty empty 0 -9 0 10 -262144
-1 -1 243 1;
#X obj 279 84 vsl 10 55 0 1024 0 0 empty empty empty 0 -9 0 10 -262144
-1 -1 479 1;
#N canvas 817 484 1300 819 levels 0;
#X obj 289 17 inlet;
#X obj 782 151 r /game/level/3;
#X obj 782 174 unpack f f;
#X obj 749 260 &&;
#X obj 812 208 < 600;
#X obj 769 329 route 1;
#X obj 290 699 outlet;
#X obj 506 174 unpack f f;
#X obj 520 387 route 1;
#X obj 296 174 unpack f f;
#X obj 290 257 &&;
#X obj 320 387 route 1;
#X obj 296 151 r /game/level/1;
#X obj 506 151 r /game/level/2;
#X obj 500 305 &&;
#X obj 749 288 == 0;
#X obj 500 284 == 0;
#X msg 769 452 3;
#X obj 290 291 == 0;
#X obj 290 322 &&;
#X msg 290 361 0;
#X obj 316 208 < 100;
#X obj 290 237 >= 0;
#X obj 749 213 >= 400;
#X obj 290 341 route 1;
#X obj 527 203 < 300;
#X obj 500 237 >= 200;
#X obj 500 260 &&;
#X obj 289 56 t f f f f;
#X text 158 93 comment;
#X text 161 340 si hors tous levels;
#X text 950 256 ajout sublevels : si dans level \, si >;
#X obj 843 347 -;
#X obj 843 369 * -0.5;
#X text 866 348 level min - max;
#X text 888 370 invert \, /2;
#X obj 843 391 +;
#X obj 843 324 t a f;
#X obj 828 413 >;
#X text 871 391 + level min;
#X obj 843 301 r /game/level/3;
#X obj 769 501 pack f f;
#X obj 749 117 t f f f;
#X obj 812 372 f;
#X obj 857 433 tgl 15 0 empty empty empty 17 7 0 10 -262144 -1 -1 0
1;
#X obj 824 440 + 4;
#X obj 769 351 t b b;
#X obj 594 418 -;
#X obj 594 440 * -0.5;
#X text 617 419 level min - max;
#X text 639 441 invert \, /2;
#X obj 594 462 +;
#X obj 594 395 t a f;
#X obj 579 484 >;
#X text 622 462 + level min;
#X obj 520 572 pack f f;
#X obj 563 443 f;
#X obj 608 504 tgl 15 0 empty empty empty 17 7 0 10 -262144 -1 -1 0
1;
#X obj 520 422 t b b;
#X msg 520 523 2;
#X obj 575 511 + 2;
#X obj 594 372 r /game/level/2;
#X obj 394 418 -;
#X obj 394 440 * -0.5;
#X text 417 419 level min - max;
#X text 439 441 invert \, /2;
#X obj 394 462 +;
#X obj 394 395 t a f;
#X obj 379 484 >;
#X text 422 462 + level min;
#X obj 320 572 pack f f;
#X obj 363 443 f;
#X obj 408 504 tgl 15 0 empty empty empty 17 7 0 10 -262144 -1 -1 0
1;
#X obj 320 422 t b b;
#X msg 320 523 1;
#X obj 375 511 + 0;
#X obj 394 372 r /game/level/1;
#X obj 499 117 t f f f;
#X obj 289 117 t f f f;
#X connect 0 0 28 0;
#X connect 1 0 2 0;
#X connect 2 0 23 1;
#X connect 2 1 4 1;
#X connect 3 0 15 0;
#X connect 3 0 5 0;
#X connect 4 0 3 1;
#X connect 5 0 46 0;
#X connect 7 0 26 1;
#X connect 7 1 25 1;
#X connect 8 0 58 0;
#X connect 9 0 22 1;
#X connect 9 1 21 1;
#X connect 10 0 18 0;
#X connect 10 0 11 0;
#X connect 11 0 73 0;
#X connect 12 0 9 0;
#X connect 13 0 7 0;
#X connect 14 0 19 1;
#X connect 15 0 14 1;
#X connect 16 0 14 0;
#X connect 17 0 41 0;
#X connect 18 0 19 0;
#X connect 19 0 24 0;
#X connect 20 0 6 0;
#X connect 21 0 10 1;
#X connect 22 0 10 0;
#X connect 23 0 3 0;
#X connect 24 0 20 0;
#X connect 25 0 27 1;
#X connect 26 0 27 0;
#X connect 27 0 16 0;
#X connect 27 0 8 0;
#X connect 28 1 78 0;
#X connect 28 2 77 0;
#X connect 28 3 42 0;
#X connect 32 0 33 0;
#X connect 33 0 36 0;
#X connect 36 0 38 1;
#X connect 37 0 32 0;
#X connect 37 1 36 1;
#X connect 38 0 44 0;
#X connect 38 0 45 0;
#X connect 40 0 37 0;
#X connect 41 0 6 0;
#X connect 42 0 23 0;
#X connect 42 1 4 0;
#X connect 42 2 43 1;
#X connect 43 0 38 0;
#X connect 45 0 41 1;
#X connect 46 0 17 0;
#X connect 46 1 43 0;
#X connect 47 0 48 0;
#X connect 48 0 51 0;
#X connect 51 0 53 1;
#X connect 52 0 47 0;
#X connect 52 1 51 1;
#X connect 53 0 57 0;
#X connect 53 0 60 0;
#X connect 55 0 6 0;
#X connect 56 0 53 0;
#X connect 58 0 59 0;
#X connect 58 1 56 0;
#X connect 59 0 55 0;
#X connect 60 0 55 1;
#X connect 61 0 52 0;
#X connect 62 0 63 0;
#X connect 63 0 66 0;
#X connect 66 0 68 1;
#X connect 67 0 62 0;
#X connect 67 1 66 1;
#X connect 68 0 72 0;
#X connect 68 0 75 0;
#X connect 70 0 6 0;
#X connect 71 0 68 0;
#X connect 73 0 74 0;
#X connect 73 1 71 0;
#X connect 74 0 70 0;
#X connect 75 0 70 1;
#X connect 76 0 67 0;
#X connect 77 0 26 0;
#X connect 77 1 25 0;
#X connect 77 1 56 1;
#X connect 78 0 22 0;
#X connect 78 1 21 0;
#X connect 78 2 71 1;
#X restore 61 194 pd levels;
#X msg 236 239 set \$1 \$2;
#X msg 236 261 1 0;
#X obj 125 144 list prepend \$1;
#X obj 125 163 s /sensor;
#X obj 61 246 list prepend \$1;
#X obj 61 271 s /player;
#X obj 294 82 vradio 15 1 0 4 empty empty empty 0 -8 0 10 -262144 -1
-1 1;
#X obj 313 94 vradio 8 1 0 6 empty empty empty 0 -8 0 10 -262144 -1
-1 0;
#X obj 142 201 unpack f f;
#X connect 0 0 3 0;
#X connect 0 0 2 0;
#X connect 2 0 4 0;
#X connect 2 0 5 0;
#X connect 2 0 8 0;
#X connect 5 0 6 0;
#X connect 5 0 10 0;
#X connect 5 0 14 0;
#X connect 6 0 7 0;
#X connect 8 0 9 0;
#X connect 10 0 11 0;
#X connect 14 0 12 0;
#X connect 14 1 13 0;
#X coords 0 -1 1 1 85 90 1 250 60;
