#N canvas 13 601 578 324 10;
#X obj 61 55 r UKI_ESP_\$1;
#X text 102 13 \$1 : sensor/player number;
#X obj 254 90 vsl 10 55 0 1024 0 0 empty empty empty 0 -9 0 10 -262144
-1 -1 448 1;
#X obj 271 90 vsl 10 55 0 1024 0 0 empty empty empty 0 -9 0 10 -262144
-1 -1 0 1;
#N canvas 567 152 1300 819 levels 0;
#X obj 72 35 inlet;
#X obj 72 191 moses 0.15;
#X obj 129 213 moses 0.3;
#X obj 180 235 moses 0.45;
#X obj 237 257 moses 0.6;
#X obj 288 277 moses 0.8;
#X obj 224 135 r level_thresholds;
#X obj 224 157 unpack f f f f f;
#X obj 72 393 /;
#X obj 89 339 r level_thresholds;
#X msg 89 361 \$5;
#X obj 129 427 /;
#X obj 146 363 r level_thresholds;
#X msg 146 385 \$4 \$5;
#X obj 146 407 -;
#X obj 180 449 /;
#X obj 237 483 /;
#X obj 254 419 r level_thresholds;
#X obj 254 463 -;
#X obj 195 386 r level_thresholds;
#X obj 195 430 -;
#X msg 195 408 \$3 \$4;
#X msg 254 441 \$2 \$3;
#X obj 288 511 /;
#X obj 340 545 /;
#X obj 357 481 r level_thresholds;
#X obj 357 525 -;
#X obj 303 448 r level_thresholds;
#X obj 303 492 -;
#X msg 303 470 \$1 \$2;
#X msg 357 503 1 \$1;
#X obj 280 83 hsl 128 12 0 1 0 0 empty empty empty 25 6 0 10 -262144
-1 -1 0 1;
#X obj 129 235 -;
#X obj 180 257 -;
#X obj 237 279 -;
#X obj 288 300 -;
#X obj 339 299 -;
#X obj 340 567 pack 0 5;
#X obj 288 533 pack 0 4;
#X obj 237 505 pack 0 3;
#X obj 180 471 pack 0 2;
#X obj 129 449 pack 0 1;
#X obj 72 415 pack 0 0;
#X obj 72 607 s \$0-sensor_sublevel;
#X obj 574 67 r \$0-sensor_sublevel;
#X obj 574 89 unpack f f;
#X obj 631 112 change;
#X obj 631 134 t f f;
#X obj 631 233 pack f f;
#X obj 631 164 / 2;
#X obj 631 186 i;
#X obj 631 208 + 1;
#X obj 631 256 list prepend \$1;
#X obj 631 281 s /player;
#X obj 574 311 list prepend \$1;
#X obj 574 333 s /sensor_level_norm;
#X connect 0 0 1 0;
#X connect 1 0 8 0;
#X connect 1 1 2 0;
#X connect 2 0 32 0;
#X connect 2 1 3 0;
#X connect 3 0 33 0;
#X connect 3 1 4 0;
#X connect 4 0 34 0;
#X connect 4 1 5 0;
#X connect 5 0 35 0;
#X connect 5 1 36 0;
#X connect 6 0 7 0;
#X connect 7 0 5 1;
#X connect 7 0 36 1;
#X connect 7 1 4 1;
#X connect 7 1 35 1;
#X connect 7 2 3 1;
#X connect 7 2 34 1;
#X connect 7 3 2 1;
#X connect 7 3 33 1;
#X connect 7 4 1 1;
#X connect 7 4 32 1;
#X connect 8 0 42 0;
#X connect 9 0 10 0;
#X connect 10 0 8 1;
#X connect 11 0 41 0;
#X connect 12 0 13 0;
#X connect 13 0 14 0;
#X connect 14 0 11 1;
#X connect 15 0 40 0;
#X connect 16 0 39 0;
#X connect 17 0 22 0;
#X connect 18 0 16 1;
#X connect 19 0 21 0;
#X connect 20 0 15 1;
#X connect 21 0 20 0;
#X connect 22 0 18 0;
#X connect 23 0 38 0;
#X connect 24 0 37 0;
#X connect 25 0 30 0;
#X connect 26 0 24 1;
#X connect 27 0 29 0;
#X connect 28 0 23 1;
#X connect 29 0 28 0;
#X connect 30 0 26 0;
#X connect 31 0 1 0;
#X connect 32 0 11 0;
#X connect 33 0 15 0;
#X connect 34 0 16 0;
#X connect 35 0 23 0;
#X connect 36 0 24 0;
#X connect 37 0 43 0;
#X connect 38 0 43 0;
#X connect 39 0 43 0;
#X connect 40 0 43 0;
#X connect 41 0 43 0;
#X connect 42 0 43 0;
#X connect 44 0 45 0;
#X connect 45 0 54 0;
#X connect 45 1 46 0;
#X connect 46 0 47 0;
#X connect 47 0 49 0;
#X connect 47 1 48 1;
#X connect 48 0 52 0;
#X connect 49 0 50 0;
#X connect 50 0 51 0;
#X connect 51 0 48 0;
#X connect 52 0 53 0;
#X connect 54 0 55 0;
#X restore 61 224 pd levels;
#X obj 125 195 list prepend \$1;
#X obj 286 88 vradio 15 1 0 4 empty empty empty 0 -8 0 10 -262144 -1
-1 1;
#X obj 305 100 vradio 8 1 0 6 empty empty empty 0 -8 0 10 -262144 -1
-1 0;
#X obj 286 37 unpack f f;
#N canvas 519 205 450 300 \$0-oscillo 0;
#X obj 85 30 inlet;
#X obj 120 122 list split 1;
#X obj 85 152 list prepend;
#X obj 85 64 t f b;
#X obj 120 93 tabdump \$1-sensor;
#X obj 85 174 tabset \$1-sensor;
#X connect 0 0 3 0;
#X connect 1 1 2 1;
#X connect 2 0 5 0;
#X connect 3 0 2 0;
#X connect 3 1 4 0;
#X connect 4 0 1 0;
#X restore 145 174 pd \$0-oscillo;
#X obj 318 82 bng 15 250 50 0 empty empty empty 17 7 0 10 -262144 -1
-1;
#N canvas 440 169 425 256 \$1-oscillo 0;
#N canvas 1 53 450 300 \$0-gop 0;
#N canvas 1 53 450 250 (subpatch) 0;
#X array \$1-sensor 2000 float 2;
#X coords 1420.43 1024 2000 0 400 200 1 0 0;
#X restore 4 15 graph;
#X obj 6 218 hsl 395 15 0 1950 0 0 empty empty empty -2 -8 0 10 -228856
-1 -1 0 1;
#X obj 3 238 pack 0 \$1;
#X msg 3 265 \; \$2-sensor bounds \$1 1024 2000 0;
#X connect 1 0 2 0;
#X connect 2 0 3 0;
#X coords 0 -1 1 1 410 240 2 0 0;
#X restore 6 6 pd \$0-gop;
#X restore 415 59 pd \$1-oscillo;
#X obj 345 98 f \$1;
#X msg 345 121 \; pd-\$1-oscillo vis 1 \, editmode 0;
#N canvas 1 53 424 233 mean 0;
#X obj 84 46 inlet;
#X obj 84 178 outlet;
#X text 44 12 ici bientôt un système incroyable pour gérer ces capteurs
;
#X obj 84 90 list-abs/list-mean;
#X obj 142 117 vsl 10 50 0 1024 0 0 empty empty empty 0 -9 0 10 -262144
-1 -1 426 1;
#X obj 84 68 list-abs/last-x 10;
#X connect 0 0 5 0;
#X connect 3 0 4 0;
#X connect 3 0 1 0;
#X connect 5 0 3 0;
#X restore 61 125 pd mean;
#N canvas 1 53 450 300 norm 0;
#X obj 191 60 r level_max;
#X obj 224 80 r level_min;
#X obj 191 126 -;
#X obj 224 100 t b f f;
#X obj 158 177 / 1024;
#X obj 158 157 -;
#X text 205 176 sensor_norm;
#X obj 158 199 limit 0 1;
#X obj 158 19 inlet;
#X obj 158 221 outlet;
#X connect 0 0 2 0;
#X connect 1 0 3 0;
#X connect 2 0 4 1;
#X connect 3 0 2 0;
#X connect 3 1 2 1;
#X connect 3 2 5 1;
#X connect 4 0 7 0;
#X connect 5 0 4 0;
#X connect 7 0 9 0;
#X connect 8 0 5 0;
#X restore 61 147 pd norm;
#X obj 286 -5 r /player;
#X obj 286 17 route \$1;
#X msg 61 77 1024 \$1;
#X obj 61 99 -;
#X obj 125 214 s /sensor_norm;
#X connect 0 0 18 0;
#X connect 5 0 20 0;
#X connect 8 0 6 0;
#X connect 8 1 7 0;
#X connect 10 0 12 0;
#X connect 12 0 13 0;
#X connect 14 0 15 0;
#X connect 15 0 9 0;
#X connect 15 0 4 0;
#X connect 15 0 5 0;
#X connect 15 0 3 0;
#X connect 16 0 17 0;
#X connect 17 0 8 0;
#X connect 18 0 19 0;
#X connect 19 0 14 0;
#X connect 19 0 2 0;
#X coords 0 -1 1 1 85 90 1 250 60;
