#N canvas 1 68 450 300 10;
#X obj 82 84 metro 3000;
#X obj 82 113 t b b;
#X obj 82 145 random 950;
#X obj 82 179 pack f f;
#X obj 173 150 random 4000;
#X obj 32 277 s sensors;
#X obj 82 63 tgl 15 0 empty empty empty 17 7 0 10 -262144 -1 -1 1 1
;
#X obj 87 19 loadbang 1;
#X obj 32 251 pack \$1 f;
#X obj 71 229 t b f;
#X obj 85 205 line 0 40;
#X obj 169 20 r random;
#X obj 274 188 r random/set;
#X connect 0 0 1 0;
#X connect 1 0 2 0;
#X connect 1 1 4 0;
#X connect 2 0 3 0;
#X connect 3 0 10 0;
#X connect 4 0 3 1;
#X connect 6 0 0 0;
#X connect 7 0 6 0;
#X connect 8 0 5 0;
#X connect 9 0 8 0;
#X connect 9 1 8 1;
#X connect 10 0 9 0;
#X connect 11 0 6 0;
#X connect 12 0 10 0;
