#N canvas 1 53 450 300 10;
#N canvas 0 232 1905 983 sensorsIn 0;
#N canvas 74 488 1361 548 16bit 1;
#X obj 153 195 gate 2;
#X obj 153 146 tgl 15 0 empty empty empty 17 7 0 10 -262144 -1 -1 0
1;
#X obj 153 119 bng 15 250 50 0 empty empty empty 17 7 0 10 -262144
-1 -1;
#X floatatom 159 14 5 0 0 0 - - -, f 5;
#X floatatom 186 218 5 0 255 0 - - -, f 5;
#X floatatom 153 218 5 0 255 0 - - -, f 5;
#X obj 153 330 |;
#X obj 120 396 outlet;
#X obj 273 264 << 8;
#X floatatom 186 264 5 0 0 0 - - -, f 5;
#X text 133 480 10bit Value from ADC;
#X text -11 35 filter init byte (0x00);
#X obj 159 35 sel 0;
#X floatatom 186 75 5 0 0 0 - - -, f 5;
#X obj 118 77 bng 15 250 50 0 empty empty empty 17 7 0 10 -262144 -1
-1;
#X obj 120 374 gate 1;
#X obj 261 373 gate 1;
#X obj 261 395 outlet;
#X text -34 145 1st byte = 0x00 \, toggel = ON.;
#X msg 199 35 0;
#X text 198 14 Last (4th) byte is init set to 0x40.;
#X obj 153 170 + 1;
#X obj 118 117 == 0;
#X msg 118 96 0;
#X text 272 69 1st byte = init set to 0x00 \, 2nd byte is receive_h
\, 3rd byte is receive_l \, 4th byte is init set to 0x40 (Note Off
routine);
#X text 227 218 upper_byte;
#X text 81 217 lower_byte;
#N canvas 454 249 565 580 M_debyte_LSB 0;
#X obj 150 502 outlet;
#X obj 150 449 float;
#X obj 150 409 |;
#X obj 64 402 -;
#X obj 64 367 float;
#X obj 64 347 trigger bang float;
#X obj 169 373 &;
#X obj 64 312 route 0 1;
#X obj 64 222 change;
#X obj 110 222 change;
#X obj 157 222 change;
#X obj 204 222 change;
#X obj 350 503 outlet;
#X obj 350 450 float;
#X obj 350 410 |;
#X obj 264 403 -;
#X obj 264 368 float;
#X obj 264 348 trigger bang float;
#X obj 369 374 &;
#X obj 264 313 route 0 1;
#X obj 344 222 change;
#X obj 391 222 change;
#X msg 391 243 \$1 1;
#X msg 344 243 \$1 2;
#X obj 64 164 change;
#X obj 110 164 change;
#X obj 157 164 change;
#X obj 204 164 change;
#X obj 250 164 change;
#X obj 297 164 change;
#X obj 344 164 change;
#X obj 391 164 change;
#X obj 64 185 == 128;
#X obj 64 120 trigger float float float float float float float float
;
#X obj 64 76 inlet;
#X obj 64 144 & 128;
#X obj 391 143 & 1;
#X obj 110 143 & 64;
#X obj 344 143 & 2;
#X obj 157 143 & 32;
#X obj 297 143 & 4;
#X obj 204 143 & 16;
#X obj 250 143 & 8;
#X obj 110 184 == 64;
#X obj 344 184 == 2;
#X obj 157 184 == 32;
#X obj 297 184 == 4;
#X obj 204 184 == 16;
#X obj 250 184 == 8;
#X text 208 94 extract byte into lo/hi -nippel;
#X msg 204 243 \$1 4;
#X msg 157 243 \$1 8;
#X msg 110 243 \$1 16;
#X msg 64 243 \$1 32;
#X text 121 524 high 6 bit nipperl;
#X text 324 527 low 2 bit nipperl;
#X obj 250 222 change;
#X obj 297 222 change;
#X msg 250 243 \$1 2;
#X msg 297 244 \$1 1;
#X floatatom 106 80 5 0 0 0 - - -, f 5;
#X connect 1 0 2 1;
#X connect 1 0 4 1;
#X connect 1 0 6 1;
#X connect 1 0 0 0;
#X connect 2 0 1 0;
#X connect 3 0 1 0;
#X connect 4 0 3 0;
#X connect 5 0 4 0;
#X connect 5 1 6 0;
#X connect 6 0 3 1;
#X connect 7 0 5 0;
#X connect 7 1 2 0;
#X connect 8 0 53 0;
#X connect 9 0 52 0;
#X connect 10 0 51 0;
#X connect 11 0 50 0;
#X connect 13 0 14 1;
#X connect 13 0 16 1;
#X connect 13 0 18 1;
#X connect 13 0 12 0;
#X connect 14 0 13 0;
#X connect 15 0 13 0;
#X connect 16 0 15 0;
#X connect 17 0 16 0;
#X connect 17 1 18 0;
#X connect 18 0 15 1;
#X connect 19 0 17 0;
#X connect 19 1 14 0;
#X connect 20 0 23 0;
#X connect 21 0 22 0;
#X connect 22 0 19 0;
#X connect 23 0 19 0;
#X connect 24 0 32 0;
#X connect 25 0 43 0;
#X connect 26 0 45 0;
#X connect 27 0 47 0;
#X connect 28 0 48 0;
#X connect 29 0 46 0;
#X connect 30 0 44 0;
#X connect 31 0 21 0;
#X connect 32 0 8 0;
#X connect 33 0 35 0;
#X connect 33 1 37 0;
#X connect 33 2 39 0;
#X connect 33 3 41 0;
#X connect 33 4 42 0;
#X connect 33 5 40 0;
#X connect 33 6 38 0;
#X connect 33 7 36 0;
#X connect 34 0 33 0;
#X connect 35 0 24 0;
#X connect 36 0 31 0;
#X connect 37 0 25 0;
#X connect 38 0 30 0;
#X connect 39 0 26 0;
#X connect 40 0 29 0;
#X connect 41 0 27 0;
#X connect 42 0 28 0;
#X connect 43 0 9 0;
#X connect 44 0 20 0;
#X connect 45 0 10 0;
#X connect 46 0 57 0;
#X connect 47 0 11 0;
#X connect 48 0 56 0;
#X connect 50 0 7 0;
#X connect 51 0 7 0;
#X connect 52 0 7 0;
#X connect 53 0 7 0;
#X connect 56 0 58 0;
#X connect 57 0 59 0;
#X connect 58 0 7 0;
#X connect 59 0 7 0;
#X connect 60 0 33 0;
#X restore 186 240 pd M_debyte_LSB;
#X text 311 264 upper 2 bit nippel (result of 10bit convertion).;
#X obj 402 372 gate 1;
#X obj 402 396 outlet;
#X obj 543 374 gate 1;
#X obj 543 396 outlet;
#X obj 468 374 == 20;
#X obj 506 374 == 4;
#X obj 468 396 s Vel_3_Off;
#X obj -4 454 nbx 4 45 -1e+37 1e+37 0 0 empty stick_mode empty 0 -8
0 25 -83269 -262144 -262144 0 256;
#X text 273 105 M.hug Dec. 2010;
#X obj 365 374 == 3;
#X obj 326 396 s Vel_2_Off;
#X obj 186 373 == 18;
#X obj 685 374 gate 1;
#X obj 685 396 outlet;
#X obj 610 374 == 21;
#X obj 648 374 == 5;
#X obj 610 396 s Vel_4_Off;
#X obj 821 372 gate 1;
#X obj 821 394 outlet;
#X obj 746 373 == 22;
#X obj 784 373 == 6;
#X obj 746 395 s Vel_5_Off;
#X obj 958 371 gate 1;
#X obj 958 393 outlet;
#X obj 883 371 == 23;
#X obj 921 371 == 7;
#X obj 326 374 == 19;
#X obj 186 395 s Vel_1_Off;
#X obj 1093 371 gate 1;
#X obj 1093 393 outlet;
#X obj 1018 393 s Vel_7_Off;
#X obj 1018 371 == 24;
#X obj 1225 370 gate 1;
#X obj 1225 392 outlet;
#X obj 1150 370 == 25;
#X obj 46 375 == 17;
#X obj 46 396 s Vel_0_Off;
#X obj 1056 371 == 8;
#X obj 1188 370 == 9;
#X obj 178 -17 inlet;
#X obj 883 393 s Vel_6_Off;
#X obj 1150 392 s Vel_8_Off;
#X obj 84 375 == 0;
#X obj 224 373 == 2;
#X floatatom 309 457 5 0 0 0 - - -, f 5;
#X obj 784 46 route 0;
#X obj 737 65 bng 15 250 50 0 empty empty empty 17 7 0 10 -262144 -1
-1;
#X obj 784 72 t b b;
#X obj 821 100 list-extend;
#X obj 784 119 list;
#X obj 1162 151 print;
#N canvas 1398 225 450 380 bytesunpack 0;
#X obj 62 -43 inlet;
#X obj 62 -16 unpack f f;
#X obj 62 9 t f f f;
#X obj 101 52 >> 2;
#X obj 62 267 pack f f;
#X text 133 265 sensor ID / value;
#X obj 159 311 print;
#X floatatom 9 227 5 0 0 0 - - -, f 5;
#X obj 62 311 s sensors;
#X floatatom 27 7 5 0 0 0 - - -, f 5;
#X obj 187 -35 import ../extra/issiconvert/issiconvert;
#X obj 88 192 |;
#X obj 101 82 t f f;
#X obj 101 111 * 4;
#X obj 52 57 -;
#X floatatom 81 222 5 0 0 0 - - -, f 5;
#X obj 76 151 << 8;
#X msg 63 291 \$2 \$1;
#X obj 98 131 - 1;
#X connect 0 0 1 0;
#X connect 1 0 2 0;
#X connect 1 1 11 1;
#X connect 2 1 14 0;
#X connect 2 2 3 0;
#X connect 3 0 7 0;
#X connect 3 0 12 0;
#X connect 4 0 17 0;
#X connect 11 0 15 0;
#X connect 11 0 4 0;
#X connect 12 0 13 0;
#X connect 12 1 4 1;
#X connect 13 0 18 0;
#X connect 14 0 16 0;
#X connect 16 0 11 0;
#X connect 17 0 8 0;
#X connect 18 0 14 1;
#X restore 784 162 pd bytesunpack;
#X obj 929 275 print;
#X obj 1066 38 route 0;
#X obj 1066 67 t b b;
#X obj 929 249 spigot;
#X obj 962 232 tgl 15 0 empty empty empty 17 7 0 10 -262144 -1 -1 0
1;
#X obj 977 4 gate 2 2;
#X msg 1110 67 1;
#X text 1107 71 sur 1er zero \, change gate;
#X obj 977 38 t b a;
#X obj 1004 163 list-extend;
#X obj 929 180 list;
#X obj 1003 -16 t a a b;
#X obj 929 66 counter;
#X msg 956 139 2;
#X obj 929 116 t b b;
#X obj 929 94 route 1;
#X connect 0 0 5 0;
#X connect 0 1 4 0;
#X connect 1 0 21 0;
#X connect 2 0 1 0;
#X connect 3 0 12 0;
#X connect 4 0 27 0;
#X connect 5 0 6 0;
#X connect 6 0 15 1;
#X connect 6 0 16 1;
#X connect 6 0 29 1;
#X connect 6 0 31 1;
#X connect 6 0 41 1;
#X connect 6 0 46 1;
#X connect 6 0 51 1;
#X connect 6 0 36 0;
#X connect 6 0 57 1;
#X connect 6 0 61 1;
#X connect 8 0 6 1;
#X connect 9 0 33 0;
#X connect 9 0 34 0;
#X connect 9 0 38 0;
#X connect 9 0 43 0;
#X connect 9 0 44 0;
#X connect 9 0 48 0;
#X connect 9 0 49 0;
#X connect 9 0 53 0;
#X connect 9 0 54 0;
#X connect 9 0 55 0;
#X connect 9 0 40 0;
#X connect 9 0 64 0;
#X connect 9 0 60 0;
#X connect 9 0 66 0;
#X connect 9 0 63 0;
#X connect 9 0 67 0;
#X connect 9 0 71 0;
#X connect 9 0 72 0;
#X connect 12 0 14 0;
#X connect 12 1 13 0;
#X connect 13 0 0 1;
#X connect 13 0 2 0;
#X connect 14 0 23 0;
#X connect 15 0 7 0;
#X connect 16 0 17 0;
#X connect 19 0 12 1;
#X connect 21 0 0 0;
#X connect 22 0 1 0;
#X connect 23 0 22 0;
#X connect 27 0 9 0;
#X connect 27 1 8 0;
#X connect 29 0 30 0;
#X connect 31 0 32 0;
#X connect 33 0 35 0;
#X connect 34 0 31 0;
#X connect 38 0 29 0;
#X connect 40 0 56 0;
#X connect 41 0 42 0;
#X connect 43 0 45 0;
#X connect 44 0 41 0;
#X connect 46 0 47 0;
#X connect 48 0 50 0;
#X connect 49 0 46 0;
#X connect 51 0 52 0;
#X connect 53 0 69 0;
#X connect 54 0 51 0;
#X connect 55 0 39 0;
#X connect 57 0 58 0;
#X connect 60 0 59 0;
#X connect 61 0 62 0;
#X connect 63 0 70 0;
#X connect 64 0 65 0;
#X connect 66 0 57 0;
#X connect 67 0 61 0;
#X connect 68 0 3 0;
#X connect 68 0 74 0;
#X connect 68 0 92 0;
#X connect 71 0 15 0;
#X connect 72 0 16 0;
#X connect 74 0 76 0;
#X connect 74 1 77 0;
#X connect 76 0 78 0;
#X connect 76 1 77 1;
#X connect 77 0 78 1;
#X connect 78 0 80 0;
#X connect 82 0 83 0;
#X connect 83 0 90 1;
#X connect 83 0 93 2;
#X connect 83 1 87 0;
#X connect 84 0 81 0;
#X connect 85 0 84 1;
#X connect 86 0 89 0;
#X connect 86 1 82 0;
#X connect 87 0 86 0;
#X connect 89 0 93 0;
#X connect 89 1 90 0;
#X connect 90 0 91 1;
#X connect 91 0 84 0;
#X connect 92 1 86 1;
#X connect 93 0 96 0;
#X connect 94 0 86 0;
#X connect 95 0 91 0;
#X connect 95 1 94 0;
#X connect 96 0 95 0;
#X restore -68 94 pd 16bit to dec;
#X msg -56 34 close;
#X obj -9 14 r TH_Ctl;
#X msg -9 36 100;
#X obj 34 38 bng 35 250 50 0 empty empty resest 0 17 0 10 -258113 -262144
-262144;
#X msg -68 13 devices;
#X obj -68 56 comport 4 9600;
#X msg 170 8 devicename /dev/ttyUSB0;
#X obj -101 178 vsl 10 50 0 1023 0 0 empty empty empty 0 -9 0 10 -262144
-1 -1 0 1;
#X obj -56 147 vsl 10 50 0 1023 0 0 empty empty empty 0 -9 0 10 -262144
-1 -1 0 1;
#X obj -66 254 vsl 10 50 0 1023 0 0 empty empty empty 0 -9 0 10 -262144
-1 -1 0 1;
#X obj -32 147 vsl 10 50 0 1023 0 0 empty empty empty 0 -9 0 10 -262144
-1 -1 0 1;
#X obj -19 147 vsl 10 50 0 1023 0 0 empty empty empty 0 -9 0 10 -262144
-1 -1 0 1;
#X obj -7 147 vsl 10 50 0 1023 0 0 empty empty empty 0 -9 0 10 -262144
-1 -1 0 1;
#X obj 46 150 vsl 10 50 0 1023 0 0 empty empty empty 0 -9 0 10 -262144
-1 -1 0 1;
#X obj 17 147 vsl 10 50 0 1023 0 0 empty empty empty 0 -9 0 10 -262144
-1 -1 0 1;
#X obj 63 147 vsl 10 50 0 1023 0 0 empty empty empty 0 -9 0 10 -262144
-1 -1 0 1;
#X obj 142 106 print;
#X obj 459 209 r sensors;
#X obj 459 256 vsl 10 50 0 1023 0 0 empty empty empty 0 -9 0 10 -262144
-1 -1 134 1;
#X obj 525 209 r sensors;
#X obj 525 256 vsl 10 50 0 1023 0 0 empty empty empty 0 -9 0 10 -262144
-1 -1 2974 1;
#X obj 595 209 r sensors;
#X obj 595 256 vsl 10 50 0 1023 0 0 empty empty empty 0 -9 0 10 -262144
-1 -1 627 1;
#X obj 470 310 print;
#X msg -55 213 \; sensors 1 \$1;
#X obj 459 231 route 1;
#X obj 525 232 route 2;
#X obj 219 174 t a b;
#X obj 225 248 tabwrite test;
#X obj 251 213 counter 2000;
#X obj 376 182 counter 2000;
#X obj 350 217 tabwrite test2;
#X obj 348 153 t a b;
#X obj 356 124 list-mean;
#X msg 861 809 \; test const 0;
#X msg 561 798 \; test const 0 \; test2 const 0;
#X obj 351 96 last-x 500;
#X obj 752 114 textfiler;
#X msg 0 342 \; sensors 4 \$1;
#X msg 24 399 \; sensors 5 \$1;
#X msg 127 436 \; sensors 6 \$1;
#X obj 595 231 route 3;
#X obj 93 217 vsl 10 50 0 1023 0 0 empty empty empty 0 -9 0 10 -262144
-1 -1 0 1;
#X obj 100 187 list-mean;
#X obj 96 160 last-x 500;
#X obj 136 214 mean;
#X obj 133 237 vsl 10 50 0 1023 0 0 empty empty empty 0 -9 0 10 -262144
-1 -1 0 1;
#X msg -40 260 \; sensors 2 \$1;
#X msg -13 303 \; sensors 3 \$1;
#X connect 0 0 8 0;
#X connect 0 1 9 0;
#X connect 0 2 10 0;
#X connect 0 3 11 0;
#X connect 0 4 12 0;
#X connect 0 5 13 0;
#X connect 0 6 14 0;
#X connect 0 7 15 0;
#X connect 0 8 16 0;
#X connect 1 0 6 0;
#X connect 2 0 6 0;
#X connect 3 0 6 0;
#X connect 4 0 3 0;
#X connect 5 0 6 0;
#X connect 6 0 0 0;
#X connect 7 0 6 0;
#X connect 9 0 25 0;
#X connect 11 0 48 0;
#X connect 12 0 49 0;
#X connect 13 0 45 0;
#X connect 13 0 46 0;
#X connect 15 0 39 0;
#X connect 18 0 26 0;
#X connect 20 0 27 0;
#X connect 22 0 42 0;
#X connect 26 0 19 0;
#X connect 27 0 21 0;
#X connect 28 0 29 0;
#X connect 28 1 30 0;
#X connect 30 0 29 1;
#X connect 31 0 32 1;
#X connect 33 0 32 0;
#X connect 33 1 31 0;
#X connect 34 0 33 0;
#X connect 37 0 34 0;
#X connect 42 0 23 0;
#X connect 44 0 43 0;
#X connect 45 0 44 0;
#X connect 46 0 47 0;
#X restore -30 40 pd sensorsIn;
