#N canvas 215 228 1041 430 10;
#X text 416 -145 \$1 : OSC domain;
#X text 416 -134 \$2 : ID;
#X obj 559 -84 cnv 15 450 250 empty empty OSC-COMMUNICATION 150 10
0 14 -191407 -262144 0;
#X obj 578 -65 inlet;
#X text 670 -44 receive domain messages for this instance;
#X obj 600 5 cnv 15 370 60 empty empty empty 20 12 0 14 -260097 -66577
0;
#X obj 603 12 loadbang;
#X text 659 11 settable parameter list \, others are ignored and print
error;
#X obj 626 77 cnv 15 370 60 empty empty empty 20 12 0 14 -232576 -66577
0;
#X obj 629 87 loadbang;
#X text 688 86 gettable parameter list \, others are ignored and print
error;
#N canvas 0 0 637 631 \$0-OSC 0;
#X obj 119 43 inlet;
#X obj 119 66 route get;
#X obj 173 297 s;
#X text 206 297 send local value (\$0-param value1 value2...);
#X obj 173 155 list split 1;
#X obj 173 256 list;
#X obj 206 256 pp \$0;
#X msg 206 277 symbol \$1-\$2;
#X obj 138 326 route all;
#X text 200 324 ask all at once;
#X text 184 67 separate get/set parameters;
#X obj 173 89 t a b;
#X msg 119 109 1;
#X msg 158 109 0;
#X obj 173 134 spigot 1;
#X obj 206 196 list-find;
#X obj 173 236 t b a;
#X obj 303 213 route 0;
#X obj 173 216 spigot;
#X obj 201 530 r \$0-get;
#X obj 201 587 s \$1;
#X obj 189 472 pp \$0;
#X msg 189 491 \; \$1-\$2 get;
#X obj 119 87 t b a b;
#X obj 201 549 pp;
#X obj 189 453 t a a;
#X obj 208 408 list-find;
#X obj 259 437 route 0;
#X obj 189 434 spigot;
#X obj 189 387 t a a a;
#X msg 259 456 : unknown parameter to give;
#X obj 259 475 pp;
#X obj 138 346 list;
#X obj 138 366 list-drip;
#X obj 303 251 pp;
#X msg 303 232 : unknown parameter to set;
#X obj 173 175 t a a a;
#X obj 243 223 list trim;
#X obj 257 171 inlet SetParameters;
#X obj 316 371 inlet GetParameters;
#X obj 303 270 print \$1/gemwin;
#X obj 259 495 print \$1/gemwin;
#X obj 201 568 pp gemwin;
#X connect 0 0 1 0;
#X connect 1 0 23 0;
#X connect 1 1 11 0;
#X connect 4 0 36 0;
#X connect 4 1 5 1;
#X connect 5 0 2 0;
#X connect 6 0 7 0;
#X connect 7 0 2 1;
#X connect 8 0 32 0;
#X connect 8 1 29 0;
#X connect 11 0 14 0;
#X connect 12 0 14 1;
#X connect 13 0 14 1;
#X connect 14 0 4 0;
#X connect 15 1 17 0;
#X connect 15 1 18 1;
#X connect 16 0 5 0;
#X connect 16 1 6 0;
#X connect 17 0 35 0;
#X connect 18 0 16 0;
#X connect 19 0 24 0;
#X connect 21 0 22 0;
#X connect 23 0 12 0;
#X connect 23 1 8 0;
#X connect 23 2 13 0;
#X connect 24 0 42 0;
#X connect 25 0 21 0;
#X connect 25 1 24 1;
#X connect 26 1 27 0;
#X connect 26 1 28 1;
#X connect 27 0 30 0;
#X connect 28 0 25 0;
#X connect 29 0 28 0;
#X connect 29 1 26 0;
#X connect 29 2 31 1;
#X connect 30 0 31 0;
#X connect 31 0 41 0;
#X connect 32 0 33 0;
#X connect 33 0 29 0;
#X connect 34 0 40 0;
#X connect 35 0 34 0;
#X connect 36 0 18 0;
#X connect 36 1 15 0;
#X connect 36 2 37 0;
#X connect 37 0 34 1;
#X connect 38 0 15 1;
#X connect 39 0 26 1;
#X connect 39 0 32 1;
#X connect 42 0 20 0;
#X restore 578 144 pd \$0-OSC;
#N canvas 535 170 450 300 \$0-getter 0;
#X obj 77 112 s \$0-get;
#X obj 77 93 any;
#X obj 77 54 inlet;
#X obj 128 92 outlet;
#X text 183 87 if "get" \, sends value to \$0-send;
#X text 181 101 else updates storage and outputs;
#X obj 77 73 route get;
#X connect 1 0 0 0;
#X connect 2 0 6 0;
#X connect 6 0 1 0;
#X connect 6 1 1 1;
#X connect 6 1 3 0;
#X restore 922 -78 pd \$0-getter;
#X obj 374 150 gemwin;
#X obj 587 -45 r \$1/gemwin;
#X obj 374 125 r \$0-gemwin;
#N canvas 300 437 897 274 \$0-WindowConfig 0;
#X obj 135 -36 r \$0-dimen;
#N canvas 535 170 450 300 \$0-getter 0;
#X obj 77 112 s \$0-get;
#X obj 77 93 any;
#X obj 77 54 inlet;
#X obj 128 92 outlet;
#X text 183 87 if "get" \, sends value to \$0-send;
#X text 181 101 else updates storage and outputs;
#X obj 77 73 route get;
#X connect 1 0 0 0;
#X connect 2 0 6 0;
#X connect 6 0 1 0;
#X connect 6 1 1 1;
#X connect 6 1 3 0;
#X restore 135 -14 pd \$0-getter;
#X msg 135 7 dimen \$1 \$2;
#X obj 135 29 s \$0-gemwin;
#N canvas 535 170 450 300 \$0-getter 0;
#X obj 77 112 s \$0-get;
#X obj 77 93 any;
#X obj 77 54 inlet;
#X obj 128 92 outlet;
#X text 183 87 if "get" \, sends value to \$0-send;
#X text 181 101 else updates storage and outputs;
#X obj 77 73 route get;
#X connect 1 0 0 0;
#X connect 2 0 6 0;
#X connect 6 0 1 0;
#X connect 6 1 1 1;
#X connect 6 1 3 0;
#X restore 254 -12 pd \$0-getter;
#X obj 254 31 s \$0-gemwin;
#X obj 254 -34 r \$0-offset;
#X msg 254 9 offset \$1 \$2;
#N canvas 535 170 450 300 \$0-getter 0;
#X obj 77 112 s \$0-get;
#X obj 77 93 any;
#X obj 77 54 inlet;
#X obj 128 92 outlet;
#X text 183 87 if "get" \, sends value to \$0-send;
#X text 181 101 else updates storage and outputs;
#X obj 77 73 route get;
#X connect 1 0 0 0;
#X connect 2 0 6 0;
#X connect 6 0 1 0;
#X connect 6 1 1 1;
#X connect 6 1 3 0;
#X restore 372 -11 pd \$0-getter;
#X obj 372 32 s \$0-gemwin;
#X obj 372 -33 r \$0-border;
#N canvas 535 170 450 300 \$0-getter 0;
#X obj 77 112 s \$0-get;
#X obj 77 93 any;
#X obj 77 54 inlet;
#X obj 128 92 outlet;
#X text 183 87 if "get" \, sends value to \$0-send;
#X text 181 101 else updates storage and outputs;
#X obj 77 73 route get;
#X connect 1 0 0 0;
#X connect 2 0 6 0;
#X connect 6 0 1 0;
#X connect 6 1 1 1;
#X connect 6 1 3 0;
#X restore 472 -11 pd \$0-getter;
#X obj 472 32 s \$0-gemwin;
#X obj 472 -33 r \$0-cursor;
#X msg 372 10 border \$1;
#X msg 472 10 cursor \$1;
#N canvas 535 170 450 300 \$0-getter 0;
#X obj 77 112 s \$0-get;
#X obj 77 93 any;
#X obj 77 54 inlet;
#X obj 128 92 outlet;
#X text 183 87 if "get" \, sends value to \$0-send;
#X text 181 101 else updates storage and outputs;
#X obj 77 73 route get;
#X connect 1 0 0 0;
#X connect 2 0 6 0;
#X connect 6 0 1 0;
#X connect 6 1 1 1;
#X connect 6 1 3 0;
#X restore 576 -11 pd \$0-getter;
#X obj 576 32 s \$0-gemwin;
#N canvas 535 170 450 300 \$0-getter 0;
#X obj 77 112 s \$0-get;
#X obj 77 93 any;
#X obj 77 54 inlet;
#X obj 128 92 outlet;
#X text 183 87 if "get" \, sends value to \$0-send;
#X text 181 101 else updates storage and outputs;
#X obj 77 73 route get;
#X connect 1 0 0 0;
#X connect 2 0 6 0;
#X connect 6 0 1 0;
#X connect 6 1 1 1;
#X connect 6 1 3 0;
#X restore 676 -11 pd \$0-getter;
#X obj 676 32 s \$0-gemwin;
#X obj 576 -33 r \$0-fps;
#X msg 576 10 frame \$1;
#X obj 676 -33 r \$0-FSAA;
#X msg 676 10 FSAA \$1;
#N canvas 535 170 450 300 \$0-getter 0;
#X obj 77 112 s \$0-get;
#X obj 77 93 any;
#X obj 77 54 inlet;
#X obj 128 92 outlet;
#X text 183 87 if "get" \, sends value to \$0-send;
#X text 181 101 else updates storage and outputs;
#X obj 77 73 route get;
#X connect 1 0 0 0;
#X connect 2 0 6 0;
#X connect 6 0 1 0;
#X connect 6 1 1 1;
#X connect 6 1 3 0;
#X restore 3 -15 pd \$0-getter;
#X obj 3 72 s \$0-gemwin;
#X obj 3 -37 r \$0-render;
#X obj 3 5 route 0 1;
#X msg 28 49 create \, 1;
#X msg 3 28 0 \, destroy;
#X msg 315 160 \; pd-\$1-WindowConfig-lists vis 1;
#X obj 315 140 f \$0;
#X obj 315 119 r \$0-windowconfig-open;
#X obj 393 71 s \$0-border_set;
#X obj 490 70 s \$0-cursor_set;
#X obj 600 96 s \$0-render_set;
#X msg 600 76 label \$1;
#X obj -24 149 s \$0-render_set;
#X msg -24 106 color 13 \, set 0;
#X msg 5 125 color 16 \, set 1;
#X obj 600 56 l2s;
#X obj 393 51 pp set;
#X obj 490 51 pp set;
#N canvas 535 170 450 300 \$0-getter 0;
#X obj 77 112 s \$0-get;
#X obj 77 93 any;
#X obj 77 54 inlet;
#X obj 128 92 outlet;
#X text 183 87 if "get" \, sends value to \$0-send;
#X text 181 101 else updates storage and outputs;
#X obj 77 73 route get;
#X connect 1 0 0 0;
#X connect 2 0 6 0;
#X connect 6 0 1 0;
#X connect 6 1 1 1;
#X connect 6 1 3 0;
#X restore 766 -11 pd \$0-getter;
#X obj 766 32 s \$0-gemwin;
#X obj 766 -32 r \$0-perspec;
#X obj 768 11 pp perspec;
#X connect 0 0 1 0;
#X connect 1 0 2 0;
#X connect 2 0 3 0;
#X connect 4 0 7 0;
#X connect 6 0 4 0;
#X connect 7 0 5 0;
#X connect 8 0 14 0;
#X connect 8 0 41 0;
#X connect 10 0 8 0;
#X connect 11 0 15 0;
#X connect 11 0 42 0;
#X connect 13 0 11 0;
#X connect 14 0 9 0;
#X connect 15 0 12 0;
#X connect 16 0 21 0;
#X connect 16 0 40 0;
#X connect 18 0 23 0;
#X connect 20 0 16 0;
#X connect 21 0 17 0;
#X connect 22 0 18 0;
#X connect 23 0 19 0;
#X connect 24 0 27 0;
#X connect 26 0 24 0;
#X connect 27 0 29 0;
#X connect 27 0 38 0;
#X connect 27 1 28 0;
#X connect 27 1 39 0;
#X connect 28 0 25 0;
#X connect 29 0 25 0;
#X connect 31 0 30 0;
#X connect 32 0 31 0;
#X connect 36 0 35 0;
#X connect 38 0 37 0;
#X connect 39 0 37 0;
#X connect 40 0 36 0;
#X connect 41 0 33 0;
#X connect 42 0 34 0;
#X connect 43 0 46 0;
#X connect 45 0 43 0;
#X connect 46 0 44 0;
#X restore 368 -22 pd \$0-WindowConfig;
#X obj 145 139 vradio 12 1 0 2 gemMouse_Mode empty Mouse 0 -6 0 10
-262144 -1 -1 0;
#X text 158 148 Nav;
#X text 157 137 Coord;
#X msg 629 108 render dimen offset border cursor fps FSAA;
#X text 560 -104 OSC GET message format : /domain ID parameter value
;
#X text 560 -117 OSC SET message format : /domain/ID parameter value
;
#X msg 450 126 reset;
#X obj 1 14 cnv 60 188 85 empty empty empty 5 7 0 12 -99865 -66577
0;
#N canvas 101 371 425 251 \$0-WindowConfig-lists 1;
#X obj -312 26 cnv 15 420 130 empty empty Liste_Offsets 20 12 0 14
-233017 -66577 0;
#X obj -100 98 cnv 15 208 49 empty empty empty 20 12 0 14 -162280 -66577
0;
#X obj -312 -75 cnv 15 420 100 empty empty Liste_Resolutions 20 12
0 14 -191407 -66577 0;
#X obj -284 -99 loadbang;
#X obj -284 128 s \$0-gemwin_Offset;
#X obj -284 -2 s \$0-gemwin_Resolution;
#X msg -89 100 0;
#X msg -58 100 2;
#X msg -29 100 4;
#X msg 2 100 8;
#X text 31 130 RELOAD AFTER !;
#X obj -89 129 s \$0-FSAA;
#X text 51 100 FSAA;
#X msg -284 51 name Offset \, options 0+0 1024+0 1360+0 1366+0 1367+0
1440+0 1367+400 1500+600 1921+0;
#X msg -284 -47 name Resolution \, options 320x240 640x100 640x250
640x480 800x600 1024x550 1024x768 1280x720 1280x768 1280x800 1280x1024
1366x768 1440x900 1600x1200 1920x1080 2559x1023 3840x1024 3839x1023
;
#X connect 3 0 14 0;
#X connect 3 0 13 0;
#X connect 6 0 11 0;
#X connect 7 0 11 0;
#X connect 8 0 11 0;
#X connect 9 0 11 0;
#X connect 13 0 4 0;
#X connect 14 0 5 0;
#X restore 368 -44 pd \$0-WindowConfig-lists;
#N canvas 449 542 450 300 \$0-KillGem 0;
#X obj 142 135 r gemMouse_Mid;
#X msg 128 160 0;
#X obj 128 181 s \$0-render;
#X obj 78 92 keyname;
#X obj 71 72 gemkeyname;
#X obj 128 115 select Escape;
#X text 63 36 "escape" or middle mouse button to stop render;
#X connect 0 0 1 0;
#X connect 1 0 2 0;
#X connect 4 1 5 0;
#X connect 5 0 1 0;
#X restore 368 -76 pd \$0-KillGem;
#X obj 108 196 s gemMouse_Mid;
#X obj 74 243 s gemMouse_Y;
#X obj 57 268 s gemMouse_X;
#N canvas 616 369 612 366 \$0-gemMouse_Coord 0;
#X obj 262 268 t b f;
#X obj 226 290 pack 0 0 0;
#X obj 226 143 gate;
#X obj 262 143 gate;
#X obj 283 78 r gemMouse_Y;
#X obj 247 37 r gemMouse_X;
#X obj 262 58 r gemMouse_Left;
#X obj 226 312 s gemMouse_Coord;
#X obj 324 101 r gemMouse_Mode;
#X obj 324 121 == 0;
#X obj 262 119 spigot 1;
#X obj 226 163 - 1;
#X obj 226 215 * 4;
#X obj 262 215 * 4;
#X obj 151 202 /;
#X obj 151 158 r \$0-dimen;
#X obj 151 179 unpack f f;
#X obj 226 239 * 1.33;
#X obj 262 165 pp 1;
#X obj 262 193 -;
#X obj 418 142 gate;
#X obj 454 142 gate;
#X obj 475 77 r gemMouse_Y;
#X obj 439 36 r gemMouse_X;
#X obj 454 57 r gemMouse_Left;
#X obj 516 100 r gemMouse_Mode;
#X obj 516 120 == 0;
#X obj 454 118 spigot 1;
#X obj 418 264 pack 0 0 0;
#X obj 418 312 s gemMouse_Coord_Norm;
#X obj 418 173 / 2;
#X obj 454 173 / 2;
#X connect 0 0 1 0;
#X connect 0 1 1 1;
#X connect 1 0 7 0;
#X connect 2 0 11 0;
#X connect 3 0 18 0;
#X connect 4 0 3 1;
#X connect 5 0 2 1;
#X connect 6 0 10 0;
#X connect 8 0 9 0;
#X connect 9 0 10 1;
#X connect 10 0 3 0;
#X connect 10 0 2 0;
#X connect 11 0 12 0;
#X connect 12 0 17 0;
#X connect 13 0 0 0;
#X connect 14 0 17 1;
#X connect 15 0 16 0;
#X connect 16 0 14 0;
#X connect 16 1 14 1;
#X connect 17 0 1 0;
#X connect 18 0 19 0;
#X connect 19 0 13 0;
#X connect 20 0 30 0;
#X connect 21 0 31 0;
#X connect 22 0 21 1;
#X connect 23 0 20 1;
#X connect 24 0 27 0;
#X connect 25 0 26 0;
#X connect 26 0 27 1;
#X connect 27 0 21 0;
#X connect 27 0 20 0;
#X connect 28 0 29 0;
#X connect 30 0 28 0;
#X connect 31 0 28 1;
#X restore 223 201 pd \$0-gemMouse_Coord;
#N canvas 458 312 887 615 gemMouse_Navi 0;
#X text 370 22 view <view_x> <view_y> <view_z> <target_x> <target_y>
<target_z> <up_x> <up_y> <up_z>::;
#X text 404 63 set viewpoint (view_X view_Y view_Z). the camera will
look at the target-point (target_X \, target_Y \, target_Z). "up" is
defined via the vector (up_X \, up_Y \, up_Z);
#X text 404 116 default: 0 0 4 0 0 0 0 1 0;
#X msg 48 670 view \$1 \$2 \$3 0 0 0 0 1 0;
#X obj 50 643 pack 0 0 4 0 0 0 0 1 0;
#X obj 82 242 f;
#X obj 3 223 spigot;
#X obj 64 214 sel 0 1;
#X obj 34 195 t f f;
#X obj 3 271 -;
#X obj 3 320 +;
#X obj 64 284 f;
#X obj -44 239 f;
#X obj -123 220 spigot;
#X obj -62 211 sel 0 1;
#X obj -92 192 t f f;
#X obj -123 271 -;
#X obj -123 320 +;
#X obj -62 281 f;
#X obj 203 233 f;
#X obj 124 217 spigot;
#X obj 185 208 sel 0 1;
#X obj 155 189 t f f;
#X obj 124 268 -;
#X obj 185 278 f;
#X obj -123 536 * 4;
#X obj -68 538 * 4;
#X obj 123 374 t b f;
#X obj 3 382 cos;
#X obj -97 454 * 1;
#X obj -123 454 * 1;
#X obj 41 383 sin;
#X obj -96 537 * 4;
#X obj 3 404 t b f;
#X obj 3 358 / 200;
#X obj -123 562 pack f f f;
#X obj 312 206 t b f;
#X obj 312 235 |;
#X obj 284 311 gemhead;
#X obj 288 264 loadbang;
#X msg 284 286 0;
#X obj 284 386 curve 2;
#X obj 284 337 color 1 0 0;
#X obj 368 311 gemhead;
#X obj 368 386 curve 2;
#X obj 448 313 gemhead;
#X obj 448 388 curve 2;
#X msg 321 360 3 0 0;
#X msg 405 360 0 3 0;
#X msg 485 362 0 0 3;
#X msg -123 587 view \$1 \$2 \$3 0 0 0 0 1 0;
#X obj 368 337 color 0 1 0;
#X obj 448 339 color 0 0 1;
#X obj -123 379 sin;
#X obj -97 380 cos;
#X obj 124 317 + 200;
#X obj 124 348 / 50;
#X obj -123 354 / -200;
#X obj -105 611 s myGemwin;
#X obj -123 25 r gemMouse_X;
#X obj 105 25 r gemMouse_Y;
#X obj -9 28 r gemMouse_Mode;
#X obj -42 7 r gemMouse_Left;
#X obj 218 24 r gemMouse_Mode;
#X obj 185 3 r gemMouse_Right;
#X msg 44 587 view 0 0 4 0 0 0 0 1 0;
#X obj 45 567 r gemMouse_ResetNav;
#X obj -9 48 == 1;
#X obj 218 44 == 1;
#X obj -42 68 spigot;
#X obj 185 64 spigot;
#X connect 5 0 9 1;
#X connect 6 0 9 0;
#X connect 7 0 11 0;
#X connect 7 1 5 0;
#X connect 8 0 6 1;
#X connect 8 1 7 0;
#X connect 9 0 10 0;
#X connect 10 0 11 1;
#X connect 10 0 34 0;
#X connect 11 0 10 1;
#X connect 12 0 16 1;
#X connect 13 0 16 0;
#X connect 14 0 18 0;
#X connect 14 1 12 0;
#X connect 15 0 13 1;
#X connect 15 1 14 0;
#X connect 16 0 17 0;
#X connect 17 0 18 1;
#X connect 17 0 57 0;
#X connect 18 0 17 1;
#X connect 19 0 23 1;
#X connect 20 0 23 0;
#X connect 21 0 24 0;
#X connect 21 1 19 0;
#X connect 22 0 20 1;
#X connect 22 1 21 0;
#X connect 23 0 55 0;
#X connect 24 0 55 1;
#X connect 25 0 35 0;
#X connect 26 0 35 2;
#X connect 27 0 26 0;
#X connect 27 0 25 0;
#X connect 27 0 32 0;
#X connect 27 1 26 1;
#X connect 27 1 25 1;
#X connect 27 1 32 1;
#X connect 28 0 33 0;
#X connect 29 0 26 0;
#X connect 30 0 25 0;
#X connect 31 0 32 0;
#X connect 32 0 35 1;
#X connect 33 0 29 0;
#X connect 33 0 30 0;
#X connect 33 1 29 1;
#X connect 33 1 30 1;
#X connect 34 0 28 0;
#X connect 34 0 31 0;
#X connect 35 0 50 0;
#X connect 36 0 37 0;
#X connect 36 1 37 1;
#X connect 37 0 38 0;
#X connect 37 0 43 0;
#X connect 37 0 45 0;
#X connect 38 0 42 0;
#X connect 39 0 40 0;
#X connect 39 0 47 0;
#X connect 39 0 48 0;
#X connect 39 0 49 0;
#X connect 39 0 57 0;
#X connect 39 0 55 0;
#X connect 40 0 38 0;
#X connect 40 0 43 0;
#X connect 40 0 45 0;
#X connect 42 0 41 0;
#X connect 43 0 51 0;
#X connect 45 0 52 0;
#X connect 47 0 41 2;
#X connect 48 0 44 2;
#X connect 49 0 46 2;
#X connect 50 0 58 0;
#X connect 51 0 44 0;
#X connect 52 0 46 0;
#X connect 53 0 30 0;
#X connect 54 0 29 0;
#X connect 55 0 24 1;
#X connect 55 0 56 0;
#X connect 56 0 27 0;
#X connect 57 0 53 0;
#X connect 57 0 54 0;
#X connect 59 0 13 0;
#X connect 59 0 12 1;
#X connect 60 0 5 1;
#X connect 60 0 6 0;
#X connect 60 0 20 0;
#X connect 60 0 19 1;
#X connect 61 0 67 0;
#X connect 62 0 69 0;
#X connect 63 0 68 0;
#X connect 64 0 70 0;
#X connect 65 0 58 0;
#X connect 66 0 65 0;
#X connect 67 0 69 1;
#X connect 68 0 70 1;
#X connect 69 0 15 0;
#X connect 69 0 37 0;
#X connect 69 0 8 0;
#X connect 70 0 36 0;
#X connect 70 0 22 0;
#X restore 212 228 pd gemMouse_Navi;
#X obj 126 174 s gemMouse_Right;
#X obj 91 221 s gemMouse_Left;
#N canvas 236 353 552 176 \$0-init 0;
#X obj 19 106 s \$0-dimen;
#X obj 88 106 s \$0-offset;
#X obj 165 106 s \$0-border;
#X obj 239 106 s \$0-cursor;
#X obj 313 106 s \$0-fps;
#X obj 370 106 s \$0-FSAA;
#X msg 19 81 320 240;
#X msg 88 82 50 50;
#X msg 239 86 1;
#X msg 313 86 25;
#X msg 370 85 2;
#X obj 16 5 loadbang;
#X msg 451 87 1;
#X obj 451 107 s \$0-color_All_set;
#X msg 165 86 0;
#X connect 6 0 0 0;
#X connect 7 0 1 0;
#X connect 8 0 3 0;
#X connect 9 0 4 0;
#X connect 10 0 5 0;
#X connect 11 0 6 0;
#X connect 11 0 7 0;
#X connect 11 0 14 0;
#X connect 11 0 8 0;
#X connect 11 0 9 0;
#X connect 11 0 10 0;
#X connect 11 0 12 0;
#X connect 12 0 13 0;
#X connect 14 0 2 0;
#X restore 368 -108 pd \$0-init;
#N canvas 40 351 1214 618 \$0-Color-Light-Fog 0;
#N canvas 535 170 450 300 \$0-getter 0;
#X obj 77 112 s \$0-get;
#X obj 77 93 any;
#X obj 77 54 inlet;
#X obj 128 92 outlet;
#X text 183 87 if "get" \, sends value to \$0-send;
#X text 181 101 else updates storage and outputs;
#X obj 77 73 route get;
#X connect 1 0 0 0;
#X connect 2 0 6 0;
#X connect 6 0 1 0;
#X connect 6 1 1 1;
#X connect 6 1 3 0;
#X restore 131 -11 pd \$0-getter;
#X obj 131 32 s \$0-gemwin;
#X obj 131 -33 r \$0-color;
#X msg 131 10 color \$1 \$2 \$3;
#X obj -67 -32 r \$0-color_R;
#X obj -50 -12 r \$0-color_G;
#X obj -10 7 r \$0-color_B;
#X obj 28 27 r \$0-color_All;
#X obj -50 47 t b f;
#X obj -10 47 t b f;
#X obj 28 47 t b f;
#X obj -67 125 s \$0-color;
#X obj -67 86 pack 0 0 0;
#X obj -67 105 list-math * 1;
#X obj 232 48 s \$0-color_R_set;
#X obj 266 88 s \$0-color_G_set;
#X obj 301 127 s \$0-color_B_set;
#X obj 232 9 unpack f f f;
#X obj 232 28 pp set;
#X obj 266 68 pp set;
#X obj 301 108 pp set;
#N canvas 535 170 450 300 \$0-getter 0;
#X obj 77 112 s \$0-get;
#X obj 77 93 any;
#X obj 77 54 inlet;
#X obj 128 92 outlet;
#X text 183 87 if "get" \, sends value to \$0-send;
#X text 181 101 else updates storage and outputs;
#X obj 77 73 route get;
#X connect 1 0 0 0;
#X connect 2 0 6 0;
#X connect 6 0 1 0;
#X connect 6 1 1 1;
#X connect 6 1 3 0;
#X restore 472 -1 pd \$0-getter;
#X obj 472 42 s \$0-gemwin;
#X obj 472 -23 r \$0-fogmode;
#X msg 472 20 fogmode \$1;
#X obj 483 84 s \$0-fogmode_set;
#X obj 483 65 pp set;
#N canvas 535 170 450 300 \$0-getter 0;
#X obj 77 112 s \$0-get;
#X obj 77 93 any;
#X obj 77 54 inlet;
#X obj 128 92 outlet;
#X text 183 87 if "get" \, sends value to \$0-send;
#X text 181 101 else updates storage and outputs;
#X obj 77 73 route get;
#X connect 1 0 0 0;
#X connect 2 0 6 0;
#X connect 6 0 1 0;
#X connect 6 1 1 1;
#X connect 6 1 3 0;
#X restore 590 -1 pd \$0-getter;
#X obj 590 42 s \$0-gemwin;
#X obj 601 65 pp set;
#X obj 590 -23 r \$0-fog;
#X obj 601 84 s \$0-fog_set;
#X msg 590 20 fog \$1;
#X obj -32 203 f \$0;
#X obj -32 182 r \$0-light_config;
#X msg -32 223 \; pd-\$1-LightConfig vis 1;
#N canvas 535 170 450 300 \$0-getter 0;
#X obj 77 112 s \$0-get;
#X obj 77 93 any;
#X obj 77 54 inlet;
#X obj 128 92 outlet;
#X text 183 87 if "get" \, sends value to \$0-send;
#X text 181 101 else updates storage and outputs;
#X obj 77 73 route get;
#X connect 1 0 0 0;
#X connect 2 0 6 0;
#X connect 6 0 1 0;
#X connect 6 1 1 1;
#X connect 6 1 3 0;
#X restore 852 -2 pd \$0-getter;
#X obj 852 41 s \$0-gemwin;
#X obj 852 -24 r \$0-fogcolor;
#X obj 866 63 unpack f f f;
#X obj 866 82 pp set;
#X obj 900 122 pp set;
#X obj 935 162 pp set;
#X obj 866 102 s \$0-fogcolor_R_set;
#X obj 900 142 s \$0-fogcolor_G_set;
#X obj 935 181 s \$0-fogcolor_B_set;
#X msg 852 19 fogcolor \$1 \$2 \$3;
#X obj 707 37 t b f;
#X obj 747 37 t b f;
#X obj 690 76 pack 0 0 0;
#X obj 690 -22 r \$0-fogcolor_R;
#X obj 707 -2 r \$0-fogcolor_G;
#X obj 747 17 r \$0-fogcolor_B;
#N canvas 535 170 450 300 \$0-getter 0;
#X obj 77 112 s \$0-get;
#X obj 77 93 any;
#X obj 77 54 inlet;
#X obj 128 92 outlet;
#X text 183 87 if "get" \, sends value to \$0-send;
#X text 181 101 else updates storage and outputs;
#X obj 77 73 route get;
#X connect 1 0 0 0;
#X connect 2 0 6 0;
#X connect 6 0 1 0;
#X connect 6 1 1 1;
#X connect 6 1 3 0;
#X restore 331 208 pd \$0-getter;
#X obj 331 251 s \$0-gemwin;
#X obj 342 274 pp set;
#X obj 331 186 r \$0-lighting;
#X msg 331 229 lighting \$1;
#X obj 342 293 s \$0-lighting_set;
#N canvas 535 170 450 300 \$0-getter 0;
#X obj 77 112 s \$0-get;
#X obj 77 93 any;
#X obj 77 54 inlet;
#X obj 128 92 outlet;
#X text 183 87 if "get" \, sends value to \$0-send;
#X text 181 101 else updates storage and outputs;
#X obj 77 73 route get;
#X connect 1 0 0 0;
#X connect 2 0 6 0;
#X connect 6 0 1 0;
#X connect 6 1 1 1;
#X connect 6 1 3 0;
#X restore 468 210 pd \$0-getter;
#X obj 468 253 s \$0-gemwin;
#X obj 479 276 pp set;
#X obj 468 188 r \$0-shininess;
#X msg 468 231 shininess \$1;
#X obj 479 295 s \$0-shininess_set;
#N canvas 535 170 450 300 \$0-getter 0;
#X obj 77 112 s \$0-get;
#X obj 77 93 any;
#X obj 77 54 inlet;
#X obj 128 92 outlet;
#X text 183 87 if "get" \, sends value to \$0-send;
#X text 181 101 else updates storage and outputs;
#X obj 77 73 route get;
#X connect 1 0 0 0;
#X connect 2 0 6 0;
#X connect 6 0 1 0;
#X connect 6 1 1 1;
#X connect 6 1 3 0;
#X restore 775 206 pd \$0-getter;
#X obj 775 249 s \$0-gemwin;
#X obj 789 271 unpack f f f;
#X obj 789 290 pp set;
#X obj 823 330 pp set;
#X obj 858 370 pp set;
#X obj 630 245 t b f;
#X obj 670 245 t b f;
#X obj 613 284 pack 0 0 0;
#X obj 613 186 r \$0-ambient_R;
#X obj 630 206 r \$0-ambient_G;
#X obj 670 225 r \$0-ambient_B;
#X obj 613 303 s \$0-ambient;
#X obj 775 184 r \$0-ambient;
#X msg 775 227 ambient \$1 \$2 \$3;
#X obj 789 310 s \$0-ambient_R_set;
#X obj 823 350 s \$0-ambient_G_set;
#X obj 858 389 s \$0-ambient_B_set;
#N canvas 535 170 450 300 \$0-getter 0;
#X obj 77 112 s \$0-get;
#X obj 77 93 any;
#X obj 77 54 inlet;
#X obj 128 92 outlet;
#X text 183 87 if "get" \, sends value to \$0-send;
#X text 181 101 else updates storage and outputs;
#X obj 77 73 route get;
#X connect 1 0 0 0;
#X connect 2 0 6 0;
#X connect 6 0 1 0;
#X connect 6 1 1 1;
#X connect 6 1 3 0;
#X restore 629 371 pd \$0-getter;
#X obj 629 414 s \$0-gemwin;
#X obj 643 436 unpack f f f;
#X obj 643 455 pp set;
#X obj 677 495 pp set;
#X obj 712 535 pp set;
#X obj 484 410 t b f;
#X obj 524 410 t b f;
#X obj 467 449 pack 0 0 0;
#X obj 467 351 r \$0-specular_R;
#X obj 484 371 r \$0-specular_G;
#X obj 524 390 r \$0-specular_B;
#X obj 467 468 s \$0-specular;
#X obj 629 349 r \$0-specular;
#X msg 629 392 specular \$1 \$2 \$3;
#X obj 643 475 s \$0-specular_R_set;
#X obj 677 515 s \$0-specular_G_set;
#X obj 712 554 s \$0-specular_B_set;
#X obj 690 95 s \$0-fogcolor;
#X connect 0 0 3 0;
#X connect 0 0 17 0;
#X connect 2 0 0 0;
#X connect 3 0 1 0;
#X connect 4 0 12 0;
#X connect 5 0 8 0;
#X connect 6 0 9 0;
#X connect 7 0 10 0;
#X connect 8 0 12 0;
#X connect 8 1 12 1;
#X connect 9 0 12 0;
#X connect 9 1 12 2;
#X connect 10 0 12 0;
#X connect 10 1 13 1;
#X connect 12 0 13 0;
#X connect 13 0 11 0;
#X connect 17 0 18 0;
#X connect 17 1 19 0;
#X connect 17 2 20 0;
#X connect 18 0 14 0;
#X connect 19 0 15 0;
#X connect 20 0 16 0;
#X connect 21 0 24 0;
#X connect 21 0 26 0;
#X connect 23 0 21 0;
#X connect 24 0 22 0;
#X connect 26 0 25 0;
#X connect 27 0 32 0;
#X connect 27 0 29 0;
#X connect 29 0 31 0;
#X connect 30 0 27 0;
#X connect 32 0 28 0;
#X connect 33 0 35 0;
#X connect 34 0 33 0;
#X connect 36 0 46 0;
#X connect 36 0 39 0;
#X connect 38 0 36 0;
#X connect 39 0 40 0;
#X connect 39 1 41 0;
#X connect 39 2 42 0;
#X connect 40 0 43 0;
#X connect 41 0 44 0;
#X connect 42 0 45 0;
#X connect 46 0 37 0;
#X connect 47 0 49 0;
#X connect 47 1 49 1;
#X connect 48 0 49 0;
#X connect 48 1 49 2;
#X connect 49 0 101 0;
#X connect 50 0 49 0;
#X connect 51 0 47 0;
#X connect 52 0 48 0;
#X connect 53 0 57 0;
#X connect 53 0 55 0;
#X connect 55 0 58 0;
#X connect 56 0 53 0;
#X connect 57 0 54 0;
#X connect 59 0 63 0;
#X connect 59 0 61 0;
#X connect 61 0 64 0;
#X connect 62 0 59 0;
#X connect 63 0 60 0;
#X connect 65 0 79 0;
#X connect 65 0 67 0;
#X connect 67 0 68 0;
#X connect 67 1 69 0;
#X connect 67 2 70 0;
#X connect 68 0 80 0;
#X connect 69 0 81 0;
#X connect 70 0 82 0;
#X connect 71 0 73 0;
#X connect 71 1 73 1;
#X connect 72 0 73 0;
#X connect 72 1 73 2;
#X connect 73 0 77 0;
#X connect 74 0 73 0;
#X connect 75 0 71 0;
#X connect 76 0 72 0;
#X connect 78 0 65 0;
#X connect 79 0 66 0;
#X connect 83 0 97 0;
#X connect 83 0 85 0;
#X connect 85 0 86 0;
#X connect 85 1 87 0;
#X connect 85 2 88 0;
#X connect 86 0 98 0;
#X connect 87 0 99 0;
#X connect 88 0 100 0;
#X connect 89 0 91 0;
#X connect 89 1 91 1;
#X connect 90 0 91 0;
#X connect 90 1 91 2;
#X connect 91 0 95 0;
#X connect 92 0 91 0;
#X connect 93 0 89 0;
#X connect 94 0 90 0;
#X connect 96 0 83 0;
#X connect 97 0 84 0;
#X restore 368 30 pd \$0-Color-Light-Fog;
#N canvas 664 753 402 112 \$0-LightConfig 0;
#X obj -11 0 cnv 15 400 110 empty empty empty 20 12 0 14 -233017 -66577
0;
#X obj -5 5 cnv 15 100 100 empty empty FOG_COLOR 15 10 0 14 -66577
-262144 0;
#X obj 19 33 vsl 12 60 0 1 0 0 \$0-fogcolor_R \$0-fogcolor_R_set empty
0 -9 0 10 -258113 -262144 -1 0 1;
#X obj 39 33 vsl 12 60 0 1 0 0 \$0-fogcolor_G \$0-fogcolor_G_set empty
0 -9 0 10 -4034 -262144 -1 0 1;
#X obj 59 33 vsl 12 60 0 1 0 0 \$0-fogcolor_B \$0-fogcolor_B_set empty
0 -9 0 10 -4160 -262144 -1 0 1;
#X obj 203 5 cnv 15 100 100 empty empty SPECULAR 18 10 0 14 -66577
-262144 0;
#X obj 99 5 cnv 15 100 100 empty empty AMBIENT 22 10 0 14 -66577 -262144
0;
#X obj 123 33 vsl 12 60 0 1 0 0 \$0-ambient_R \$0-ambient_R_set empty
0 -9 0 10 -258113 -262144 -1 0 1;
#X obj 142 33 vsl 12 60 0 1 0 0 \$0-ambient_G \$0-ambient_G_set empty
0 -9 0 10 -4034 -262144 -1 0 1;
#X obj 162 33 vsl 12 60 0 1 0 0 \$0-ambient_B \$0-ambient_B_set empty
0 -9 0 10 -4160 -262144 -1 0 1;
#X obj 227 33 vsl 12 60 0 1 0 0 \$0-specular_R \$0-specular_R_set empty
0 -9 0 10 -258113 -262144 -1 0 1;
#X obj 246 33 vsl 12 60 0 1 0 0 \$0-specular_G \$0-specular_G_set empty
0 -9 0 10 -4034 -262144 -1 0 1;
#X obj 266 33 vsl 12 60 0 1 0 0 \$0-specular_B \$0-specular_B_set empty
0 -9 0 10 -4160 -262144 -1 0 1;
#X obj 307 5 cnv 15 75 100 empty empty SHININESS 2 10 0 14 -66577 -262144
0;
#X obj 339 33 vsl 12 60 0 1 0 0 \$0-shininess \$0-shininess_set empty
0 -9 0 10 -128992 -262144 -1 0 1;
#X restore 368 10 pd \$0-LightConfig;
#X obj 3 16 cnv 15 45 47 empty empty empty 20 12 0 14 -228856 -66577
0;
#X obj 134 16 cnv 15 53 47 empty empty empty 20 12 0 14 -233017 -66577
0;
#X obj 51 64 cnv 15 80 33 empty empty empty 20 12 0 14 -233017 -66577
0;
#X obj 245 68 s2l x;
#X obj 245 87 s \$0-dimen;
#X obj 51 -50 r \$0-gemwin_Resolution;
#X obj 51 -30 r \$0-gemwin_Offset;
#X obj 208 87 s2l +;
#X obj 208 106 s \$0-offset;
#X obj 53 21 popup 75 15 #ffffff Resolution 320x240 640x100 640x250
640x480 800x600 1024x550 1024x768 1280x720 1280x768 1280x800 1280x1024
1366x768 1440x900 1600x1200 1920x1080 2559x1023 3840x1024 3839x1023
;
#X obj 53 42 popup 75 15 #ffffff Offset 0+0 1024+0 1360+0 1366+0 1367+0
1440+0 1367+400 1500+600 1921+0;
#X obj 140 20 tgl 10 0 \$0-border \$0-border_set Border 12 5 0 8 -162280
-1 -1 1 1;
#X obj 140 34 tgl 10 0 \$0-cursor \$0-cursor_set Cursor 10 6 0 8 -13330
-1 -1 1 1;
#X obj 5 69 vsl 8 25 0 1 0 0 \$0-color_R \$0-color_R_set empty 0 -9
0 10 -258113 -262144 -1 0 1;
#X obj 16 69 vsl 8 25 0 1 0 0 \$0-color_G \$0-color_G_set empty 0 -9
0 10 -4034 -262144 -1 0 1;
#X obj 27 69 vsl 8 25 0 1 0 0 \$0-color_B \$0-color_B_set empty 0 -9
0 10 -4160 -262144 -1 0 1;
#X obj 38 69 vsl 8 25 0 1 0 0 \$0-color_All \$0-color_All_set empty
0 -9 0 10 -1 -262144 -1 2400 1;
#X obj 67 67 hradio 12 1 0 4 \$0-fogmode \$0-fogmode_set empty 0 -8
0 10 -162280 -1 -1 0;
#X obj 70 82 hsl 43 12 0 1 0 0 \$0-fog \$0-fog_set FOG 10 6 0 10 -128992
-1 -262144 0 1;
#X obj 140 75 bng 20 250 50 0 \$0-light_config empty Lights -4 -5 0
8 -257985 -1 -1;
#X obj 165 75 tgl 20 0 \$0-lighting \$0-lighting_set empty 17 7 0 10
-257985 -1 -1 1 1;
#X obj 7 21 tgl 35 0 \$0-render \$0-render_set 25 12 7 0 10 -258699
-1 -262144 0 1;
#X obj 140 48 bng 10 250 50 0 \$0-windowconfig-open empty More... 12
6 0 8 -262144 -1 -1;
#X msg 603 33 render dimen offset border cursor fps FSAA color fog
fogmode fogcolor lighting shininess ambient specular perspec;
#X obj 57 151 gemmouse 2 2;
#X connect 3 0 11 0;
#X connect 6 0 60 0;
#X connect 9 0 20 0;
#X connect 14 0 11 0;
#X connect 15 0 13 0;
#X connect 20 0 11 2;
#X connect 23 0 13 0;
#X connect 40 0 41 0;
#X connect 42 0 46 0;
#X connect 43 0 47 0;
#X connect 44 0 45 0;
#X connect 46 1 40 0;
#X connect 47 1 44 0;
#X connect 60 0 11 1;
#X connect 61 0 29 0;
#X connect 61 1 28 0;
#X connect 61 2 33 0;
#X connect 61 3 27 0;
#X connect 61 4 32 0;
#X coords 0 -1 1 1 190 100 1 0 0;
