#N canvas 0 41 1024 728 10;
#X obj 100 100 cnv 15 250 200 empty empty morphine 85 12 1 20 -66577
-162280 0;
#N canvas 502 67 450 300 granular 0;
#X obj -13 520 inlet~;
#X obj 160 627 outlet~;
#X obj 152 427 phasor~;
#X obj 152 534 *~;
#X obj 152 400 sig~;
#X obj 290 359 t b f;
#X obj 232 475 wrap~;
#X obj 233 535 *~;
#X obj 290 337 / 1000;
#X obj 317 421 * 1000;
#X obj 166 514 samphold~;
#X obj 247 515 samphold~;
#X obj 152 380 expr (pow(2 \, $f1/120)-1)/$f2;
#X obj 290 314 int;
#N canvas 0 0 450 300 (subpatch) 0;
#X obj 114 -110 -~ 0.5;
#X obj 113 -89 *~ 0.5;
#X obj 112 -68 cos~;
#X obj 112 -48 *~;
#X obj 113 -27 outlet~;
#X obj 128 -130 inlet~ audio;
#X obj 115 -153 inlet~ phasor;
#X connect 0 0 1 0;
#X connect 1 0 2 0;
#X connect 2 0 3 0;
#X connect 3 0 4 0;
#X connect 5 0 3 1;
#X connect 6 0 0 0;
#X restore 218 584 pd;
#X obj -13 550 delwrite~ \$0-del 44100;
#X obj 234 555 vd~ \$0-del;
#X obj 153 555 vd~ \$0-del;
#N canvas 0 0 450 300 (subpatch) 0;
#X obj 114 -110 -~ 0.5;
#X obj 113 -89 *~ 0.5;
#X obj 112 -68 cos~;
#X obj 112 -48 *~;
#X obj 113 -27 outlet~;
#X obj 128 -130 inlet~ audio;
#X obj 115 -153 inlet~ phasor;
#X connect 0 0 1 0;
#X connect 1 0 2 0;
#X connect 2 0 3 0;
#X connect 3 0 4 0;
#X connect 5 0 3 1;
#X connect 6 0 0 0;
#X restore 135 581 pd;
#X obj 231 456 +~ 0.5;
#X obj 152 293 - 0.5;
#X floatatom 93 379 5 0 0 0 - - -;
#X obj 290 283 * 100;
#X obj 152 248 inlet;
#X obj 290 241 inlet;
#X obj 152 323 * -60;
#X connect 0 0 15 0;
#X connect 2 0 3 0;
#X connect 2 0 10 1;
#X connect 2 0 19 0;
#X connect 2 0 18 0;
#X connect 3 0 17 0;
#X connect 4 0 2 0;
#X connect 5 0 12 0;
#X connect 5 1 9 0;
#X connect 5 1 12 1;
#X connect 6 0 7 0;
#X connect 6 0 11 1;
#X connect 6 0 14 0;
#X connect 7 0 16 0;
#X connect 8 0 5 0;
#X connect 9 0 11 0;
#X connect 9 0 10 0;
#X connect 10 0 3 1;
#X connect 11 0 7 1;
#X connect 12 0 4 0;
#X connect 13 0 8 0;
#X connect 14 0 1 0;
#X connect 16 0 14 1;
#X connect 17 0 18 1;
#X connect 18 0 1 0;
#X connect 19 0 6 0;
#X connect 20 0 25 0;
#X connect 22 0 13 0;
#X connect 23 0 20 0;
#X connect 24 0 22 0;
#X connect 25 0 12 0;
#X restore 346 663 pd granular;
#X obj 109 567 inlet~;
#X obj 347 687 outlet~;
#X obj 148 194 cnv 2 155 2 empty empty empty 20 12 0 14 -162280 -66577
0;
#X obj 152 276 hsl 150 15 0 1 0 1 empty empty morph 60 8 1 10 -99865
-262144 -162280 14900 1;
#X obj 148 131 vsl 15 128 0 1 0 0 empty \$0_fader_1 empty 0 -9 0 10
-99865 -262144 -162280 0 1;
#X obj 111 129 vradio 15 1 0 8 empty empty preset_a 0 -8 1 10 -99865
-262144 -162280 0;
#X obj 111 328 s \$0_index_a;
#X obj 324 129 vradio 15 1 0 8 empty empty preset_b -30 -8 1 10 -99865
-262144 -162280 0;
#X obj 326 328 s \$0_index_b;
#X obj 149 304 s \$0_morph;
#X obj 204 35 loadbang;
#X msg 204 58 0;
#X obj 174 16 r \$0_morph;
#X obj 174 58 bang;
#X obj 168 131 vsl 15 128 0 1 0 0 empty \$0_fader_2 empty 0 -9 0 10
-99865 -262144 -162280 0 1;
#X obj 188 131 vsl 15 128 0 1 0 0 empty \$0_fader_3 empty 0 -9 0 10
-99865 -262144 -162280 0 1;
#N canvas 0 0 752 532 fader_3_preset 0;
#X obj 273 120 r \$0_index_a;
#X obj 186 130 spigot;
#X obj 219 100 == 0;
#X obj 446 150 spigot;
#X obj 543 120 r \$0_index_b;
#X obj 479 120 == 1;
#X obj 357 281 expr $f1*(1-$f3)+$f2*$f3;
#X obj 372 255 t b f;
#X obj 432 255 t b f;
#X obj 543 144 t f f;
#X obj 273 144 t f f;
#X obj 357 361 spigot;
#X obj 383 308 sel 0 1;
#X msg 390 330 0;
#X msg 422 330 1;
#X obj 543 253 spigot;
#X obj 273 243 spigot;
#X obj 219 76 r \$0_morph;
#X obj 479 96 r \$0_morph;
#X obj 433 213 r \$0_morph;
#X obj 407 81 inlet;
#N canvas 0 0 450 300 (subpatch) 0;
#X array \$0_a_3 16 float 3;
#A 0 0.0629921 0 0.102362 0.133858 0.242835 0.866142 1 1 0 0 0 0 0
0 0 0;
#X coords 0 0 1 1 200 140 0;
#X restore 127 31 graph;
#N canvas 0 0 450 300 (subpatch) 0;
#X array \$0_b_3 16 float 3;
#A 0 0 0.125984 0.0844882 1 0.503937 0.645669 0 0.173228 0 0 0 0 0
0 0 0;
#X coords 0 0 1 1 200 140 0;
#X restore 646 52 graph;
#X obj 543 284 s \$0_fader_3;
#X obj 543 219 tabread \$0_b_3;
#X obj 446 181 tabwrite \$0_b_3;
#X obj 274 199 tabread \$0_a_3;
#X obj 186 167 tabwrite \$0_a_3;
#X obj 273 274 s \$0_fader_3;
#X obj 357 393 s \$0_fader_3;
#X connect 0 0 10 0;
#X connect 1 0 27 0;
#X connect 2 0 1 1;
#X connect 2 0 16 1;
#X connect 3 0 25 0;
#X connect 4 0 9 0;
#X connect 5 0 3 1;
#X connect 5 0 15 1;
#X connect 6 0 11 0;
#X connect 7 0 6 0;
#X connect 7 1 6 1;
#X connect 8 0 6 0;
#X connect 8 1 6 2;
#X connect 9 0 24 0;
#X connect 9 1 25 1;
#X connect 10 0 26 0;
#X connect 10 1 27 1;
#X connect 11 0 29 0;
#X connect 12 0 13 0;
#X connect 12 1 13 0;
#X connect 12 2 14 0;
#X connect 13 0 11 1;
#X connect 14 0 11 1;
#X connect 15 0 23 0;
#X connect 16 0 28 0;
#X connect 17 0 2 0;
#X connect 18 0 5 0;
#X connect 19 0 8 0;
#X connect 19 0 12 0;
#X connect 20 0 1 0;
#X connect 20 0 3 0;
#X connect 24 0 7 0;
#X connect 24 0 15 0;
#X connect 26 0 6 0;
#X connect 26 0 16 0;
#X restore 188 395 pd fader_3_preset;
#N canvas 0 0 752 532 fader_2_preset 0;
#X obj 273 120 r \$0_index_a;
#X obj 186 130 spigot;
#X obj 219 100 == 0;
#X obj 446 150 spigot;
#X obj 543 120 r \$0_index_b;
#X obj 479 120 == 1;
#X obj 357 281 expr $f1*(1-$f3)+$f2*$f3;
#X obj 372 255 t b f;
#X obj 432 255 t b f;
#X obj 543 144 t f f;
#X obj 273 144 t f f;
#X obj 357 361 spigot;
#X obj 383 308 sel 0 1;
#X msg 390 330 0;
#X msg 422 330 1;
#X obj 543 253 spigot;
#X obj 273 243 spigot;
#X obj 219 76 r \$0_morph;
#X obj 479 96 r \$0_morph;
#X obj 433 213 r \$0_morph;
#X obj 407 81 inlet;
#N canvas 0 0 450 300 (subpatch) 0;
#X array \$0_a_2 16 float 3;
#A 0 0.708661 0.889764 0.85189 0.0629921 0.817638 0.566929 0.23622
0.692913 0 0 0 0 0 0 0 0;
#X coords 0 0 1 1 200 140 0;
#X restore 127 31 graph;
#N canvas 0 0 450 300 (subpatch) 0;
#X array \$0_b_2 16 float 3;
#A 0 0.858268 0.708661 0.76378 0.267717 0.456693 0.818898 0.76378 0.692913
0 0 0 0 0 0 0 0;
#X coords 0 0 1 1 200 140 0;
#X restore 646 52 graph;
#X obj 543 283 s \$0_fader_2;
#X obj 357 393 s \$0_fader_2;
#X obj 273 274 s \$0_fader_2;
#X obj 186 167 tabwrite \$0_a_2;
#X obj 274 199 tabread \$0_a_2;
#X obj 543 219 tabread \$0_b_2;
#X obj 446 181 tabwrite \$0_b_2;
#X connect 0 0 10 0;
#X connect 1 0 26 0;
#X connect 2 0 1 1;
#X connect 2 0 16 1;
#X connect 3 0 29 0;
#X connect 4 0 9 0;
#X connect 5 0 3 1;
#X connect 5 0 15 1;
#X connect 6 0 11 0;
#X connect 7 0 6 0;
#X connect 7 1 6 1;
#X connect 8 0 6 0;
#X connect 8 1 6 2;
#X connect 9 0 28 0;
#X connect 9 1 29 1;
#X connect 10 0 27 0;
#X connect 10 1 26 1;
#X connect 11 0 24 0;
#X connect 12 0 13 0;
#X connect 12 1 13 0;
#X connect 12 2 14 0;
#X connect 13 0 11 1;
#X connect 14 0 11 1;
#X connect 15 0 23 0;
#X connect 16 0 25 0;
#X connect 17 0 2 0;
#X connect 18 0 5 0;
#X connect 19 0 8 0;
#X connect 19 0 12 0;
#X connect 20 0 1 0;
#X connect 20 0 3 0;
#X connect 27 0 6 0;
#X connect 27 0 16 0;
#X connect 28 0 7 0;
#X connect 28 0 15 0;
#X restore 168 375 pd fader_2_preset;
#N canvas 0 0 752 532 fader_1_preset 0;
#X obj 186 167 tabwrite \$0_a_1;
#X obj 273 120 r \$0_index_a;
#X obj 186 130 spigot;
#X obj 219 100 == 0;
#X obj 273 199 tabread \$0_a_1;
#X obj 446 150 spigot;
#X obj 543 219 tabread \$0_b_1;
#X obj 446 181 tabwrite \$0_b_1;
#X obj 543 120 r \$0_index_b;
#X obj 479 120 == 1;
#X obj 357 281 expr $f1*(1-$f3)+$f2*$f3;
#X obj 357 393 s \$0_fader_1;
#X obj 372 255 t b f;
#X obj 432 255 t b f;
#X obj 543 144 t f f;
#X obj 273 144 t f f;
#X obj 357 361 spigot;
#X obj 383 308 sel 0 1;
#X msg 390 330 0;
#X msg 422 330 1;
#X obj 543 283 s \$0_fader_1;
#X obj 543 253 spigot;
#X obj 273 273 s \$0_fader_1;
#X obj 273 243 spigot;
#X obj 219 76 r \$0_morph;
#X obj 479 96 r \$0_morph;
#X obj 433 213 r \$0_morph;
#X obj 407 81 inlet;
#N canvas 0 0 450 300 (subpatch) 0;
#X array \$0_a_1 16 float 3;
#A 0 0.0708661 0.0944882 0.015748 0.0314961 0.573543 0.377953 0.472441
0.992126 0 0 0 0 0 0 0 0;
#X coords 0 0 1 1 200 140 0;
#X restore 127 31 graph;
#N canvas 0 0 450 300 (subpatch) 0;
#X array \$0_b_1 16 float 3;
#A 0 0.165354 0.0787402 0.015748 1 0.385827 0.188976 0.0393701 0.11811
0 0 0 0 0 0 0 0;
#X coords 0 0 1 1 200 140 0;
#X restore 646 52 graph;
#X connect 1 0 15 0;
#X connect 2 0 0 0;
#X connect 3 0 2 1;
#X connect 3 0 23 1;
#X connect 4 0 10 0;
#X connect 4 0 23 0;
#X connect 5 0 7 0;
#X connect 6 0 12 0;
#X connect 6 0 21 0;
#X connect 8 0 14 0;
#X connect 9 0 5 1;
#X connect 9 0 21 1;
#X connect 10 0 16 0;
#X connect 12 0 10 0;
#X connect 12 1 10 1;
#X connect 13 0 10 0;
#X connect 13 1 10 2;
#X connect 14 0 6 0;
#X connect 14 1 7 1;
#X connect 15 0 4 0;
#X connect 15 1 0 1;
#X connect 16 0 11 0;
#X connect 17 0 18 0;
#X connect 17 1 18 0;
#X connect 17 2 19 0;
#X connect 18 0 16 1;
#X connect 19 0 16 1;
#X connect 21 0 20 0;
#X connect 23 0 22 0;
#X connect 24 0 3 0;
#X connect 25 0 9 0;
#X connect 26 0 13 0;
#X connect 26 0 17 0;
#X connect 27 0 2 0;
#X connect 27 0 5 0;
#X restore 148 354 pd fader_1_preset;
#N canvas 0 0 752 532 fader_4_preset 0;
#X obj 273 120 r \$0_index_a;
#X obj 186 130 spigot;
#X obj 219 100 == 0;
#X obj 446 150 spigot;
#X obj 543 120 r \$0_index_b;
#X obj 479 120 == 1;
#X obj 357 281 expr $f1*(1-$f3)+$f2*$f3;
#X obj 372 255 t b f;
#X obj 432 255 t b f;
#X obj 543 144 t f f;
#X obj 273 144 t f f;
#X obj 357 361 spigot;
#X obj 383 308 sel 0 1;
#X msg 390 330 0;
#X msg 422 330 1;
#X obj 543 253 spigot;
#X obj 273 243 spigot;
#X obj 219 76 r \$0_morph;
#X obj 479 96 r \$0_morph;
#X obj 433 213 r \$0_morph;
#X obj 407 81 inlet;
#N canvas 0 0 450 300 (subpatch) 0;
#X array \$0_a_4 16 float 3;
#A 0 0.165354 0.779528 0.425197 1 0.904252 0.984252 0.417323 0.748031
0 0 0 0 0 0 0 0;
#X coords 0 0 1 1 200 140 0;
#X restore 127 31 graph;
#N canvas 0 0 450 300 (subpatch) 0;
#X array \$0_b_4 16 float 3;
#A 0 0.614173 0.692913 0.336457 0.541181 0.275591 0.787402 0.15748
0.834646 0 0 0 0 0 0 0 0;
#X coords 0 0 1 1 200 140 0;
#X restore 646 52 graph;
#X obj 186 167 tabwrite \$0_a_4;
#X obj 446 181 tabwrite \$0_b_4;
#X obj 543 219 tabread \$0_b_4;
#X obj 543 284 s \$0_fader_4;
#X obj 273 275 s \$0_fader_4;
#X obj 357 393 s \$0_fader_4;
#X obj 273 199 tabread \$0_a_4;
#X connect 0 0 10 0;
#X connect 1 0 23 0;
#X connect 2 0 1 1;
#X connect 2 0 16 1;
#X connect 3 0 24 0;
#X connect 4 0 9 0;
#X connect 5 0 3 1;
#X connect 5 0 15 1;
#X connect 6 0 11 0;
#X connect 7 0 6 0;
#X connect 7 1 6 1;
#X connect 8 0 6 0;
#X connect 8 1 6 2;
#X connect 9 0 25 0;
#X connect 9 1 24 1;
#X connect 10 0 29 0;
#X connect 10 1 23 1;
#X connect 11 0 28 0;
#X connect 12 0 13 0;
#X connect 12 1 13 0;
#X connect 12 2 14 0;
#X connect 13 0 11 1;
#X connect 14 0 11 1;
#X connect 15 0 26 0;
#X connect 16 0 27 0;
#X connect 17 0 2 0;
#X connect 18 0 5 0;
#X connect 19 0 8 0;
#X connect 19 0 12 0;
#X connect 20 0 1 0;
#X connect 20 0 3 0;
#X connect 25 0 7 0;
#X connect 25 0 15 0;
#X connect 29 0 6 0;
#X connect 29 0 16 0;
#X restore 208 415 pd fader_4_preset;
#X obj 208 131 vsl 15 128 0 1 0 0 empty \$0_fader_4 empty 0 -9 0 10
-99865 -262144 -162280 0 1;
#X obj 111 55 random 8;
#X obj 326 55 random 8;
#X obj 111 33 select 1;
#X obj 326 33 select 0;
#X obj 111 79 spigot;
#X obj 326 79 spigot;
#X obj 111 276 tgl 15 1 empty empty rnd 17 7 1 10 -99865 -262144 -162280
1 1;
#X obj 228 131 vsl 15 128 0 1 0 0 empty \$0_fader_5 empty 0 -9 0 10
-99865 -262144 -162280 0 1;
#N canvas 0 0 752 532 fader_5_preset 0;
#X obj 273 120 r \$0_index_a;
#X obj 186 130 spigot;
#X obj 219 100 == 0;
#X obj 446 150 spigot;
#X obj 543 120 r \$0_index_b;
#X obj 479 120 == 1;
#X obj 357 281 expr $f1*(1-$f3)+$f2*$f3;
#X obj 372 255 t b f;
#X obj 432 255 t b f;
#X obj 543 144 t f f;
#X obj 273 144 t f f;
#X obj 357 361 spigot;
#X obj 383 308 sel 0 1;
#X msg 390 330 0;
#X msg 422 330 1;
#X obj 543 253 spigot;
#X obj 273 243 spigot;
#X obj 219 76 r \$0_morph;
#X obj 479 96 r \$0_morph;
#X obj 433 213 r \$0_morph;
#X obj 407 81 inlet;
#N canvas 0 0 450 300 (subpatch) 0;
#X array \$0_a_5 16 float 3;
#A 0 0.897638 0 0 0.393701 0.0853543 0.779528 0.173228 0.440945 0 0
0 0 0 0 0 0;
#X coords 0 0 1 1 200 140 0;
#X restore 127 31 graph;
#N canvas 0 0 450 300 (subpatch) 0;
#X array \$0_b_5 16 float 3;
#A 0 0 0 0.375827 0 0.692913 0.795276 0 0 0 0 0 0 0 0 0 0;
#X coords 0 0 1 1 200 140 0;
#X restore 646 52 graph;
#X obj 273 275 s \$0_fader_5;
#X obj 273 199 tabread \$0_a_5;
#X obj 186 167 tabwrite \$0_a_5;
#X obj 446 181 tabwrite \$0_b_5;
#X obj 543 219 tabread \$0_b_5;
#X obj 543 284 s \$0_fader_5;
#X obj 357 393 s \$0_fader_5;
#X connect 0 0 10 0;
#X connect 1 0 25 0;
#X connect 2 0 1 1;
#X connect 2 0 16 1;
#X connect 3 0 26 0;
#X connect 4 0 9 0;
#X connect 5 0 3 1;
#X connect 5 0 15 1;
#X connect 6 0 11 0;
#X connect 7 0 6 0;
#X connect 7 1 6 1;
#X connect 8 0 6 0;
#X connect 8 1 6 2;
#X connect 9 0 27 0;
#X connect 9 1 26 1;
#X connect 10 0 24 0;
#X connect 10 1 25 1;
#X connect 11 0 29 0;
#X connect 12 0 13 0;
#X connect 12 1 13 0;
#X connect 12 2 14 0;
#X connect 13 0 11 1;
#X connect 14 0 11 1;
#X connect 15 0 28 0;
#X connect 16 0 23 0;
#X connect 17 0 2 0;
#X connect 18 0 5 0;
#X connect 19 0 8 0;
#X connect 19 0 12 0;
#X connect 20 0 1 0;
#X connect 20 0 3 0;
#X connect 24 0 6 0;
#X connect 24 0 16 0;
#X connect 27 0 7 0;
#X connect 27 0 15 0;
#X restore 228 435 pd fader_5_preset;
#X obj 248 132 vsl 15 128 0 1 0 0 empty \$0_fader_6 empty 0 -9 0 10
-99865 -262144 -162280 0 1;
#N canvas 0 0 752 532 fader_6_preset 0;
#X obj 273 120 r \$0_index_a;
#X obj 186 130 spigot;
#X obj 219 100 == 0;
#X obj 446 150 spigot;
#X obj 543 120 r \$0_index_b;
#X obj 479 120 == 1;
#X obj 357 281 expr $f1*(1-$f3)+$f2*$f3;
#X obj 372 255 t b f;
#X obj 432 255 t b f;
#X obj 543 144 t f f;
#X obj 273 144 t f f;
#X obj 357 361 spigot;
#X obj 383 308 sel 0 1;
#X msg 390 330 0;
#X msg 422 330 1;
#X obj 543 253 spigot;
#X obj 273 243 spigot;
#X obj 219 76 r \$0_morph;
#X obj 479 96 r \$0_morph;
#X obj 433 213 r \$0_morph;
#X obj 407 81 inlet;
#N canvas 0 0 450 300 (subpatch) 0;
#X array \$0_a_6 16 float 3;
#A 0 0.590551 0.944882 0.472441 0.905512 0.258583 0.543307 0.590551
0.165354 0 0 0 0 0 0 0 0;
#X coords 0 0 1 1 200 140 0;
#X restore 127 31 graph;
#N canvas 0 0 450 300 (subpatch) 0;
#X array \$0_b_6 16 float 3;
#A 0 0 0 0.75378 0 0.850394 0.440945 0 0.748031 0 0 0 0 0 0 0 0;
#X coords 0 0 1 1 200 140 0;
#X restore 646 52 graph;
#X obj 273 199 tabread \$0_a_6;
#X obj 186 167 tabwrite \$0_a_6;
#X obj 273 275 s \$0_fader_6;
#X obj 446 181 tabwrite \$0_b_6;
#X obj 543 219 tabread \$0_b_6;
#X obj 543 284 s \$0_fader_6;
#X obj 357 393 s \$0_fader_6;
#X connect 0 0 10 0;
#X connect 1 0 24 0;
#X connect 2 0 1 1;
#X connect 2 0 16 1;
#X connect 3 0 26 0;
#X connect 4 0 9 0;
#X connect 5 0 3 1;
#X connect 5 0 15 1;
#X connect 6 0 11 0;
#X connect 7 0 6 0;
#X connect 7 1 6 1;
#X connect 8 0 6 0;
#X connect 8 1 6 2;
#X connect 9 0 27 0;
#X connect 9 1 26 1;
#X connect 10 0 23 0;
#X connect 10 1 24 1;
#X connect 11 0 29 0;
#X connect 12 0 13 0;
#X connect 12 1 13 0;
#X connect 12 2 14 0;
#X connect 13 0 11 1;
#X connect 14 0 11 1;
#X connect 15 0 28 0;
#X connect 16 0 25 0;
#X connect 17 0 2 0;
#X connect 18 0 5 0;
#X connect 19 0 8 0;
#X connect 19 0 12 0;
#X connect 20 0 1 0;
#X connect 20 0 3 0;
#X connect 23 0 6 0;
#X connect 23 0 16 0;
#X connect 27 0 7 0;
#X connect 27 0 15 0;
#X restore 248 455 pd fader_6_preset;
#X obj 268 131 vsl 15 128 0 1 0 0 empty \$0_fader_7 empty 0 -9 0 10
-99865 -262144 -162280 0 1;
#N canvas 0 0 752 532 fader_7_preset 0;
#X obj 273 120 r \$0_index_a;
#X obj 186 130 spigot;
#X obj 219 100 == 0;
#X obj 446 150 spigot;
#X obj 543 120 r \$0_index_b;
#X obj 479 120 == 1;
#X obj 357 281 expr $f1*(1-$f3)+$f2*$f3;
#X obj 372 255 t b f;
#X obj 432 255 t b f;
#X obj 543 144 t f f;
#X obj 273 144 t f f;
#X obj 357 361 spigot;
#X obj 383 308 sel 0 1;
#X msg 390 330 0;
#X msg 422 330 1;
#X obj 543 253 spigot;
#X obj 273 243 spigot;
#X obj 219 76 r \$0_morph;
#X obj 479 96 r \$0_morph;
#X obj 433 213 r \$0_morph;
#X obj 407 81 inlet;
#N canvas 0 0 450 300 (subpatch) 0;
#X array \$0_a_7 16 float 3;
#A 0 0.488189 0.811024 0.527559 0.551181 0.0629921 0.228346 0.80315
0 0 0 0 0 0 0 0 0;
#X coords 0 0 1 1 200 140 0;
#X restore 127 31 graph;
#N canvas 0 0 450 300 (subpatch) 0;
#X array \$0_b_7 16 float 3;
#A 0 0.503937 0.984252 0.722283 0.755906 0.433071 1 0.472441 0.448819
0 0 0 0 0 0 0 0;
#X coords 0 0 1 1 200 140 0;
#X restore 646 52 graph;
#X obj 273 200 tabread \$0_a_7;
#X obj 186 167 tabwrite \$0_a_7;
#X obj 273 275 s \$0_fader_7;
#X obj 446 181 tabwrite \$0_b_7;
#X obj 543 219 tabread \$0_b_7;
#X obj 543 284 s \$0_fader_7;
#X obj 357 393 s \$0_fader_7;
#X connect 0 0 10 0;
#X connect 1 0 24 0;
#X connect 2 0 1 1;
#X connect 2 0 16 1;
#X connect 3 0 26 0;
#X connect 4 0 9 0;
#X connect 5 0 3 1;
#X connect 5 0 15 1;
#X connect 6 0 11 0;
#X connect 7 0 6 0;
#X connect 7 1 6 1;
#X connect 8 0 6 0;
#X connect 8 1 6 2;
#X connect 9 0 27 0;
#X connect 9 1 26 1;
#X connect 10 0 23 0;
#X connect 10 1 24 1;
#X connect 11 0 29 0;
#X connect 12 0 13 0;
#X connect 12 1 13 0;
#X connect 12 2 14 0;
#X connect 13 0 11 1;
#X connect 14 0 11 1;
#X connect 15 0 28 0;
#X connect 16 0 25 0;
#X connect 17 0 2 0;
#X connect 18 0 5 0;
#X connect 19 0 8 0;
#X connect 19 0 12 0;
#X connect 20 0 1 0;
#X connect 20 0 3 0;
#X connect 23 0 6 0;
#X connect 23 0 16 0;
#X connect 27 0 7 0;
#X connect 27 0 15 0;
#X restore 268 475 pd fader_7_preset;
#X obj 288 131 vsl 15 128 0 1 0 0 empty \$0_fader_8 empty 0 -9 0 10
-99865 -262144 -162280 0 1;
#N canvas 0 0 752 532 fader_8_preset 0;
#X obj 273 120 r \$0_index_a;
#X obj 186 130 spigot;
#X obj 219 100 == 0;
#X obj 446 150 spigot;
#X obj 543 120 r \$0_index_b;
#X obj 479 120 == 1;
#X obj 357 281 expr $f1*(1-$f3)+$f2*$f3;
#X obj 372 255 t b f;
#X obj 432 255 t b f;
#X obj 543 144 t f f;
#X obj 273 144 t f f;
#X obj 357 361 spigot;
#X obj 383 308 sel 0 1;
#X msg 390 330 0;
#X msg 422 330 1;
#X obj 543 253 spigot;
#X obj 273 243 spigot;
#X obj 219 76 r \$0_morph;
#X obj 479 96 r \$0_morph;
#X obj 433 213 r \$0_morph;
#X obj 407 81 inlet;
#N canvas 0 0 450 300 (subpatch) 0;
#X array \$0_a_8 16 float 3;
#A 0 0.307087 0.314961 0.149606 0.771654 0.68378 0.76378 0.503937 0
0 0 0 0 0 0 0 0;
#X coords 0 0 1 1 200 140 0;
#X restore 127 31 graph;
#N canvas 0 0 450 300 (subpatch) 0;
#X array \$0_b_8 16 float 3;
#A 0 0.850394 0.251969 0.304961 0.0629921 0.559055 0.0787402 0.826772
0.251969 0 0 0 0 0 0 0 0;
#X coords 0 0 1 1 200 140 0;
#X restore 646 52 graph;
#X obj 186 167 tabwrite \$0_a_8;
#X obj 273 200 tabread \$0_a_8;
#X obj 273 275 s \$0_fader_8;
#X obj 446 181 tabwrite \$0_b_8;
#X obj 543 220 tabread \$0_b_8;
#X obj 543 284 s \$0_fader_8;
#X obj 357 393 s \$0_fader_8;
#X connect 0 0 10 0;
#X connect 1 0 23 0;
#X connect 2 0 1 1;
#X connect 2 0 16 1;
#X connect 3 0 26 0;
#X connect 4 0 9 0;
#X connect 5 0 3 1;
#X connect 5 0 15 1;
#X connect 6 0 11 0;
#X connect 7 0 6 0;
#X connect 7 1 6 1;
#X connect 8 0 6 0;
#X connect 8 1 6 2;
#X connect 9 0 27 0;
#X connect 9 1 26 1;
#X connect 10 0 24 0;
#X connect 10 1 23 1;
#X connect 11 0 29 0;
#X connect 12 0 13 0;
#X connect 12 1 13 0;
#X connect 12 2 14 0;
#X connect 13 0 11 1;
#X connect 14 0 11 1;
#X connect 15 0 28 0;
#X connect 16 0 25 0;
#X connect 17 0 2 0;
#X connect 18 0 5 0;
#X connect 19 0 8 0;
#X connect 19 0 12 0;
#X connect 20 0 1 0;
#X connect 20 0 3 0;
#X connect 24 0 6 0;
#X connect 24 0 16 0;
#X connect 27 0 7 0;
#X connect 27 0 15 0;
#X restore 288 495 pd fader_8_preset;
#N canvas 414 183 450 533 eq 0;
#X obj 108 224 equalizer 100 0 100;
#X obj 162 180 t b f;
#X obj 239 310 biquad~;
#X obj 291 101 inlet~;
#X obj 233 436 outlet~;
#X obj 98 31 inlet f;
#X obj 98 108 * 5000;
#X obj 98 86 log;
#X obj 98 63 expr ($f1 * 1.7183)+1;
#X obj 158 31 inlet f;
#X obj 158 95 expr ($f1 - 0.5)*50;
#X connect 0 0 2 0;
#X connect 1 0 0 0;
#X connect 1 1 0 1;
#X connect 2 0 4 0;
#X connect 3 0 2 0;
#X connect 5 0 8 0;
#X connect 6 0 0 0;
#X connect 7 0 6 0;
#X connect 8 0 7 0;
#X connect 9 0 10 0;
#X connect 10 0 1 0;
#X restore 82 594 pd eq;
#N canvas 0 0 450 300 sat 0;
#X obj 115 33 inlet~;
#X obj 131 130 -~;
#X obj 132 157 /~;
#X obj 132 184 outlet~;
#X obj 144 81 *~ -1;
#X obj 20 105 expr~ exp($v1*2.718);
#X obj 144 59 *~;
#X obj 159 13 inlet;
#X obj 19 140 expr~ (1/$v1)+$v1;
#X obj 145 105 expr~ exp($v1*2.718);
#X obj 246 41 loadbang;
#X obj 246 79 1;
#X obj 160 34 expr ($f1*5)+1;
#X connect 0 0 6 0;
#X connect 1 0 2 0;
#X connect 2 0 3 0;
#X connect 4 0 9 0;
#X connect 5 0 1 0;
#X connect 5 0 8 0;
#X connect 6 0 5 0;
#X connect 6 0 4 0;
#X connect 7 0 12 0;
#X connect 8 0 2 1;
#X connect 9 0 1 1;
#X connect 10 0 11 0;
#X connect 11 0 2 1;
#X connect 11 0 6 1;
#X connect 12 0 6 1;
#X restore 140 610 pd sat;
#N canvas 0 0 450 300 bit 0;
#X obj 146 126 inlet~;
#X obj 174 209 expr~ int($v1);
#X obj 175 188 /~;
#X obj 175 229 *~;
#X obj 175 344 outlet~;
#X obj 190 168 sig~;
#X obj 190 126 inlet bit;
#X obj 286 126 inlet sr;
#X obj 176 257 samphold~;
#X obj 286 147 max 0.01;
#X obj 286 209 phasor~;
#X obj 286 188 sig~;
#X obj 286 168 expr (1-$f1)*44100;
#X obj 190 147 max 1e-005;
#X connect 0 0 2 0;
#X connect 1 0 3 0;
#X connect 2 0 1 0;
#X connect 3 0 8 0;
#X connect 5 0 3 1;
#X connect 5 0 2 1;
#X connect 6 0 13 0;
#X connect 7 0 9 0;
#X connect 8 0 4 0;
#X connect 9 0 12 0;
#X connect 10 0 8 1;
#X connect 11 0 10 0;
#X connect 12 0 11 0;
#X connect 13 0 5 0;
#X restore 291 646 pd bit;
#N canvas 190 99 780 527 phaser 0;
#X obj 106 230 outlet~;
#X obj 25 -85 inlet~;
#X obj 106 170 +~;
#X obj 106 196 /~ 2;
#N canvas 0 0 450 300 allp 0;
#X obj 152 78 inlet~;
#X obj 161 194 outlet~;
#X obj 202 81 r \$0-f;
#X obj 248 80 r \$0-q;
#X obj 169 135 ap2~;
#X connect 0 0 4 0;
#X connect 2 0 4 1;
#X connect 3 0 4 2;
#X connect 4 0 1 0;
#X restore 192 -67 pd allp;
#X obj 313 106 s \$0-f;
#N canvas 0 0 450 300 allp 0;
#X obj 152 78 inlet~;
#X obj 161 194 outlet~;
#X obj 169 135 ap2~;
#X obj 202 81 r \$0-f;
#X obj 248 80 r \$0-q;
#X connect 0 0 2 0;
#X connect 2 0 1 0;
#X connect 3 0 2 1;
#X connect 4 0 2 2;
#X restore 192 -47 pd allp;
#N canvas 0 0 450 300 allp 0;
#X obj 152 78 inlet~;
#X obj 161 194 outlet~;
#X obj 169 135 ap2~;
#X obj 202 81 r \$0-f;
#X obj 248 80 r \$0-q;
#X connect 0 0 2 0;
#X connect 2 0 1 0;
#X connect 3 0 2 1;
#X connect 4 0 2 2;
#X restore 192 -27 pd allp;
#N canvas 0 0 450 300 allp 0;
#X obj 152 78 inlet~;
#X obj 161 194 outlet~;
#X obj 169 135 ap2~;
#X obj 202 81 r \$0-f;
#X obj 248 80 r \$0-q;
#X connect 0 0 2 0;
#X connect 2 0 1 0;
#X connect 3 0 2 1;
#X connect 4 0 2 2;
#X restore 192 -7 pd allp;
#N canvas 0 0 450 300 allp 0;
#X obj 152 78 inlet~;
#X obj 161 194 outlet~;
#X obj 169 135 ap2~;
#X obj 202 81 r \$0-f;
#X obj 248 80 r \$0-q;
#X connect 0 0 2 0;
#X connect 2 0 1 0;
#X connect 3 0 2 1;
#X connect 4 0 2 2;
#X restore 192 13 pd allp;
#N canvas 0 0 450 300 allp 0;
#X obj 152 78 inlet~;
#X obj 161 194 outlet~;
#X obj 169 135 ap2~;
#X obj 202 81 r \$0-f;
#X obj 248 80 r \$0-q;
#X connect 0 0 2 0;
#X connect 2 0 1 0;
#X connect 3 0 2 1;
#X connect 4 0 2 2;
#X restore 192 33 pd allp;
#N canvas 0 0 450 300 allp 0;
#X obj 152 78 inlet~;
#X obj 161 194 outlet~;
#X obj 169 135 ap2~;
#X obj 202 81 r \$0-f;
#X obj 248 80 r \$0-q;
#X connect 0 0 2 0;
#X connect 2 0 1 0;
#X connect 3 0 2 1;
#X connect 4 0 2 2;
#X restore 192 53 pd allp;
#N canvas 0 0 450 300 allp 0;
#X obj 152 78 inlet~;
#X obj 161 194 outlet~;
#X obj 169 135 ap2~;
#X obj 202 81 r \$0-f;
#X obj 248 80 r \$0-q;
#X connect 0 0 2 0;
#X connect 2 0 1 0;
#X connect 3 0 2 1;
#X connect 4 0 2 2;
#X restore 192 73 pd allp;
#N canvas 0 0 450 300 allp 0;
#X obj 152 78 inlet~;
#X obj 161 194 outlet~;
#X obj 169 135 ap2~;
#X obj 202 81 r \$0-f;
#X obj 248 80 r \$0-q;
#X connect 0 0 2 0;
#X connect 2 0 1 0;
#X connect 3 0 2 1;
#X connect 4 0 2 2;
#X restore 192 93 pd allp;
#N canvas 0 0 450 300 allp 0;
#X obj 152 78 inlet~;
#X obj 161 194 outlet~;
#X obj 169 135 ap2~;
#X obj 202 81 r \$0-f;
#X obj 248 80 r \$0-q;
#X connect 0 0 2 0;
#X connect 2 0 1 0;
#X connect 3 0 2 1;
#X connect 4 0 2 2;
#X restore 192 113 pd allp;
#N canvas 0 0 450 300 allp 0;
#X obj 152 78 inlet~;
#X obj 161 194 outlet~;
#X obj 169 135 ap2~;
#X obj 202 81 r \$0-f;
#X obj 248 80 r \$0-q;
#X connect 0 0 2 0;
#X connect 2 0 1 0;
#X connect 3 0 2 1;
#X connect 4 0 2 2;
#X restore 192 133 pd allp;
#N canvas 0 0 450 300 allp 0;
#X obj 152 78 inlet~;
#X obj 161 194 outlet~;
#X obj 169 135 ap2~;
#X obj 202 81 r \$0-f;
#X obj 248 80 r \$0-q;
#X connect 0 0 2 0;
#X connect 2 0 1 0;
#X connect 3 0 2 1;
#X connect 4 0 2 2;
#X restore 192 153 pd allp;
#X obj 313 85 mtof;
#X obj 331 -88 inlet;
#X obj 331 8 * 100;
#X obj 330 43 + 27;
#X obj 389 31 s \$0-q;
#X obj 388 -21 loadbang;
#X obj 396 2 3;
#X connect 1 0 4 0;
#X connect 1 0 2 0;
#X connect 2 0 3 0;
#X connect 3 0 0 0;
#X connect 4 0 6 0;
#X connect 6 0 7 0;
#X connect 7 0 8 0;
#X connect 8 0 9 0;
#X connect 8 0 2 1;
#X connect 9 0 10 0;
#X connect 10 0 11 0;
#X connect 11 0 12 0;
#X connect 12 0 13 0;
#X connect 12 0 2 1;
#X connect 13 0 14 0;
#X connect 14 0 15 0;
#X connect 15 0 16 0;
#X connect 16 0 2 1;
#X connect 17 0 5 0;
#X connect 18 0 19 0;
#X connect 19 0 20 0;
#X connect 20 0 17 0;
#X connect 22 0 23 0;
#X connect 23 0 21 0;
#X restore 183 628 pd phaser;
#X connect 1 0 3 0;
#X connect 2 0 38 2;
#X connect 5 0 11 0;
#X connect 6 0 20 0;
#X connect 6 0 38 0;
#X connect 7 0 8 0;
#X connect 9 0 10 0;
#X connect 12 0 13 0;
#X connect 13 0 7 0;
#X connect 13 0 9 0;
#X connect 14 0 15 0;
#X connect 14 0 25 0;
#X connect 14 0 26 0;
#X connect 15 0 7 0;
#X connect 15 0 9 0;
#X connect 16 0 19 0;
#X connect 16 0 38 1;
#X connect 17 0 18 0;
#X connect 17 0 39 1;
#X connect 22 0 21 0;
#X connect 22 0 41 1;
#X connect 23 0 27 0;
#X connect 24 0 28 0;
#X connect 25 0 23 0;
#X connect 26 0 24 0;
#X connect 27 0 7 0;
#X connect 28 0 9 0;
#X connect 29 0 27 1;
#X connect 29 0 28 1;
#X connect 30 0 31 0;
#X connect 30 0 40 1;
#X connect 32 0 33 0;
#X connect 32 0 40 2;
#X connect 34 0 35 0;
#X connect 34 0 1 1;
#X connect 36 0 37 0;
#X connect 36 0 1 2;
#X connect 38 0 39 0;
#X connect 39 0 41 0;
#X connect 40 0 1 0;
#X connect 41 0 40 0;
#X coords 0 -1 1 1 250 200 2 100 100;
