#N canvas 0 79 1366 689 10;
#X obj 601 580 dac~;
#X obj 640 553 *~;
#X obj 687 471 vsl 15 128 0 1 0 0 empty empty empty 0 -9 0 10 -262144
-1 -1 10300 1;
#X obj 640 531 line;
#X msg 641 507 \$1 20;
#X obj 601 553 *~;
#X obj 564 467 vsl 15 128 0 1 0 0 empty empty empty 0 -9 0 10 -262144
-1 -1 10600 1;
#X obj 601 531 line;
#X msg 602 507 \$1 20;
#X obj 372 312 osc~;
#X obj 408 312 vline~;
#X obj 389 340 *~;
#X floatatom 368 275 5 0 0 0 - - -;
#X obj 341 384 *~;
#X obj 314 295 vsl 15 128 0 1 0 0 empty empty empty 0 -9 0 10 -262144
-1 -1 8382 1;
#X obj 341 362 line;
#X msg 346 333 \$1 20;
#X obj 602 456 +~;
#X obj 624 314 osc~;
#X obj 660 314 vline~;
#X obj 641 342 *~;
#X floatatom 620 277 5 0 0 0 - - -;
#X obj 593 386 *~;
#X obj 566 297 vsl 15 128 0 1 0 0 empty empty empty 0 -9 0 10 -262144
-1 -1 9271 1;
#X obj 593 364 line;
#X msg 598 335 \$1 20;
#X obj 872 319 osc~;
#X obj 908 319 vline~;
#X obj 889 347 *~;
#X floatatom 868 282 5 0 0 0 - - -;
#X obj 841 391 *~;
#X obj 814 302 vsl 15 128 0 1 0 0 empty empty empty 0 -9 0 10 -262144
-1 -1 10986 1;
#X obj 841 369 line;
#X msg 846 340 \$1 20;
#X obj 283 13 tgl 15 0 empty empty empty 17 7 0 10 -262144 -1 -1 0
1;
#X obj 309 12 metro 1000;
#X msg 579 12 1 10 \, 0 10 10;
#X obj 561 251 unpack 0 0 0 0 0 0 0 0 0 0 0;
#X floatatom 316 435 5 0 0 0 - - -;
#X floatatom 567 436 5 0 0 0 - - -;
#X floatatom 813 440 5 0 0 0 - - -;
#X obj 282 76 tgl 15 0 empty empty empty 17 7 0 10 -262144 -1 -1 0
1;
#X obj 308 75 metro 1000;
#X msg 578 75 1 10 \, 0 10 10;
#X msg 483 13 1 10 \, 0 50 10;
#X msg 382 13 1 20 \, 0 40 20;
#X msg 96 13 50 1 100 0.283 200 0;
#X msg 380 76 1 50 \, 0 100 50;
#X obj 274 156 tgl 15 0 empty empty empty 17 7 0 10 -262144 -1 -1 1
1;
#X obj 300 155 metro 1000;
#X msg 95 76 50 0.834 100 0.8 200 0.102;
#X msg 482 76 1 30 \, 0 50 30;
#X msg 474 156 1 50 \, 0 50 50;
#X msg 570 155 1 20 \, 0 50 20;
#X msg 87 157 50 0.66 75 0.73 100 0.865;
#X msg 371 156 1 75 \, 0 50 75;
#X obj 312 37 del 700;
#X obj 312 125 del 700;
#X obj 304 205 del 700;
#X obj 834 125 bng 15 250 50 0 empty empty empty 17 7 0 10 -262144
-1 -1;
#X obj 898 125 bng 15 250 50 0 empty empty empty 17 7 0 10 -262144
-1 -1;
#X obj 964 124 bng 15 250 50 0 empty empty empty 17 7 0 10 -262144
-1 -1;
#X obj 1031 124 bng 15 250 50 0 empty empty empty 17 7 0 10 -262144
-1 -1;
#X obj 1084 124 bng 15 250 50 0 empty empty empty 17 7 0 10 -262144
-1 -1;
#X obj 1148 124 bng 15 250 50 0 empty empty empty 17 7 0 10 -262144
-1 -1;
#X obj 1214 123 bng 15 250 50 0 empty empty empty 17 7 0 10 -262144
-1 -1;
#X obj 1281 123 bng 15 250 50 0 empty empty empty 17 7 0 10 -262144
-1 -1;
#X connect 1 0 0 1;
#X connect 2 0 4 0;
#X connect 3 0 1 1;
#X connect 4 0 3 0;
#X connect 5 0 0 0;
#X connect 6 0 8 0;
#X connect 7 0 5 1;
#X connect 8 0 7 0;
#X connect 9 0 11 0;
#X connect 10 0 11 1;
#X connect 11 0 13 0;
#X connect 12 0 9 0;
#X connect 13 0 17 0;
#X connect 14 0 16 0;
#X connect 14 0 38 0;
#X connect 15 0 13 1;
#X connect 16 0 15 0;
#X connect 17 0 5 0;
#X connect 17 0 1 0;
#X connect 18 0 20 0;
#X connect 19 0 20 1;
#X connect 20 0 22 0;
#X connect 21 0 18 0;
#X connect 22 0 17 1;
#X connect 23 0 25 0;
#X connect 23 0 39 0;
#X connect 24 0 22 1;
#X connect 25 0 24 0;
#X connect 26 0 28 0;
#X connect 27 0 28 1;
#X connect 28 0 30 0;
#X connect 29 0 26 0;
#X connect 30 0 17 1;
#X connect 31 0 33 0;
#X connect 31 0 40 0;
#X connect 32 0 30 1;
#X connect 33 0 32 0;
#X connect 34 0 35 0;
#X connect 35 0 44 0;
#X connect 35 0 45 0;
#X connect 35 0 36 0;
#X connect 36 0 27 0;
#X connect 37 0 12 0;
#X connect 37 1 14 0;
#X connect 37 2 21 0;
#X connect 37 3 23 0;
#X connect 37 4 29 0;
#X connect 37 5 31 0;
#X connect 41 0 42 0;
#X connect 42 0 51 0;
#X connect 42 0 43 0;
#X connect 42 0 47 0;
#X connect 43 0 27 0;
#X connect 44 0 19 0;
#X connect 45 0 10 0;
#X connect 46 0 37 0;
#X connect 47 0 10 0;
#X connect 48 0 49 0;
#X connect 49 0 52 0;
#X connect 49 0 53 0;
#X connect 49 0 55 0;
#X connect 50 0 37 0;
#X connect 51 0 19 0;
#X connect 52 0 19 0;
#X connect 53 0 27 0;
#X connect 54 0 37 0;
#X connect 55 0 10 0;
#X connect 56 0 45 0;
#X connect 56 0 44 0;
#X connect 56 0 36 0;
#X connect 57 0 47 0;
#X connect 57 0 51 0;
#X connect 57 0 43 0;
#X connect 58 0 55 0;
#X connect 58 0 52 0;
#X connect 58 0 53 0;
