#N canvas 0 25 1366 693 10;
#N canvas 1 79 1111 720 akick1 0;
#X obj 378 305 line~;
#X msg 371 254 0 \$1;
#X floatatom 372 217 5 0 0 0 - - -, f 5;
#X obj 168 473 *~;
#X obj 355 336 *~;
#X obj 144 336 *~;
#X obj 159 437 osc~;
#X obj 135 370 +~;
#X floatatom 37 245 5 0 0 0 - - -, f 5;
#X obj 319 373 lop~ 200;
#X obj 351 177 t f b;
#X msg 390 279 1;
#X obj 233 407 *~;
#X msg 173 372 1;
#X obj 12 585 outlet~;
#X obj 57 56 inlet;
#X obj 106 126 hsl 128 8 0 127 0 1 dmp2 dmp2r amt 134 5 0 8 -262144
-1 -1 6600 1;
#X obj 167 294 mtof;
#X obj 106 137 hsl 128 8 0 127 0 1 dmp3 dmp3r p 134 4 0 8 -262144 -1
-1 800 1;
#X obj 37 218 mtof;
#X obj 106 114 hsl 128 8 1.27 800 1 1 dmp1 dmp1r dec 134 5 0 8 -262144
-1 -1 0 1;
#X obj 134 406 +~;
#X obj 310 183 +;
#X msg 331 96 0;
#X text 416 56 <-trigger/level in;
#X text 404 335 quadratic pitch/amp env;
#X obj 186 545 *~;
#X obj 106 148 hsl 128 8 1 129 1 1 dmp4 dmp4r clp 134 5 0 8 -262144
-1 -1 12700 1;
#X obj 186 575 clip~ -1 1;
#X obj 406 142 bng 15 250 50 0 empty empty empty 17 7 0 10 -262144
-1 -1;
#X msg 463 152 1;
#X obj 134 169 outlet;
#X obj 176 170 outlet;
#X obj 223 170 outlet;
#X obj 265 171 outlet;
#X obj 498 91 inlet;
#X obj 538 91 inlet;
#X obj 577 91 inlet;
#X obj 617 91 inlet;
#X connect 0 0 4 1;
#X connect 0 0 4 0;
#X connect 1 0 0 0;
#X connect 2 0 11 0;
#X connect 2 0 1 0;
#X connect 3 0 26 0;
#X connect 4 0 9 0;
#X connect 5 0 7 1;
#X connect 6 0 3 0;
#X connect 7 0 21 0;
#X connect 8 0 7 0;
#X connect 9 0 5 0;
#X connect 9 0 12 1;
#X connect 10 0 12 0;
#X connect 10 1 2 0;
#X connect 10 1 13 0;
#X connect 11 0 0 0;
#X connect 12 0 3 1;
#X connect 13 0 6 1;
#X connect 15 0 10 0;
#X connect 15 0 23 0;
#X connect 16 0 17 0;
#X connect 16 0 32 0;
#X connect 17 0 5 1;
#X connect 18 0 19 0;
#X connect 18 0 33 0;
#X connect 19 0 8 0;
#X connect 20 0 22 1;
#X connect 20 0 31 0;
#X connect 21 0 6 0;
#X connect 22 0 2 0;
#X connect 23 0 22 0;
#X connect 26 0 28 0;
#X connect 27 0 26 1;
#X connect 27 0 34 0;
#X connect 28 0 14 0;
#X connect 29 0 10 0;
#X connect 30 0 10 0;
#X connect 35 0 20 0;
#X connect 36 0 16 0;
#X connect 37 0 18 0;
#X connect 38 0 27 0;
#X coords 0 -1 1 1 160 60 1 100 100;
#X restore 639 378 pd akick1;
#X obj 574 292 tgl 15 0 empty empty empty 17 7 0 10 -262144 -1 -1 1
1;
#X msg 540 345 1;
#X obj 577 308 metro 1000;
#X obj 690 324 hsl 128 15 0 127 0 0 empty empty empty -2 -8 0 10 -262144
-1 -1 5100 0;
#X obj 724 282 random 127;
#X floatatom 618 280 5 0 0 0 - - -, f 5;
#X obj 637 455 vols~;
#X floatatom 675 455 5 0 0 0 - - -, f 5;
#X obj 710 455 inlet;
#X floatatom 747 439 5 0 0 0 - - -, f 5;
#X floatatom 783 439 5 0 0 0 - - -, f 5;
#X floatatom 821 439 5 0 0 0 - - -, f 5;
#X floatatom 856 439 5 0 0 0 - - -, f 5;
#X obj 570 219 hradio 15 1 0 8 empty empty empty 0 -8 0 10 -262144
-1 -1 1;
#X text 564 197 presets;
#N canvas 79 320 545 311 mypresets 0;
#X obj 2 2 inlet;
#X obj 11 272 outlet;
#X obj 49 272 outlet;
#X obj 87 272 outlet;
#X obj 2 21 sel 0 1 2 3 4 5;
#X obj 19 226 unpack 0 0 0 0 0 0 0 0 0;
#X obj 130 274 outlet;
#X obj 174 273 outlet;
#X msg 83 43 1.27 0 0 129 2;
#X msg 91 72 1.27 66 8 129 5;
#X msg 89 109 2.86 45 19 124.1 7;
#X msg 87 139 2.86 64 19 124.1 10;
#X msg 76 168 2.86 0 115 1 10;
#X msg 71 196 9.67 54 125 1.039 13;
#X connect 0 0 4 0;
#X connect 4 0 8 0;
#X connect 4 1 9 0;
#X connect 4 2 10 0;
#X connect 4 3 11 0;
#X connect 4 4 12 0;
#X connect 4 5 13 0;
#X connect 5 0 1 0;
#X connect 5 1 2 0;
#X connect 5 2 3 0;
#X connect 5 3 6 0;
#X connect 5 4 7 0;
#X connect 8 0 5 0;
#X connect 9 0 5 0;
#X connect 10 0 5 0;
#X connect 11 0 5 0;
#X connect 12 0 5 0;
#X connect 13 0 5 0;
#X restore 570 244 pd mypresets _________________________________________
;
#X obj 482 221 loadbang;
#X obj 605 172 r level8;
#X obj 788 176 r sensor_norm8;
#X obj 871 291 autoscale 0 127 0 1;
#X obj 507 401 volumeOn;
#X msg 535 219 8;
#X obj 630 488 s~ out6;
#X connect 0 0 7 0;
#X connect 0 1 10 0;
#X connect 0 2 11 0;
#X connect 0 3 12 0;
#X connect 0 4 13 0;
#X connect 1 0 3 0;
#X connect 3 0 2 0;
#X connect 3 0 5 0;
#X connect 4 0 0 0;
#X connect 5 0 4 0;
#X connect 6 0 3 1;
#X connect 7 0 23 0;
#X connect 7 1 23 0;
#X connect 8 0 7 2;
#X connect 9 0 8 0;
#X connect 14 0 16 0;
#X connect 14 0 21 0;
#X connect 16 0 0 1;
#X connect 16 1 0 2;
#X connect 16 2 0 3;
#X connect 16 3 0 4;
#X connect 16 4 6 0;
#X connect 17 0 22 0;
#X connect 18 0 14 0;
#X connect 19 0 20 0;
#X connect 20 0 0 0;
#X connect 21 0 8 0;
#X connect 22 0 14 0;
