#N canvas 472 219 744 548 10;
#X declare -lib mrpeach;
#X obj 354 113 unpackOSC;
#X obj 108 369 udpsend;
#X obj 108 307 packOSC;
#X obj 429 369 s;
#X obj 429 200 list split 1;
#X obj 429 242 list;
#X obj 429 220 t b a;
#X obj 429 261 list trim;
#X obj 108 347 spigot;
#X msg 4 345 disconnect;
#X obj 73 156 pack s f;
#X obj 73 107 symbol \$1;
#X obj 100 127 f \$2;
#X msg 73 176 connect \$1 \$2;
#X text 294 36 \$3 : port in;
#X text 294 24 \$1 \, \$2 : IP \, port out;
#X text 294 48 \$4 : domain;
#X obj 29 62 route 0 1;
#X msg -26 135 disconnect;
#X obj 108 265 r \$4;
#X obj 108 286 pp \$4;
#X obj 456 328 pack s s;
#X msg 456 348 symbol \$2/\$1;
#X obj 456 283 t a b;
#X obj 501 305 symbol \$4;
#X obj 354 93 udpreceive \$3;
#X text 443 103 receive OSC messages;
#X text 440 159 filter domain;
#X text 530 237 osc to pure data format;
#X text 531 254 /domain parameter value1 value..;
#X text 530 273 -> /domain/parameter value1...;
#X obj 26 -44 inlet;
#X obj 26 -23 s \$0_r-toggle;
#X obj 353 -28 import mrpeach;
#X obj 263 130 l2s;
#X obj 185 303 l2s;
#X obj 263 170 outlet OSCin;
#X obj 185 343 outlet OSCout;
#X obj 29 42 r \$0_s-toggle;
#X obj 323 1 cnv 7 15 7 empty \$0-OSCin_gui IN 3 4 0 8 -262144 -262144
0;
#X obj 323 11 cnv 7 15 7 empty \$0-OSCout_gui OUT 1 4 0 8 -262144 -262144
0;
#N canvas 299 355 450 300 \$0-color 0;
#X obj 147 69 bang;
#X obj 70 29 inlet;
#X obj 146 92 debounce 20;
#X obj 122 117 delay 20;
#X msg 117 158 color 0 0 0;
#X msg 156 180 color 15 3 12;
#X obj 246 136 loadbang;
#X obj 66 84 outlet;
#X obj 133 252 s \$0-OSCin_gui;
#X connect 0 0 2 0;
#X connect 1 0 0 0;
#X connect 1 0 7 0;
#X connect 2 0 3 0;
#X connect 2 0 5 0;
#X connect 3 0 4 0;
#X connect 4 0 8 0;
#X connect 5 0 8 0;
#X connect 6 0 4 0;
#X restore 354 135 pd \$0-color;
#N canvas 51 620 743 317 \$0-color 0;
#X obj 343 26 inlet;
#X obj 233 59 loadbang;
#X obj 342 87 route 0;
#X obj 115 61 bang;
#X obj 47 28 inlet;
#X obj 114 84 debounce 20;
#X obj 90 109 delay 20;
#X msg 85 150 color 0 0 0;
#X msg 124 172 color 14 3 12;
#X obj 48 73 outlet;
#X text 111 38 Activity;
#X text 380 59 connection;
#X obj 369 236 s \$0_r-toggle;
#X obj 343 49 change;
#X msg 342 124 color 13 0 0;
#X msg 380 156 color 16 0 0;
#X obj 101 244 s \$0-OSCout_gui;
#X connect 0 0 13 0;
#X connect 1 0 14 0;
#X connect 1 0 7 0;
#X connect 2 0 14 0;
#X connect 2 1 15 0;
#X connect 3 0 5 0;
#X connect 4 0 3 0;
#X connect 4 0 9 0;
#X connect 5 0 6 0;
#X connect 5 0 8 0;
#X connect 6 0 7 0;
#X connect 7 0 16 0;
#X connect 8 0 16 0;
#X connect 13 0 2 0;
#X connect 14 0 12 0;
#X connect 15 0 12 0;
#X restore 108 327 pd \$0-color;
#X obj 351 0 tgl 20 0 \$0_s-toggle \$0_r-toggle empty 17 7 0 10 -24198
-262144 -262144 0 1;
#X obj 345 200 s \$0_r-toggle;
#X obj 354 161 routeOSC \$4;
#X obj 354 180 route connect;
#X obj 54 86 t b b b;
#X msg 54 196 connect 1;
#X text 293 59 \$5 : back-connect (bi-directionnal UDP);
#X text 293 68 \$6 : autoconnect;
#X obj 54 215 spigot \$5;
#X obj 108 403 spigot \$6;
#X obj 108 462 -;
#X msg 108 443 1 \$1;
#X obj 108 485 metro 5000;
#X obj 44 385 loadbang;
#X msg 44 405 0;
#X obj 108 423 pipe 5000;
#X obj 185 323 pp set;
#X obj 263 150 pp set;
#X obj 549 150 outlet;
#X text 599 151 pour reemission;
#X connect 0 0 41 0;
#X connect 0 0 34 0;
#X connect 1 0 8 1;
#X connect 1 0 42 1;
#X connect 1 0 52 0;
#X connect 2 0 42 0;
#X connect 4 0 6 0;
#X connect 4 1 5 1;
#X connect 5 0 7 0;
#X connect 6 0 5 0;
#X connect 6 1 23 0;
#X connect 7 0 3 0;
#X connect 8 0 1 0;
#X connect 9 0 1 0;
#X connect 10 0 13 0;
#X connect 11 0 10 0;
#X connect 12 0 10 1;
#X connect 13 0 1 0;
#X connect 17 0 18 0;
#X connect 17 1 47 0;
#X connect 18 0 1 0;
#X connect 19 0 20 0;
#X connect 20 0 2 0;
#X connect 20 0 35 0;
#X connect 21 0 22 0;
#X connect 22 0 3 1;
#X connect 23 0 21 0;
#X connect 23 1 24 0;
#X connect 24 0 21 1;
#X connect 25 0 0 0;
#X connect 31 0 32 0;
#X connect 34 0 60 0;
#X connect 35 0 59 0;
#X connect 38 0 17 0;
#X connect 41 0 45 0;
#X connect 42 0 8 0;
#X connect 45 0 46 0;
#X connect 46 0 44 0;
#X connect 46 1 4 0;
#X connect 46 1 61 0;
#X connect 47 0 48 0;
#X connect 47 1 11 0;
#X connect 47 2 12 0;
#X connect 48 0 51 0;
#X connect 51 0 20 0;
#X connect 52 0 58 0;
#X connect 53 0 55 0;
#X connect 54 0 53 0;
#X connect 55 0 47 0;
#X connect 56 0 57 0;
#X connect 57 0 52 0;
#X connect 58 0 54 0;
#X connect 59 0 37 0;
#X connect 60 0 36 0;
#X coords 0 -1 1 1 350 20 1 22 0;
