#N canvas 489 305 1428 749 10;
#X text 203 125 reçoit données capteur;
#X text 203 144 gère affichage joueur;
#X obj 69 252 t a a a a a a a a;
#X obj 70 157 alpha;
#X floatatom 554 223 5 0 0 0 - - -;
#X floatatom 99 406 5 0 0 0 - - -;
#X msg 62 519 font media/FreeSansBold.ttf;
#X obj 366 129 r /player/sensor;
#X floatatom 511 228 5 0 0 0 - - -;
#X obj 586 45 loadbang;
#X obj 586 95 f \$1;
#X obj 586 115 t f f;
#X obj 60 495 loadbang;
#X obj 635 159 /;
#X obj 586 201 *;
#X text 642 206 /nbre joueurs;
#X obj 63 103 r /player/framebuffer;
#X obj 71 132 gemhead;
#X msg 36 139 0;
#X obj 1 112 loadbang;
#X obj 586 26 initbang;
#X obj 99 348 separator;
#X obj 60 467 initbang;
#X obj 1 87 initbang;
#X obj 80 368 color 1 1 1 1;
#X msg 151 492 text \$1;
#X obj 53 430 translateXYZ 0.3 0.2 0.1;
#X floatatom 128 551 5 0 0 0 - - -;
#X obj 34 550 text2d;
#X msg 89 545 56;
#X obj 70 178 t a a a;
#X obj 142 156 loadbang;
#X obj 142 181 GLdefine GL_LIGHTING;
#X obj 120 208 GEMglDisable;
#X obj 55 214 GEMglEnable;
#X obj 142 134 initbang;
#X obj 1053 334 pix_texture;
#X obj 1053 387 repeat 3;
#X obj 1053 414 t a b;
#X obj 1080 450 counter 3;
#X obj 1053 365 t a b;
#X obj 1186 469 route 0 1 2;
#X obj 1053 588 color;
#X text 1115 380 gerer masquage cercles avec deux carrés formant l'angle
/ nbre joueurs;
#X obj 1053 561 scale 2;
#X obj 771 74 gemhead;
#X obj 771 127 gemframebuffer;
#X obj 854 87 loadbang;
#X obj 854 68 initbang;
#X obj 1053 243 separator;
#X obj 1053 263 pix_separator;
#X obj 771 203 translateXYZ 0 0 -4;
#X msg 1186 493 1 1 1 1;
#X msg 1208 516 1 1 0 1;
#X msg 1229 541 1 1 1 1;
#X obj 788 384 separator;
#X obj 805 323 rotateXYZ 0 0 0;
#X obj 788 425 square 6;
#X obj 805 363 square 6;
#X obj 805 343 translateXYZ 0 6 0;
#X obj 788 404 translateXYZ 0 -6 0;
#X obj 805 253 separator;
#X obj 805 273 pix_separator;
#X obj 805 295 color 0 0 0;
#X floatatom 894 281 5 0 0 0 - - -;
#X obj 534 397 square 4;
#X obj 1053 611 square 4;
#X obj 1072 514 /;
#X obj 1072 472 + 1;
#X msg 1072 492 0.7 \$1;
#X obj 1072 536 + 0.3;
#X obj 534 269 rotateXYZ;
#X obj 635 98 f \$2;
#X obj 587 70 t b b;
#X obj 691 120;
#X msg 635 138 360 \$1;
#X obj 587 141 - 1;
#X obj 771 457 t a b;
#X msg 803 478 snap;
#X obj 771 526 t a b;
#X msg 906 532 1;
#X text 819 455 later usage;
#X obj 771 551 pix_buffer_write \$0-buf;
#X obj 534 290 t a b;
#X msg 669 296 1;
#X obj 534 315 pix_buffer_read \$0-buf;
#X obj 534 344 pix_coloralpha;
#X obj 771 502 pix_snap 0 0 1024 1024;
#X obj 771 226 t a a a a;
#X obj 534 368 pix_texture;
#X msg 854 105 format RGBA \, dimen 1024 1024;
#X obj 1128 95 pix_buffer \$0-buf 2;
#X obj 771 98 alpha;
#X obj 1053 287 pix_image ./media/circle_with_halo2.png;
#X obj 656 440 loadbang;
#X obj 656 421 initbang;
#X msg 717 482 PBO 2;
#X connect 2 5 21 0;
#X connect 2 7 71 0;
#X connect 3 0 30 0;
#X connect 4 0 71 3;
#X connect 5 0 26 2;
#X connect 6 0 28 0;
#X connect 8 0 71 1;
#X connect 9 0 73 0;
#X connect 10 0 11 0;
#X connect 11 0 25 0;
#X connect 11 1 76 0;
#X connect 12 0 6 0;
#X connect 12 0 29 0;
#X connect 13 0 14 1;
#X connect 13 0 56 3;
#X connect 14 0 71 3;
#X connect 16 0 17 0;
#X connect 17 0 3 0;
#X connect 18 0 17 0;
#X connect 19 0 18 0;
#X connect 20 0 9 0;
#X connect 21 0 24 0;
#X connect 22 0 12 0;
#X connect 23 0 19 0;
#X connect 24 0 26 0;
#X connect 25 0 28 0;
#X connect 26 0 28 0;
#X connect 27 0 28 1;
#X connect 29 0 28 1;
#X connect 30 0 34 0;
#X connect 30 1 2 0;
#X connect 30 2 33 0;
#X connect 31 0 32 0;
#X connect 32 0 33 1;
#X connect 32 0 34 1;
#X connect 35 0 31 0;
#X connect 36 0 40 0;
#X connect 37 0 38 0;
#X connect 38 0 44 0;
#X connect 38 1 39 0;
#X connect 39 0 41 0;
#X connect 39 0 68 0;
#X connect 40 0 37 0;
#X connect 40 1 39 2;
#X connect 41 0 52 0;
#X connect 41 1 53 0;
#X connect 41 2 54 0;
#X connect 42 0 66 0;
#X connect 44 0 42 0;
#X connect 45 0 92 0;
#X connect 46 0 51 0;
#X connect 47 0 90 0;
#X connect 48 0 47 0;
#X connect 49 0 50 0;
#X connect 50 0 93 0;
#X connect 51 0 88 0;
#X connect 52 0 42 1;
#X connect 53 0 42 1;
#X connect 54 0 42 1;
#X connect 55 0 60 0;
#X connect 56 0 59 0;
#X connect 59 0 58 0;
#X connect 60 0 57 0;
#X connect 61 0 62 0;
#X connect 62 0 63 0;
#X connect 63 0 56 0;
#X connect 64 0 56 3;
#X connect 67 0 70 0;
#X connect 68 0 69 0;
#X connect 69 0 67 0;
#X connect 70 0 44 1;
#X connect 71 0 83 0;
#X connect 72 0 75 0;
#X connect 73 0 10 0;
#X connect 73 1 72 0;
#X connect 75 0 13 0;
#X connect 76 0 14 0;
#X connect 77 0 87 0;
#X connect 77 1 78 0;
#X connect 78 0 87 0;
#X connect 79 0 82 0;
#X connect 79 1 80 0;
#X connect 80 0 82 1;
#X connect 83 0 85 0;
#X connect 83 1 84 0;
#X connect 84 0 85 1;
#X connect 85 0 86 0;
#X connect 86 0 89 0;
#X connect 87 0 79 0;
#X connect 88 0 77 0;
#X connect 88 1 55 0;
#X connect 88 2 61 0;
#X connect 88 3 49 0;
#X connect 89 0 65 0;
#X connect 90 0 46 0;
#X connect 92 0 46 0;
#X connect 93 0 36 0;
#X connect 94 0 96 0;
#X connect 95 0 94 0;
#X connect 96 0 87 0;
