#N canvas 0 25 1366 693 10;
#X obj 894 671 *~;
#X obj 941 589 vsl 15 128 0 1 0 0 empty empty empty 0 -9 0 10 -262144
-1 -1 10510 1;
#X obj 894 649 line;
#X msg 895 625 \$1 20;
#X obj 855 671 *~;
#X obj 818 585 vsl 15 128 0 1 0 0 empty empty empty 0 -9 0 10 -262144
-1 -1 10510 1;
#X obj 855 649 line;
#X msg 856 625 \$1 20;
#X obj 626 430 osc~;
#X obj 662 430 vline~;
#X obj 643 458 *~;
#X floatatom 622 393 5 0 0 0 - - -, f 5;
#X obj 595 502 *~;
#X obj 568 413 vsl 15 128 0 1 0 0 empty empty empty 0 -9 0 10 -262144
-1 -1 11541 1;
#X obj 595 480 line;
#X msg 600 451 \$1 20;
#X obj 856 574 +~;
#X obj 878 432 osc~;
#X obj 914 432 vline~;
#X obj 895 460 *~;
#X floatatom 874 395 5 0 0 0 - - -, f 5;
#X obj 847 504 *~;
#X obj 820 415 vsl 15 128 0 1 0 0 empty empty empty 0 -9 0 10 -262144
-1 -1 11595 1;
#X obj 847 482 line;
#X msg 852 453 \$1 20;
#X obj 1126 437 osc~;
#X obj 1162 437 vline~;
#X obj 1143 465 *~;
#X floatatom 1122 400 5 0 0 0 - - -, f 5;
#X obj 1095 509 *~;
#X obj 1068 420 vsl 15 128 0 1 0 0 empty empty empty 0 -9 0 10 -262144
-1 -1 11386 1;
#X obj 1095 487 line;
#X msg 1100 458 \$1 20;
#X obj 815 369 unpack 0 0 0 0 0 0 0 0 0 0 0;
#X floatatom 570 553 5 0 0 0 - - -, f 5;
#X floatatom 821 554 5 0 0 0 - - -, f 5;
#X floatatom 1067 558 5 0 0 0 - - -, f 5;
#X msg 707 282 1 50 \, 0 50 50;
#X msg 826 279 1 20 \, 0 50 20;
#X msg 585 277 1 75 \, 0 50 75;
#X obj 855 698 dac~ 6 7;
#X obj 644 151 loadbang;
#X obj 380 104 inlet;
#X msg 652 610 0.3;
#X msg 227 188 0;
#X msg 370 274 50 0.83 60 0.85 65 0.865;
#X connect 0 0 40 1;
#X connect 1 0 3 0;
#X connect 2 0 0 1;
#X connect 3 0 2 0;
#X connect 4 0 40 0;
#X connect 5 0 7 0;
#X connect 6 0 4 1;
#X connect 7 0 6 0;
#X connect 8 0 10 0;
#X connect 9 0 10 1;
#X connect 10 0 12 0;
#X connect 11 0 8 0;
#X connect 12 0 16 0;
#X connect 13 0 15 0;
#X connect 13 0 34 0;
#X connect 14 0 12 1;
#X connect 15 0 14 0;
#X connect 16 0 4 0;
#X connect 16 0 0 0;
#X connect 17 0 19 0;
#X connect 18 0 19 1;
#X connect 19 0 21 0;
#X connect 20 0 17 0;
#X connect 21 0 16 1;
#X connect 22 0 24 0;
#X connect 22 0 35 0;
#X connect 23 0 21 1;
#X connect 24 0 23 0;
#X connect 25 0 27 0;
#X connect 26 0 27 1;
#X connect 27 0 29 0;
#X connect 28 0 25 0;
#X connect 29 0 16 1;
#X connect 30 0 32 0;
#X connect 30 0 36 0;
#X connect 31 0 29 1;
#X connect 32 0 31 0;
#X connect 33 0 11 0;
#X connect 33 1 13 0;
#X connect 33 2 20 0;
#X connect 33 3 22 0;
#X connect 33 4 28 0;
#X connect 33 5 30 0;
#X connect 37 0 18 0;
#X connect 38 0 26 0;
#X connect 39 0 9 0;
#X connect 41 0 45 0;
#X connect 41 0 39 0;
#X connect 41 0 37 0;
#X connect 41 0 38 0;
#X connect 41 0 43 0;
#X connect 42 0 39 0;
#X connect 42 0 37 0;
#X connect 42 0 38 0;
#X connect 43 0 5 0;
#X connect 43 0 1 0;
#X connect 44 0 39 0;
#X connect 44 0 37 0;
#X connect 44 0 38 0;
#X connect 45 0 33 0;
