#N canvas 609 93 450 300 10;
#X floatatom 122 110 5 0 0 0 - - -, f 5;
#X msg 123 206 90;
#X obj 122 162 sel 1;
#X obj 122 73 expr if($f1 >=0 & $f1 <=5 \, 1 \, 0);
#X obj 122 6 inlet;
#X obj 123 254 outlet;
#X obj 191 164 sel 0;
#X msg 191 206 0;
#X obj 338 206 crossfadepoint;
#X connect 0 0 2 0;
#X connect 0 0 6 0;
#X connect 0 0 8 0;
#X connect 1 0 5 0;
#X connect 2 0 1 0;
#X connect 3 0 0 0;
#X connect 4 0 3 0;
#X connect 6 0 7 0;
#X connect 7 0 5 0;
#X connect 8 0 5 0;
