#N canvas 389 523 681 595 10;
#X obj 99 59 inlet;
#X obj 26 145 gemframebuffer;
#X obj 26 215 translateXYZ 0 0 -4;
#X obj 26 285 pix_texture;
#X obj 26 305 square 4;
#X msg 43 264 quality 1 \, rectangle 0;
#X obj 43 243 loadbang;
#X obj 128 431 outlet;
#X obj 26 195 _glsl blur;
#X obj 47 166 bng 15 250 50 0 empty empty empty 17 7 0 10 -262144 -1
-1;
#X obj 378 85 t f f;
#X obj 378 17 r blur;
#X obj 378 133 pack f f;
#X obj 26 55 gemhead \$1;
#X obj 378 112 * \$2;
#X obj 431 111 * \$3;
#X msg 378 153 distance \$1 \$2;
#X obj 42 119 r to_fb;
#X obj 378 39 route float;
#X obj 452 61 unpack f f;
#X obj 571 18 r motion_blur;
#X obj 571 90 pack f f;
#X obj 571 65 * \$2;
#X obj 571 41 unpack f f;
#X obj 638 65 * \$2;
#X obj 124 98 loadbang;
#X msg 126 119 dimen 1024 1024 \, format RGBA;
#X connect 0 0 3 1;
#X connect 1 0 8 0;
#X connect 1 1 7 0;
#X connect 2 0 3 0;
#X connect 3 0 4 0;
#X connect 5 0 3 0;
#X connect 6 0 5 0;
#X connect 8 0 2 0;
#X connect 9 0 8 0;
#X connect 10 0 14 0;
#X connect 10 1 15 0;
#X connect 11 0 18 0;
#X connect 12 0 16 0;
#X connect 13 0 1 0;
#X connect 14 0 12 0;
#X connect 15 0 12 1;
#X connect 16 0 8 1;
#X connect 17 0 1 0;
#X connect 18 0 10 0;
#X connect 18 1 19 0;
#X connect 19 0 14 0;
#X connect 19 1 15 0;
#X connect 20 0 23 0;
#X connect 21 0 16 0;
#X connect 22 0 21 0;
#X connect 23 0 22 0;
#X connect 23 1 24 0;
#X connect 24 0 21 1;
#X connect 25 0 26 0;
#X connect 26 0 1 0;
