#N canvas 552 138 718 455 10;
#N canvas 0 197 901 824 sound_1 0;
#X obj 98 158 osc~;
#X obj 99 216 *~;
#X obj 136 158 osc~;
#X obj 174 158 osc~;
#X obj 136 131 * 1.5;
#X obj 174 131 * 1.33333;
#X obj 241 131 * 1.125;
#X obj 291 131 * 1.77778;
#X obj 353 131 * 1.25;
#X obj 398 131 * 1.6;
#X obj 208 158 osc~;
#X obj 245 158 osc~;
#X obj 284 158 osc~;
#X obj 318 158 osc~;
#X obj 127 240 *~;
#X obj 126 291 *~;
#X obj 155 291 osc~;
#X obj 351 158 osc~;
#X obj 385 158 osc~;
#X text 144 435 RIGHT CHANNEL;
#X obj 437 131 * 1.11;
#X obj 482 131 * 1.09;
#X obj 163 59 vsl 10 57 1 1.5 0 0 empty CH_1A empty 0 -9 0 10 -262144
-1 -1 0 1;
#X obj 225 61 vsl 10 57 1 1.33 0 0 empty CH_2A empty 0 -9 0 10 -262144
-1 -1 0 1;
#X obj 280 63 vsl 10 57 1 1.33 0 0 empty CH_3A empty 0 -9 0 10 -262144
-1 -1 0 1;
#X obj 342 62 vsl 10 57 1 1.778 0 0 empty CH_4A empty 0 -9 0 10 -262144
-1 -1 0 1;
#X obj 386 63 vsl 10 57 1 1.25 0 0 empty CH_5A empty 0 -9 0 10 -262144
-1 -1 0 1;
#X obj 425 64 vsl 10 57 1 1.6 0 0 empty CH_6A empty 0 -9 0 10 -262144
-1 -1 0 1;
#X obj 470 65 vsl 10 57 1 1.11 0 0 empty CH_7A empty 0 -9 0 10 -262144
-1 -1 0 1;
#X obj 515 65 vsl 10 57 1 1.09 0 0 empty CH_8A empty 0 -9 0 10 -262144
-1 -1 0 1;
#X floatatom 192 267 5 0 0 0 - - -;
#X floatatom 155 267 5 0 0 0 - - -;
#X obj 192 291 / 36;
#X floatatom 98 18 5 0 0 0 - - -;
#X obj 107 433 bng 15 250 50 0 empty empty empty 17 7 0 10 -262144
-1 -1;
#X msg 575 -86 100;
#X obj 192 239 r RAW_DATA_7;
#X obj 657 -61 gate 1;
#X obj 630 -59 tgl 15 0 empty empty empty 17 7 0 10 -262144 -1 -1 0
1;
#X obj 690 -89 bng 15 250 50 0 empty empty empty 17 7 0 10 -262144
-1 -1;
#X obj 632 -84 pipe 5;
#X obj 599 -23 sel 0;
#X obj 552 -85 bng 15 250 50 0 empty empty empty 17 7 0 10 -262144
-1 -1;
#X obj 110 626 hsl 128 15 0 0.055 0 0 volume_3 empty empty -2 -8 0
10 -262144 -1 -1 6350 1;
#X obj 595 481 bng 35 250 50 0 avarage_3 empty scan 3 17 0 10 -262130
-258113 -1;
#X obj 98 -6 / 3;
#X floatatom 107 604 5 0 0 0 - - -;
#X obj 107 529 line;
#X msg 74 459 0;
#X obj 116 -24 hsl 128 15 1 7 0 0 empty frq_3 empty -2 -8 0 10 -262144
-1 -1 10583 1;
#X obj 505 310 vsl 35 128 0 0.055 0 0 empty volume_3 VOL 7 145 0 14
-262144 -1 -1 6350 1;
#X obj 547 310 vsl 35 128 7 1 0 0 frq_3 empty FRQ 6 145 0 14 -262144
-1 -1 2117 1;
#X obj 589 310 vsl 35 128 0 1023 0 0 empty UNIT_3 U_3 5 145 0 14 -13330
-262144 -1 0 1;
#X floatatom 167 459 5 0 0 0 - - -;
#X obj 507 482 tgl 35 0 permanent_3 empty PERM 2 17 0 14 -262144 -1
-1 1 1;
#X obj 629 310 vsl 35 128 1 33 0 0 %_of_avarage_3 empty % 13 145 0
14 -83269 -262144 -1 4366 1;
#X obj 98 -84 gate 1;
#X obj 131 -109 r RAW_DATA_7;
#X obj 98 -107 tgl 15 0 empty permanent_3 empty 17 7 0 10 -262144 -1
-1 1 1;
#X obj 398 509 loadbang;
#X msg 463 509 1;
#N canvas 456 120 847 632 avarage_3 0;
#X obj -165 -229 sum;
#X obj -87 -300 gate 1;
#X floatatom -165 -208 5 0 0 0 - - -;
#X obj -87 -258 list prepend;
#X obj -18 -279 t l;
#X obj -87 -231 list length;
#X obj -165 -287 bng 15 250 50 0 empty empty clear 17 7 0 10 -262144
-1 -1;
#X msg -165 -255 0;
#X obj -180 -162 f;
#X obj -102 -190 /;
#X floatatom -47 -207 5 0 0 0 - - -;
#X obj -54 -330 r RAW_DATA_7;
#X floatatom -45 -300 5 0 0 0 - - -;
#X obj -87 -328 tgl 15 0 empty empty empty 17 7 0 10 -262144 -1 -1
0 1;
#X obj -130 -328 sel 0;
#X obj -102 -148 nbx 5 14 -1e+37 1e+37 0 0 base_FRQ_3 empty avarage_number
0 -8 0 10 -262144 -1 -1 0 256;
#X msg -130 73 stop;
#X obj -94 73 metro 20;
#X obj -94 97 count 100;
#X obj -94 127 sel 99;
#X obj -35 127 < 99;
#X floatatom -35 155 5 0 0 0 - - -;
#X floatatom 267 -36 5 0 0 0 - - -;
#X obj 267 -2 / 100;
#X obj 267 37 *;
#X obj 339 -61 vsl 15 128 0 55 0 0 empty %_of_avarage_3 empty 0 -9
0 10 -262144 -1 -1 2771 1;
#X floatatom 267 65 5 0 0 0 - - -;
#X obj 339 92 int;
#X floatatom 397 107 5 0 0 0 - - -;
#X obj 108 -214 expr $f4 \; (($f1 > $f2) & ($f1 <= $f3)) \;;
#X floatatom 108 -177 5 0 0 0 - - -;
#X floatatom 165 -288 5 0 0 0 - - -;
#X floatatom 165 -239 5 0 0 0 - - -;
#X floatatom 108 -237 5 0 0 0 - - -;
#X floatatom 222 -239 5 0 0 0 - - -;
#X msg 106 -343 bang;
#X obj 165 -317 f;
#X obj 180 -336 nbx 5 14 -1e+37 1e+37 0 0 empty base_FRQ_3 avarage_number
0 -8 0 10 -262144 -1 -1 0 256;
#X msg 279 -239 1;
#X msg 313 -240 0;
#N canvas 651 49 628 879 example 0;
#X obj -331 50 expr (($f1 > 0) & ($f1 <= 3)) \;;
#X floatatom -331 74 5 0 0 0 - - -;
#X floatatom -331 13 5 0 0 0 - - -;
#X text -334 93 between statics numbers;
#X text -335 -73 All expressions created for Biosensoring project 2011
by M.hug;
#X floatatom -230 125 5 0 0 0 - - -;
#X floatatom -230 174 5 0 0 0 - - -;
#X obj -330 195 expr (($f1 > $f2) & ($f1 <= $f3)) \;;
#X floatatom -330 173 5 0 0 0 - - -;
#X floatatom -129 174 5 0 0 0 - - -;
#X obj -129 153 + 5;
#X obj -230 153 - 5;
#X text -333 240 between dynamic numbers;
#X obj -329 428 expr $f4 \; (($f1 > $f2) & ($f1 <= $f3)) \;;
#X floatatom -329 464 5 0 0 0 - - -;
#X floatatom -158 465 5 0 0 0 - - -;
#X floatatom -272 355 5 0 0 0 - - -;
#X floatatom -272 404 5 0 0 0 - - -;
#X floatatom -329 405 5 0 0 0 - - -;
#X floatatom -215 404 5 0 0 0 - - -;
#X obj -215 383 + 5;
#X obj -272 383 - 5;
#X msg -310 302 bang;
#X obj -272 326 f;
#X msg -158 402 1;
#X msg -127 402 0;
#X floatatom -257 306 5 0 0 0 - - -;
#X text -334 489 between dynamic numbers in contition of $f4;
#X text -161 384 if true the function is evaluated;
#X floatatom -330 220 5 0 0 0 - - -;
#X connect 0 0 1 0;
#X connect 2 0 0 0;
#X connect 5 0 10 0;
#X connect 5 0 11 0;
#X connect 6 0 7 1;
#X connect 7 0 29 0;
#X connect 8 0 7 0;
#X connect 9 0 7 2;
#X connect 10 0 9 0;
#X connect 11 0 6 0;
#X connect 13 0 14 0;
#X connect 13 1 15 0;
#X connect 16 0 20 0;
#X connect 16 0 21 0;
#X connect 17 0 13 1;
#X connect 18 0 13 0;
#X connect 19 0 13 2;
#X connect 20 0 19 0;
#X connect 21 0 17 0;
#X connect 22 0 23 0;
#X connect 23 0 16 0;
#X connect 24 0 13 3;
#X connect 25 0 13 3;
#X connect 26 0 23 1;
#X restore 51 -65 pd example expressions;
#X obj -176 -46 metro 300;
#X obj -94 -46 counter;
#X floatatom -94 -20 5 0 0 0 - - -;
#X obj -176 -84 tgl 35 0 empty Ev_timer_3 empty 17 7 0 10 -13330 -258113
-262144 0 1;
#X floatatom -34 -82 5 0 0 0 - - -;
#X msg -65 -82 0;
#X obj -106 -81 sel 0;
#X obj -94 1 sel 11;
#X obj -61 24 bng 15 250 50 0 empty empty empty 17 7 0 10 -262144 -1
-1;
#X obj -94 25 bng 15 250 50 0 empty empty empty 17 7 0 10 -262144 -1
-1;
#X text 303 -179 result;
#X text 145 -173 On/Off;
#X obj -35 191 s reset_3;
#X obj -87 -356 r reset_3;
#X obj 279 -178 tgl 15 0 Ev_timer_3 empty empty 17 7 0 10 -262144 -1
-1 0 1;
#X obj 52 -92 nbx 5 14 -1e+37 1e+37 0 0 base_FRQ_3 empty avarage_number
0 -8 0 10 -262144 -1 -1 0 256;
#X obj 279 -270 r reset_3;
#X obj 279 -156 sel 1;
#X msg -107 -108 300;
#X obj 65 -177 sel 1;
#X msg 294 -341 500;
#X obj -17 35 bng 15 250 50 0 empty avarage_3 empty 17 7 0 10 -262144
-1 -1;
#X obj 165 -260 - 55;
#X obj 222 -260 + 55;
#X obj 81 91 moses;
#X obj 267 -78 nbx 5 14 -1e+37 1e+37 0 0 empty base_FRQ_3 avarage_number
0 -8 0 10 -262144 -1 -1 0 256;
#X floatatom 108 195 5 0 0 0 - - -;
#X obj 108 68 +;
#X floatatom 140 67 5 0 0 0 - - -;
#X obj 81 37 r RAW_DATA_7;
#X obj 196 127 moses;
#X floatatom 223 157 5 0 0 0 - - -;
#X obj 223 95 +;
#X obj 382 45 t b;
#X obj 108 217 s level_x_3;
#X connect 0 0 2 0;
#X connect 1 0 3 0;
#X connect 2 0 8 1;
#X connect 3 0 0 0;
#X connect 3 0 5 0;
#X connect 3 0 4 0;
#X connect 4 0 3 1;
#X connect 5 0 9 1;
#X connect 5 0 10 0;
#X connect 6 0 3 1;
#X connect 6 0 7 0;
#X connect 7 0 0 0;
#X connect 8 0 9 0;
#X connect 9 0 15 0;
#X connect 11 0 1 1;
#X connect 11 0 12 0;
#X connect 11 0 33 0;
#X connect 13 0 1 0;
#X connect 13 0 14 0;
#X connect 14 0 8 0;
#X connect 14 0 6 0;
#X connect 16 0 17 0;
#X connect 17 0 18 0;
#X connect 18 0 19 0;
#X connect 18 0 20 0;
#X connect 19 0 16 0;
#X connect 20 0 21 0;
#X connect 21 0 53 0;
#X connect 22 0 23 0;
#X connect 23 0 24 0;
#X connect 24 0 26 0;
#X connect 25 0 27 0;
#X connect 26 0 68 1;
#X connect 26 0 73 1;
#X connect 27 0 24 1;
#X connect 27 0 28 0;
#X connect 28 0 74 0;
#X connect 29 0 30 0;
#X connect 29 0 60 0;
#X connect 29 1 55 0;
#X connect 31 0 63 0;
#X connect 31 0 64 0;
#X connect 32 0 29 1;
#X connect 33 0 29 0;
#X connect 34 0 29 2;
#X connect 35 0 36 0;
#X connect 36 0 31 0;
#X connect 37 0 36 1;
#X connect 38 0 29 3;
#X connect 39 0 29 3;
#X connect 41 0 42 0;
#X connect 42 0 43 0;
#X connect 43 0 48 0;
#X connect 44 0 41 0;
#X connect 44 0 47 0;
#X connect 45 0 42 4;
#X connect 46 0 42 3;
#X connect 47 0 46 0;
#X connect 48 0 50 0;
#X connect 48 1 49 0;
#X connect 50 0 44 0;
#X connect 50 0 17 0;
#X connect 54 0 13 0;
#X connect 55 0 58 0;
#X connect 57 0 38 0;
#X connect 58 0 39 0;
#X connect 59 0 41 1;
#X connect 60 0 35 0;
#X connect 61 0 36 1;
#X connect 62 0 17 0;
#X connect 63 0 32 0;
#X connect 64 0 34 0;
#X connect 65 1 67 0;
#X connect 66 0 22 0;
#X connect 66 0 68 0;
#X connect 67 0 75 0;
#X connect 68 0 69 0;
#X connect 68 0 65 1;
#X connect 69 0 73 0;
#X connect 70 0 65 0;
#X connect 70 0 71 0;
#X connect 71 1 72 0;
#X connect 72 0 75 0;
#X connect 73 0 71 1;
#X connect 74 0 66 0;
#X restore 501 204 pd avarage_3;
#N canvas 816 233 648 491 random_3 0;
#X floatatom 83 -26 5 0 0 0 - - -;
#X obj 83 4 / 100;
#X floatatom 83 28 5 0 0 0 - - -;
#X obj 83 49 + 1;
#X obj 83 -51 random 50;
#X floatatom 149 -26 5 0 0 0 - - -;
#X obj 149 4 / 100;
#X floatatom 149 28 5 0 0 0 - - -;
#X obj 149 49 + 1;
#X obj 149 -51 random 33;
#X floatatom 217 -26 5 0 0 0 - - -;
#X obj 217 4 / 100;
#X floatatom 217 28 5 0 0 0 - - -;
#X obj 217 49 + 1;
#X floatatom 280 -27 5 0 0 0 - - -;
#X obj 280 3 / 100;
#X floatatom 280 27 5 0 0 0 - - -;
#X floatatom 346 -27 5 0 0 0 - - -;
#X obj 346 3 / 100;
#X floatatom 346 27 5 0 0 0 - - -;
#X obj 346 48 + 1;
#X floatatom 414 -27 5 0 0 0 - - -;
#X obj 414 3 / 100;
#X floatatom 414 27 5 0 0 0 - - -;
#X obj 414 48 + 1;
#X obj 217 -51 random 12;
#X obj 280 -52 random 77;
#X obj 346 -52 random 25;
#X obj 414 -52 random 60;
#X obj 280 49 + 1;
#X floatatom 479 -27 5 0 0 0 - - -;
#X obj 479 3 / 100;
#X floatatom 479 27 5 0 0 0 - - -;
#X obj 479 48 + 1;
#X floatatom 547 -27 5 0 0 0 - - -;
#X obj 547 3 / 100;
#X floatatom 547 27 5 0 0 0 - - -;
#X obj 547 48 + 1;
#X obj 479 -52 random 11;
#X obj 547 -52 random 10;
#X floatatom 955 -69 4 0 0 2 highest_note - -;
#X floatatom 868 -69 4 0 0 2 lowest_note - -;
#X floatatom 1047 -71 4 0 0 2 brown_factor - -;
#X floatatom 783 2 4 0 0 1 note - -;
#X floatatom 939 -4 4 0 0 1 interval - -;
#X obj 783 -70 bng 15 250 50 0 empty empty rhythm_bangs 0 -6 0 8 -262144
-1 -1;
#X floatatom 939 98 5 0 0 0 - - -;
#X obj 939 16 bng 15 250 50 0 empty empty empty 17 7 0 10 -262144 -1
-1;
#X obj 783 86 pipe 100;
#X obj 783 110 s test_r;
#X obj 783 48 mtof;
#X obj 1008 46 s trigger_rand_r;
#X obj 783 -35 brown-melody 44 83 0.7;
#X obj 939 75 brownian 52 77 0.3;
#X obj 964 16 tgl 25 0 ratio_rand empty empty 17 7 0 10 -13381 -262144
-1 0 1;
#X obj 964 46 gate 1;
#X text 1002 26 ON = RATIO RANDOM;
#X obj 83 75 nbx 5 14 -1e+37 1e+37 0 0 CH_1A empty empty 0 -8 0 10
-262144 -1 -1 0 256;
#X obj 149 75 nbx 5 14 -1e+37 1e+37 0 0 CH_2A empty empty 0 -8 0 10
-262144 -1 -1 0 256;
#X obj 217 75 nbx 5 14 -1e+37 1e+37 0 0 CH_3A empty empty 0 -8 0 10
-262144 -1 -1 0 256;
#X obj 280 75 nbx 5 14 -1e+37 1e+37 0 0 CH_4A empty empty 0 -8 0 10
-262144 -1 -1 0 256;
#X obj 346 75 nbx 5 14 -1e+37 1e+37 0 0 CH_5A empty empty 0 -8 0 10
-262144 -1 -1 0 256;
#X obj 414 75 nbx 5 14 -1e+37 1e+37 0 0 CH_6A empty empty 0 -8 0 10
-262144 -1 -1 0 256;
#X obj 479 75 nbx 5 14 -1e+37 1e+37 0 0 CH_7A empty empty 0 -8 0 10
-262144 -1 -1 0 256;
#X obj 547 75 nbx 5 14 -1e+37 1e+37 0 0 CH_8A empty empty 0 -8 0 10
-262144 -1 -1 0 256;
#X obj 83 -94 r random_3;
#X obj 546 -93 r init_3;
#X connect 0 0 1 0;
#X connect 1 0 2 0;
#X connect 2 0 3 0;
#X connect 3 0 57 0;
#X connect 4 0 0 0;
#X connect 5 0 6 0;
#X connect 6 0 7 0;
#X connect 7 0 8 0;
#X connect 8 0 58 0;
#X connect 9 0 5 0;
#X connect 10 0 11 0;
#X connect 11 0 12 0;
#X connect 12 0 13 0;
#X connect 13 0 59 0;
#X connect 14 0 15 0;
#X connect 15 0 16 0;
#X connect 16 0 29 0;
#X connect 17 0 18 0;
#X connect 18 0 19 0;
#X connect 19 0 20 0;
#X connect 20 0 61 0;
#X connect 21 0 22 0;
#X connect 22 0 23 0;
#X connect 23 0 24 0;
#X connect 24 0 62 0;
#X connect 25 0 10 0;
#X connect 26 0 14 0;
#X connect 27 0 17 0;
#X connect 28 0 21 0;
#X connect 29 0 60 0;
#X connect 30 0 31 0;
#X connect 31 0 32 0;
#X connect 32 0 33 0;
#X connect 33 0 63 0;
#X connect 34 0 35 0;
#X connect 35 0 36 0;
#X connect 36 0 37 0;
#X connect 37 0 64 0;
#X connect 38 0 30 0;
#X connect 39 0 34 0;
#X connect 40 0 52 2;
#X connect 41 0 52 1;
#X connect 42 0 52 3;
#X connect 43 0 50 0;
#X connect 44 0 47 0;
#X connect 45 0 52 0;
#X connect 46 0 41 0;
#X connect 47 0 53 0;
#X connect 47 0 55 1;
#X connect 48 0 49 0;
#X connect 50 0 48 0;
#X connect 52 0 43 0;
#X connect 52 1 44 0;
#X connect 53 0 46 0;
#X connect 54 0 55 0;
#X connect 55 0 51 0;
#X connect 65 0 4 0;
#X connect 65 0 9 0;
#X connect 65 0 25 0;
#X connect 65 0 26 0;
#X connect 65 0 27 0;
#X connect 65 0 28 0;
#X connect 65 0 38 0;
#X connect 65 0 39 0;
#X connect 66 0 0 0;
#X connect 66 0 5 0;
#X connect 66 0 10 0;
#X connect 66 0 14 0;
#X connect 66 0 17 0;
#X connect 66 0 21 0;
#X connect 66 0 30 0;
#X connect 66 0 34 0;
#X restore 502 181 pd random_3;
#X obj 657 -32 s random_3;
#X obj 575 -61 s init_3;
#X obj 111 -49 nbx 5 14 -1e+37 1e+37 0 0 empty base_FRQ_3 avarage_number
0 -8 0 10 -262144 -1 -1 0 256;
#X floatatom 590 424 5 0 0 0 - - -;
#N canvas 531 26 776 550 recognize 0;
#X obj 88 97 r RAW_DATA_7;
#X obj 40 319 tgl 15 0 empty empty empty 17 7 0 10 -262144 -1 -1 0
1;
#X obj 40 142 gate 2;
#X obj 40 113 + 1;
#X obj 40 84 tgl 15 0 empty empty empty 17 7 0 10 -262144 -1 -1 0 1
;
#X floatatom 126 145 5 0 0 0 - - -;
#X obj 73 121 f;
#X obj 15 109 bng 15 250 50 0 empty empty empty 17 7 0 10 -262144 -1
-1;
#X obj 40 344 sel 0 1;
#X floatatom 140 183 5 0 0 0 - - -;
#X floatatom 140 232 5 0 0 0 - - -;
#X floatatom 40 231 5 0 0 0 - - -;
#X floatatom 241 232 5 0 0 0 - - -;
#X floatatom 40 278 5 0 0 0 - - -;
#X obj 40 253 expr (($f1 > $f2) & ($f1 < $f3)) \;;
#X obj 40 56 metro 100;
#X obj 140 211 - 1;
#X obj 241 211 + 1;
#X obj 40 13 tgl 15 0 empty permanent_3 empty 17 7 0 10 -262144 -1
-1 1 1;
#X obj 40 33 == 0;
#X obj 40 427 s start_sound_3;
#X obj 161 427 s stop_sound_3;
#X connect 0 0 5 0;
#X connect 0 0 6 1;
#X connect 1 0 8 0;
#X connect 2 0 11 0;
#X connect 2 1 9 0;
#X connect 3 0 2 0;
#X connect 4 0 3 0;
#X connect 4 0 7 0;
#X connect 6 0 2 1;
#X connect 7 0 6 0;
#X connect 8 0 20 0;
#X connect 8 1 21 0;
#X connect 9 0 16 0;
#X connect 9 0 17 0;
#X connect 10 0 14 1;
#X connect 11 0 14 0;
#X connect 12 0 14 2;
#X connect 13 0 1 0;
#X connect 14 0 13 0;
#X connect 15 0 4 0;
#X connect 16 0 10 0;
#X connect 17 0 12 0;
#X connect 18 0 19 0;
#X connect 19 0 15 0;
#X restore 501 226 pd recognize UNIT_3;
#X obj 107 502 pack f 5000;
#X floatatom 630 425 5 0 0 0 - - -;
#X obj 679 424 int;
#X msg 107 459 0.33;
#X obj 507 567 metro 5000;
#X obj 507 599 bng 15 250 50 0 empty empty empty 17 7 0 10 -262144
-1 -1;
#X msg 463 488 6;
#X msg 463 528 12;
#X obj 79 327 dac~;
#N canvas 96 489 731 467 sim_1 0;
#X obj 100 231 between;
#X msg 119 111 444;
#X msg 155 111 466;
#X floatatom 100 254 5 0 0 0 - - -;
#X obj 101 47 tgl 35 0 empty empty test_3 3 17 0 9 -258113 -262144
-262144 0 1;
#X obj 185 49 sel 0 1;
#X obj 137 146 hsl 128 15 0 50 0 0 empty empty empty -2 -8 0 10 -262144
-1 -1 0 1;
#X obj 173 165 hsl 128 15 0 50 0 0 empty empty empty -2 -8 0 10 -262144
-1 -1 0 1;
#X obj 170 184 int;
#X obj 134 184 int;
#X floatatom 194 213 5 0 0 0 - - -;
#X floatatom 194 232 5 0 0 0 - - -;
#X floatatom 46 236 5 0 0 0 - - -;
#X obj 119 209 +;
#X obj 155 209 -;
#X floatatom 217 267 5 0 0 0 - - -;
#X obj 100 88 metro 250;
#X obj 747 228 s stop_sound _3;
#X obj 747 205 sel 0 1;
#X obj 766 252 s start_sound _3;
#X obj 185 72 s stop_sound_3;
#X obj 204 96 s start_sound_3;
#X obj 100 277 s RAW_DATA_7;
#X obj 203 119 loadbang;
#X connect 0 0 3 0;
#X connect 1 0 13 0;
#X connect 2 0 14 0;
#X connect 3 0 22 0;
#X connect 4 0 16 0;
#X connect 4 0 5 0;
#X connect 5 0 20 0;
#X connect 5 1 21 0;
#X connect 6 0 9 0;
#X connect 7 0 8 0;
#X connect 8 0 10 0;
#X connect 8 0 14 1;
#X connect 9 0 11 0;
#X connect 9 0 13 1;
#X connect 13 0 0 1;
#X connect 13 0 12 0;
#X connect 14 0 0 2;
#X connect 14 0 15 0;
#X connect 16 0 0 0;
#X connect 18 0 17 0;
#X connect 18 1 19 0;
#X connect 23 0 2 0;
#X connect 23 0 1 0;
#X coords 0 -1 1 1 36 36 2 100 47;
#X restore 551 481 pd sim_1;
#X obj 74 391 r stop_sound_3;
#X obj 107 413 r start_sound_3;
#X obj 507 541 == 0;
#X obj 107 550 / 12;
#X obj 589 279 r RAW_DATA_7;
#X obj 17 392 tgl 15 0 empty permanent_3 empty 17 7 0 10 -262144 -1
-1 1 1;
#X obj 48 435 bng 15 250 50 0 empty empty empty 17 7 0 10 -262144 -1
-1;
#X obj 17 411 sel 0 1;
#X obj 212 461 tgl 15 0 empty permanent_3 empty 17 7 0 10 -262144 -1
-1 1 1;
#X msg 239 499 0;
#X msg 212 517 5000;
#X obj 212 479 sel 0;
#X obj 20 -53 r level_x_3;
#X connect 0 0 1 0;
#X connect 2 0 1 0;
#X connect 3 0 1 0;
#X connect 4 0 2 0;
#X connect 5 0 3 0;
#X connect 6 0 10 0;
#X connect 7 0 11 0;
#X connect 8 0 12 0;
#X connect 9 0 13 0;
#X connect 10 0 1 0;
#X connect 11 0 1 0;
#X connect 12 0 1 0;
#X connect 13 0 1 0;
#X connect 14 0 15 0;
#X connect 16 0 15 1;
#X connect 17 0 1 0;
#X connect 18 0 1 0;
#X connect 20 0 17 0;
#X connect 21 0 18 0;
#X connect 22 0 4 1;
#X connect 23 0 5 1;
#X connect 24 0 6 1;
#X connect 25 0 7 1;
#X connect 26 0 8 1;
#X connect 27 0 9 1;
#X connect 28 0 20 1;
#X connect 29 0 21 1;
#X connect 30 0 32 0;
#X connect 31 0 16 0;
#X connect 32 0 31 0;
#X connect 33 0 4 0;
#X connect 33 0 5 0;
#X connect 33 0 6 0;
#X connect 33 0 7 0;
#X connect 33 0 8 0;
#X connect 33 0 9 0;
#X connect 33 0 20 0;
#X connect 33 0 21 0;
#X connect 33 0 0 0;
#X connect 34 0 71 0;
#X connect 35 0 64 0;
#X connect 36 0 30 0;
#X connect 37 0 63 0;
#X connect 38 0 37 0;
#X connect 38 0 41 0;
#X connect 39 0 37 1;
#X connect 39 0 40 0;
#X connect 41 0 42 0;
#X connect 42 0 35 0;
#X connect 45 0 33 0;
#X connect 46 0 43 0;
#X connect 47 0 81 0;
#X connect 48 0 68 0;
#X connect 49 0 45 1;
#X connect 50 0 1 1;
#X connect 50 0 14 1;
#X connect 52 0 66 0;
#X connect 53 0 68 0;
#X connect 54 0 80 0;
#X connect 55 0 70 0;
#X connect 56 0 45 0;
#X connect 57 0 56 1;
#X connect 58 0 56 0;
#X connect 59 0 60 0;
#X connect 59 0 74 0;
#X connect 59 0 75 0;
#X connect 60 0 54 0;
#X connect 65 0 45 0;
#X connect 68 0 47 0;
#X connect 70 0 69 0;
#X connect 71 0 68 0;
#X connect 72 0 73 0;
#X connect 73 0 44 0;
#X connect 74 0 51 0;
#X connect 75 0 55 0;
#X connect 78 0 48 0;
#X connect 79 0 34 0;
#X connect 80 0 72 0;
#X connect 81 0 46 0;
#X connect 82 0 52 0;
#X connect 83 0 85 0;
#X connect 84 0 48 0;
#X connect 85 0 84 0;
#X connect 85 1 34 0;
#X connect 86 0 89 0;
#X connect 87 0 68 1;
#X connect 88 0 68 1;
#X connect 89 0 88 0;
#X connect 89 1 87 0;
#X connect 90 0 45 0;
#X coords 0 -1 1 1 170 232 2 500 300;
#X restore 410 18 pd sound_1;
#N canvas 4 22 450 300 cpu_load 0;
#X floatatom 80 -106 5 0 0 0 - - -;
#X obj 80 -20 cputime;
#X obj 80 -55 t b b;
#X obj 80 -78 metro 1000;
#X obj 103 4 int;
#X obj 80 27 * 0.1;
#X floatatom 80 51 5 0 0 0 - - -;
#X obj 108 -127 lb;
#X msg 80 -127 1;
#X obj 80 76 outlet;
#X connect 0 0 3 0;
#X connect 1 0 4 0;
#X connect 1 0 5 0;
#X connect 2 0 1 0;
#X connect 2 1 1 1;
#X connect 3 0 2 0;
#X connect 5 0 6 0;
#X connect 6 0 9 0;
#X connect 7 0 8 0;
#X connect 8 0 0 0;
#X restore 22 -102 pd cpu_load;
#X msg 198 -70 \; pd dsp 1;
#X msg 281 -70 \; pd dsp 0;
#X text 223 -32 ON;
#X text 301 -34 OFF;
#X obj 24 -82 nbx 5 50 -1e+37 1e+37 0 0 empty empty empty 0 -8 0 30
-183254 -1 -1 2 256;
#N canvas 104 10 901 790 sound_1 0;
#X obj 98 158 osc~;
#X obj 79 327 dac~;
#X obj 99 216 *~;
#X obj 136 158 osc~;
#X obj 174 158 osc~;
#X obj 136 131 * 1.5;
#X obj 174 131 * 1.33333;
#X obj 241 131 * 1.125;
#X obj 291 131 * 1.77778;
#X obj 353 131 * 1.25;
#X obj 398 131 * 1.6;
#X obj 208 158 osc~;
#X obj 245 158 osc~;
#X obj 284 158 osc~;
#X obj 318 158 osc~;
#X obj 127 240 *~;
#X obj 126 291 *~;
#X obj 155 291 osc~;
#X obj 351 158 osc~;
#X obj 385 158 osc~;
#X text 144 435 RIGHT CHANNEL;
#X obj 437 131 * 1.11;
#X obj 482 131 * 1.09;
#X obj 163 59 vsl 10 57 1 1.5 0 0 empty CH_1A empty 0 -9 0 10 -262144
-1 -1 0 1;
#X obj 225 61 vsl 10 57 1 1.33 0 0 empty CH_2A empty 0 -9 0 10 -262144
-1 -1 0 1;
#X obj 280 63 vsl 10 57 1 1.33 0 0 empty CH_3A empty 0 -9 0 10 -262144
-1 -1 0 1;
#X obj 342 62 vsl 10 57 1 1.778 0 0 empty CH_4A empty 0 -9 0 10 -262144
-1 -1 0 1;
#X obj 386 63 vsl 10 57 1 1.25 0 0 empty CH_5A empty 0 -9 0 10 -262144
-1 -1 0 1;
#X obj 425 64 vsl 10 57 1 1.6 0 0 empty CH_6A empty 0 -9 0 10 -262144
-1 -1 0 1;
#X obj 470 65 vsl 10 57 1 1.11 0 0 empty CH_7A empty 0 -9 0 10 -262144
-1 -1 0 1;
#X obj 515 65 vsl 10 57 1 1.09 0 0 empty CH_8A empty 0 -9 0 10 -262144
-1 -1 0 1;
#X floatatom 192 267 5 0 0 0 - - -;
#X floatatom 155 267 5 0 0 0 - - -;
#X obj 192 291 / 36;
#X floatatom 98 18 5 0 0 0 - - -;
#X obj 107 433 bng 15 250 50 0 empty empty empty 17 7 0 10 -262144
-1 -1;
#X msg 575 -86 100;
#X obj 657 -61 gate 1;
#X obj 630 -59 tgl 15 0 empty empty empty 17 7 0 10 -262144 -1 -1 0
1;
#X obj 690 -89 bng 15 250 50 0 empty empty empty 17 7 0 10 -262144
-1 -1;
#X obj 632 -84 pipe 5;
#X obj 599 -23 sel 0;
#X obj 552 -85 bng 15 250 50 0 empty empty empty 17 7 0 10 -262144
-1 -1;
#X obj 110 626 hsl 128 15 0 0.055 0 0 volume_2 empty empty -2 -8 0
10 -262144 -1 -1 23 1;
#X obj 98 -6 / 3;
#X floatatom 107 604 5 0 0 0 - - -;
#X obj 107 529 line;
#X msg 74 459 0;
#X obj 116 -24 hsl 128 15 1 7 0 0 empty frq_2 empty -2 -8 0 10 -262144
-1 -1 8883 1;
#X obj 505 310 vsl 35 128 0 0.055 0 0 empty volume_2 VOL 7 145 0 14
-262144 -1 -1 23 1;
#X obj 547 310 vsl 35 128 7 1 0 0 frq_2 empty FRQ 6 145 0 14 -262144
-1 -1 3817 1;
#X obj 589 310 vsl 35 128 0 1023 0 0 empty UNIT_2 U_2 5 145 0 14 -13330
-262144 -1 6331 1;
#X floatatom 167 459 5 0 0 0 - - -;
#X obj 507 482 tgl 35 0 permanent_2 empty PERM 2 17 0 14 -262144 -1
-1 0 1;
#X obj 629 310 vsl 35 128 1 33 0 0 %_of_avarage_2 empty % 13 145 0
14 -83269 -262144 -1 1466 1;
#X obj 98 -84 gate 1;
#X obj 98 -107 tgl 15 0 empty permanent_2 empty 17 7 0 10 -262144 -1
-1 0 1;
#X obj 398 509 loadbang;
#X msg 463 509 1;
#X obj 111 -49 nbx 5 14 -1e+37 1e+37 0 0 empty base_FRQ_2 avarage_number
0 -8 0 10 -262144 -1 -1 0 256;
#X floatatom 590 424 5 0 0 0 - - -;
#X obj 107 502 pack f 5000;
#X floatatom 630 425 5 0 0 0 - - -;
#X obj 679 424 int;
#X msg 107 459 0.33;
#X obj 507 571 metro 5000;
#X obj 507 603 bng 15 250 50 0 empty empty empty 17 7 0 10 -262144
-1 -1;
#X msg 463 488 6;
#X msg 463 528 12;
#X obj 131 -109 r RAW_DATA_4;
#X obj 192 239 r RAW_DATA_4;
#X obj 657 -32 s random_2;
#X obj 575 -61 s init_2;
#N canvas 816 233 648 491 random_2 0;
#X floatatom 83 -26 5 0 0 0 - - -;
#X obj 83 4 / 100;
#X floatatom 83 28 5 0 0 0 - - -;
#X obj 83 49 + 1;
#X obj 83 -51 random 50;
#X floatatom 149 -26 5 0 0 0 - - -;
#X obj 149 4 / 100;
#X floatatom 149 28 5 0 0 0 - - -;
#X obj 149 49 + 1;
#X obj 149 -51 random 33;
#X floatatom 217 -26 5 0 0 0 - - -;
#X obj 217 4 / 100;
#X floatatom 217 28 5 0 0 0 - - -;
#X obj 217 49 + 1;
#X floatatom 280 -27 5 0 0 0 - - -;
#X obj 280 3 / 100;
#X floatatom 280 27 5 0 0 0 - - -;
#X floatatom 346 -27 5 0 0 0 - - -;
#X obj 346 3 / 100;
#X floatatom 346 27 5 0 0 0 - - -;
#X obj 346 48 + 1;
#X floatatom 414 -27 5 0 0 0 - - -;
#X obj 414 3 / 100;
#X floatatom 414 27 5 0 0 0 - - -;
#X obj 414 48 + 1;
#X obj 217 -51 random 12;
#X obj 280 -52 random 77;
#X obj 346 -52 random 25;
#X obj 414 -52 random 60;
#X obj 280 49 + 1;
#X floatatom 479 -27 5 0 0 0 - - -;
#X obj 479 3 / 100;
#X floatatom 479 27 5 0 0 0 - - -;
#X obj 479 48 + 1;
#X floatatom 547 -27 5 0 0 0 - - -;
#X obj 547 3 / 100;
#X floatatom 547 27 5 0 0 0 - - -;
#X obj 547 48 + 1;
#X obj 479 -52 random 11;
#X obj 547 -52 random 10;
#X floatatom 955 -69 4 0 0 2 highest_note - -;
#X floatatom 868 -69 4 0 0 2 lowest_note - -;
#X floatatom 1047 -71 4 0 0 2 brown_factor - -;
#X floatatom 783 2 4 0 0 1 note - -;
#X floatatom 939 -4 4 0 0 1 interval - -;
#X obj 783 -70 bng 15 250 50 0 empty empty rhythm_bangs 0 -6 0 8 -262144
-1 -1;
#X floatatom 939 98 5 0 0 0 - - -;
#X obj 939 16 bng 15 250 50 0 empty empty empty 17 7 0 10 -262144 -1
-1;
#X obj 783 86 pipe 100;
#X obj 783 110 s test_r;
#X obj 783 48 mtof;
#X obj 1008 46 s trigger_rand_r;
#X obj 783 -35 brown-melody 44 83 0.7;
#X obj 939 75 brownian 52 77 0.3;
#X obj 964 16 tgl 25 0 ratio_rand empty empty 17 7 0 10 -13381 -262144
-1 0 1;
#X obj 964 46 gate 1;
#X text 1002 26 ON = RATIO RANDOM;
#X obj 83 75 nbx 5 14 -1e+37 1e+37 0 0 CH_1A empty empty 0 -8 0 10
-262144 -1 -1 0 256;
#X obj 149 75 nbx 5 14 -1e+37 1e+37 0 0 CH_2A empty empty 0 -8 0 10
-262144 -1 -1 0 256;
#X obj 217 75 nbx 5 14 -1e+37 1e+37 0 0 CH_3A empty empty 0 -8 0 10
-262144 -1 -1 0 256;
#X obj 280 75 nbx 5 14 -1e+37 1e+37 0 0 CH_4A empty empty 0 -8 0 10
-262144 -1 -1 0 256;
#X obj 346 75 nbx 5 14 -1e+37 1e+37 0 0 CH_5A empty empty 0 -8 0 10
-262144 -1 -1 0 256;
#X obj 414 75 nbx 5 14 -1e+37 1e+37 0 0 CH_6A empty empty 0 -8 0 10
-262144 -1 -1 0 256;
#X obj 479 75 nbx 5 14 -1e+37 1e+37 0 0 CH_7A empty empty 0 -8 0 10
-262144 -1 -1 0 256;
#X obj 547 75 nbx 5 14 -1e+37 1e+37 0 0 CH_8A empty empty 0 -8 0 10
-262144 -1 -1 0 256;
#X obj 83 -94 r random_2;
#X obj 546 -93 r init_2;
#X connect 0 0 1 0;
#X connect 1 0 2 0;
#X connect 2 0 3 0;
#X connect 3 0 57 0;
#X connect 4 0 0 0;
#X connect 5 0 6 0;
#X connect 6 0 7 0;
#X connect 7 0 8 0;
#X connect 8 0 58 0;
#X connect 9 0 5 0;
#X connect 10 0 11 0;
#X connect 11 0 12 0;
#X connect 12 0 13 0;
#X connect 13 0 59 0;
#X connect 14 0 15 0;
#X connect 15 0 16 0;
#X connect 16 0 29 0;
#X connect 17 0 18 0;
#X connect 18 0 19 0;
#X connect 19 0 20 0;
#X connect 20 0 61 0;
#X connect 21 0 22 0;
#X connect 22 0 23 0;
#X connect 23 0 24 0;
#X connect 24 0 62 0;
#X connect 25 0 10 0;
#X connect 26 0 14 0;
#X connect 27 0 17 0;
#X connect 28 0 21 0;
#X connect 29 0 60 0;
#X connect 30 0 31 0;
#X connect 31 0 32 0;
#X connect 32 0 33 0;
#X connect 33 0 63 0;
#X connect 34 0 35 0;
#X connect 35 0 36 0;
#X connect 36 0 37 0;
#X connect 37 0 64 0;
#X connect 38 0 30 0;
#X connect 39 0 34 0;
#X connect 40 0 52 2;
#X connect 41 0 52 1;
#X connect 42 0 52 3;
#X connect 43 0 50 0;
#X connect 44 0 47 0;
#X connect 45 0 52 0;
#X connect 46 0 41 0;
#X connect 47 0 53 0;
#X connect 47 0 55 1;
#X connect 48 0 49 0;
#X connect 50 0 48 0;
#X connect 52 0 43 0;
#X connect 52 1 44 0;
#X connect 53 0 46 0;
#X connect 54 0 55 0;
#X connect 55 0 51 0;
#X connect 65 0 4 0;
#X connect 65 0 9 0;
#X connect 65 0 25 0;
#X connect 65 0 26 0;
#X connect 65 0 27 0;
#X connect 65 0 28 0;
#X connect 65 0 38 0;
#X connect 65 0 39 0;
#X connect 66 0 0 0;
#X connect 66 0 5 0;
#X connect 66 0 10 0;
#X connect 66 0 14 0;
#X connect 66 0 17 0;
#X connect 66 0 21 0;
#X connect 66 0 30 0;
#X connect 66 0 34 0;
#X restore 501 173 pd random_2;
#N canvas 391 41 847 632 avarage_2 0;
#X obj -165 -229 sum;
#X obj -87 -300 gate 1;
#X floatatom -165 -208 5 0 0 0 - - -;
#X obj -87 -258 list prepend;
#X obj -18 -279 t l;
#X obj -87 -231 list length;
#X obj -165 -287 bng 15 250 50 0 empty empty clear 17 7 0 10 -262144
-1 -1;
#X msg -165 -255 0;
#X obj -180 -162 f;
#X obj -102 -190 /;
#X floatatom -47 -207 5 0 0 0 - - -;
#X floatatom -45 -300 5 0 0 0 - - -;
#X obj -87 -328 tgl 15 0 empty empty empty 17 7 0 10 -262144 -1 -1
0 1;
#X obj -130 -328 sel 0;
#X obj -102 -148 nbx 5 14 -1e+37 1e+37 0 0 base_FRQ_2 empty avarage_number
0 -8 0 10 -262144 -1 -1 0 256;
#X msg -130 73 stop;
#X obj -94 73 metro 20;
#X obj -94 97 count 100;
#X obj -94 127 sel 99;
#X obj -35 127 < 99;
#X floatatom -35 155 5 0 0 0 - - -;
#X floatatom 267 -36 5 0 0 0 - - -;
#X obj 267 -2 / 100;
#X obj 267 37 *;
#X obj 339 -61 vsl 15 128 0 55 0 0 empty %_of_avarage_2 empty 0 -9
0 10 -262144 -1 -1 1084 1;
#X floatatom 267 65 5 0 0 0 - - -;
#X obj 339 92 int;
#X floatatom 397 107 5 0 0 0 - - -;
#X obj 108 -214 expr $f4 \; (($f1 > $f2) & ($f1 <= $f3)) \;;
#X floatatom 108 -177 5 0 0 0 - - -;
#X floatatom 165 -288 5 0 0 0 - - -;
#X floatatom 165 -239 5 0 0 0 - - -;
#X floatatom 108 -237 5 0 0 0 - - -;
#X floatatom 222 -239 5 0 0 0 - - -;
#X msg 106 -343 bang;
#X obj 165 -317 f;
#X obj 180 -336 nbx 5 14 -1e+37 1e+37 0 0 empty base_FRQ_2 avarage_number
0 -8 0 10 -262144 -1 -1 0 256;
#X msg 279 -239 1;
#X msg 313 -240 0;
#N canvas 651 49 628 879 example 0;
#X obj -331 50 expr (($f1 > 0) & ($f1 <= 3)) \;;
#X floatatom -331 74 5 0 0 0 - - -;
#X floatatom -331 13 5 0 0 0 - - -;
#X text -334 93 between statics numbers;
#X text -335 -73 All expressions created for Biosensoring project 2011
by M.hug;
#X floatatom -230 125 5 0 0 0 - - -;
#X floatatom -230 174 5 0 0 0 - - -;
#X obj -330 195 expr (($f1 > $f2) & ($f1 <= $f3)) \;;
#X floatatom -330 173 5 0 0 0 - - -;
#X floatatom -129 174 5 0 0 0 - - -;
#X obj -129 153 + 5;
#X obj -230 153 - 5;
#X text -333 240 between dynamic numbers;
#X obj -329 428 expr $f4 \; (($f1 > $f2) & ($f1 <= $f3)) \;;
#X floatatom -329 464 5 0 0 0 - - -;
#X floatatom -158 465 5 0 0 0 - - -;
#X floatatom -272 355 5 0 0 0 - - -;
#X floatatom -272 404 5 0 0 0 - - -;
#X floatatom -329 405 5 0 0 0 - - -;
#X floatatom -215 404 5 0 0 0 - - -;
#X obj -215 383 + 5;
#X obj -272 383 - 5;
#X msg -310 302 bang;
#X obj -272 326 f;
#X msg -158 402 1;
#X msg -127 402 0;
#X floatatom -257 306 5 0 0 0 - - -;
#X text -334 489 between dynamic numbers in contition of $f4;
#X text -161 384 if true the function is evaluated;
#X floatatom -330 220 5 0 0 0 - - -;
#X connect 0 0 1 0;
#X connect 2 0 0 0;
#X connect 5 0 10 0;
#X connect 5 0 11 0;
#X connect 6 0 7 1;
#X connect 7 0 29 0;
#X connect 8 0 7 0;
#X connect 9 0 7 2;
#X connect 10 0 9 0;
#X connect 11 0 6 0;
#X connect 13 0 14 0;
#X connect 13 1 15 0;
#X connect 16 0 20 0;
#X connect 16 0 21 0;
#X connect 17 0 13 1;
#X connect 18 0 13 0;
#X connect 19 0 13 2;
#X connect 20 0 19 0;
#X connect 21 0 17 0;
#X connect 22 0 23 0;
#X connect 23 0 16 0;
#X connect 24 0 13 3;
#X connect 25 0 13 3;
#X connect 26 0 23 1;
#X restore 51 -65 pd example expressions;
#X obj -176 -46 metro 300;
#X obj -94 -46 counter;
#X floatatom -94 -20 5 0 0 0 - - -;
#X obj -176 -84 tgl 35 0 empty Ev_timer_2 empty 17 7 0 10 -13330 -258113
-262144 0 1;
#X floatatom -34 -82 5 0 0 0 - - -;
#X msg -65 -82 0;
#X obj -106 -81 sel 0;
#X obj -94 1 sel 11;
#X obj -61 24 bng 15 250 50 0 empty empty empty 17 7 0 10 -262144 -1
-1;
#X obj -94 25 bng 15 250 50 0 empty empty empty 17 7 0 10 -262144 -1
-1;
#X text 303 -179 result;
#X text 145 -173 On/Off;
#X obj 279 -178 tgl 15 0 Ev_timer_3 empty empty 17 7 0 10 -262144 -1
-1 1 1;
#X obj 279 -156 sel 1;
#X msg -107 -108 300;
#X obj 65 -177 sel 1;
#X obj -17 35 bng 15 250 50 0 empty avarage_3 empty 17 7 0 10 -262144
-1 -1;
#X obj 165 -260 - 55;
#X obj 222 -260 + 55;
#X obj 81 91 moses;
#X obj 267 -78 nbx 5 14 -1e+37 1e+37 0 0 empty base_FRQ_2 avarage_number
0 -8 0 10 -262144 -1 -1 0 256;
#X floatatom 108 155 5 0 0 0 - - -;
#X obj 108 68 +;
#X floatatom 140 67 5 0 0 0 - - -;
#X obj 196 127 moses;
#X floatatom 223 157 5 0 0 0 - - -;
#X obj 223 95 +;
#X obj 382 45 t b;
#X obj -87 -356 r reset_2;
#X obj -54 -330 r RAW_DATA_4;
#X obj 279 -270 r reset_2;
#X obj -35 191 s reset_2;
#X obj 81 37 r RAW_DATA_4;
#X obj 108 234 s level_x_2;
#X connect 0 0 2 0;
#X connect 1 0 3 0;
#X connect 2 0 8 1;
#X connect 3 0 0 0;
#X connect 3 0 5 0;
#X connect 3 0 4 0;
#X connect 4 0 3 1;
#X connect 5 0 9 1;
#X connect 5 0 10 0;
#X connect 6 0 3 1;
#X connect 6 0 7 0;
#X connect 7 0 0 0;
#X connect 8 0 9 0;
#X connect 9 0 14 0;
#X connect 12 0 1 0;
#X connect 12 0 13 0;
#X connect 13 0 8 0;
#X connect 13 0 6 0;
#X connect 15 0 16 0;
#X connect 16 0 17 0;
#X connect 17 0 18 0;
#X connect 17 0 19 0;
#X connect 18 0 15 0;
#X connect 19 0 20 0;
#X connect 20 0 71 0;
#X connect 21 0 22 0;
#X connect 22 0 23 0;
#X connect 23 0 25 0;
#X connect 24 0 26 0;
#X connect 25 0 62 1;
#X connect 25 0 66 1;
#X connect 26 0 23 1;
#X connect 26 0 27 0;
#X connect 27 0 67 0;
#X connect 28 0 29 0;
#X connect 28 0 55 0;
#X connect 28 1 52 0;
#X connect 30 0 57 0;
#X connect 30 0 58 0;
#X connect 31 0 28 1;
#X connect 32 0 28 0;
#X connect 33 0 28 2;
#X connect 34 0 35 0;
#X connect 35 0 30 0;
#X connect 36 0 35 1;
#X connect 37 0 28 3;
#X connect 38 0 28 3;
#X connect 40 0 41 0;
#X connect 41 0 42 0;
#X connect 42 0 47 0;
#X connect 43 0 40 0;
#X connect 43 0 46 0;
#X connect 44 0 41 4;
#X connect 45 0 41 3;
#X connect 46 0 45 0;
#X connect 47 0 49 0;
#X connect 47 1 48 0;
#X connect 49 0 43 0;
#X connect 49 0 16 0;
#X connect 52 0 53 0;
#X connect 53 0 38 0;
#X connect 54 0 40 1;
#X connect 55 0 34 0;
#X connect 56 0 16 0;
#X connect 57 0 31 0;
#X connect 58 0 33 0;
#X connect 59 1 61 0;
#X connect 60 0 21 0;
#X connect 60 0 62 0;
#X connect 61 0 73 0;
#X connect 62 0 63 0;
#X connect 62 0 59 1;
#X connect 63 0 66 0;
#X connect 64 1 65 0;
#X connect 65 0 73 0;
#X connect 66 0 64 1;
#X connect 67 0 60 0;
#X connect 68 0 12 0;
#X connect 69 0 1 1;
#X connect 69 0 11 0;
#X connect 69 0 32 0;
#X connect 70 0 37 0;
#X connect 72 0 59 0;
#X connect 72 0 64 0;
#X restore 501 197 pd avarage_2;
#N canvas 88 225 776 550 recognize 0;
#X obj 40 311 tgl 15 0 empty empty empty 17 7 0 10 -262144 -1 -1 1
1;
#X obj 40 142 gate 2;
#X obj 40 113 + 1;
#X obj 40 84 tgl 15 0 empty empty empty 17 7 0 10 -262144 -1 -1 0 1
;
#X floatatom 126 145 5 0 0 0 - - -;
#X obj 73 121 f;
#X obj 15 109 bng 15 250 50 0 empty empty empty 17 7 0 10 -262144 -1
-1;
#X obj 40 344 sel 0 1;
#X floatatom 140 183 5 0 0 0 - - -;
#X floatatom 140 232 5 0 0 0 - - -;
#X floatatom 40 231 5 0 0 0 - - -;
#X floatatom 241 232 5 0 0 0 - - -;
#X floatatom 40 278 5 0 0 0 - - -;
#X obj 40 253 expr (($f1 > $f2) & ($f1 < $f3)) \;;
#X obj 140 211 - 1;
#X obj 241 211 + 1;
#X obj 88 97 r RAW_DATA_4;
#X obj 40 10 tgl 15 0 empty permanent_2 empty 17 7 0 10 -262144 -1
-1 0 1;
#X obj 40 30 == 0;
#X obj 40 427 s start_sound_2;
#X obj 161 427 s stop_sound_2;
#X obj 40 56 metro 250;
#X connect 0 0 7 0;
#X connect 1 0 10 0;
#X connect 1 1 8 0;
#X connect 2 0 1 0;
#X connect 3 0 2 0;
#X connect 3 0 6 0;
#X connect 5 0 1 1;
#X connect 6 0 5 0;
#X connect 7 0 19 0;
#X connect 7 1 20 0;
#X connect 8 0 14 0;
#X connect 8 0 15 0;
#X connect 9 0 13 1;
#X connect 10 0 13 0;
#X connect 11 0 13 2;
#X connect 12 0 0 0;
#X connect 13 0 12 0;
#X connect 14 0 9 0;
#X connect 15 0 11 0;
#X connect 16 0 4 0;
#X connect 16 0 5 1;
#X connect 17 0 18 0;
#X connect 18 0 21 0;
#X connect 21 0 3 0;
#X restore 500 221 pd recognize UNIT_2;
#X text 112 328 right CH;
#X obj 595 481 bng 35 250 50 0 avarage_3 empty scan 3 17 0 10 -262130
-258113 -1;
#N canvas 98 489 731 467 sim_1 0;
#X obj 100 231 between;
#X msg 119 111 444;
#X msg 155 111 466;
#X floatatom 100 254 5 0 0 0 - - -;
#X obj 101 47 tgl 35 0 empty empty test_2 3 17 0 9 -258113 -262144
-262144 0 1;
#X obj 185 49 sel 0 1;
#X obj 137 146 hsl 128 15 0 50 0 0 empty empty empty -2 -8 0 10 -262144
-1 -1 0 1;
#X obj 173 165 hsl 128 15 0 50 0 0 empty empty empty -2 -8 0 10 -262144
-1 -1 0 1;
#X obj 170 184 int;
#X obj 134 184 int;
#X floatatom 194 213 5 0 0 0 - - -;
#X floatatom 194 232 5 0 0 0 - - -;
#X floatatom 46 236 5 0 0 0 - - -;
#X obj 119 209 +;
#X obj 155 209 -;
#X floatatom 217 267 5 0 0 0 - - -;
#X obj 100 88 metro 250;
#X obj 747 228 s stop_sound _3;
#X obj 747 205 sel 0 1;
#X obj 766 252 s start_sound _3;
#X obj 185 72 s stop_sound_2;
#X obj 204 96 s start_sound_2;
#X obj 204 118 loadbang;
#X obj 100 277 s RAW_DATA_4;
#X connect 0 0 3 0;
#X connect 1 0 13 0;
#X connect 2 0 14 0;
#X connect 3 0 23 0;
#X connect 4 0 16 0;
#X connect 4 0 5 0;
#X connect 5 0 20 0;
#X connect 5 1 21 0;
#X connect 6 0 9 0;
#X connect 7 0 8 0;
#X connect 8 0 10 0;
#X connect 8 0 14 1;
#X connect 9 0 11 0;
#X connect 9 0 13 1;
#X connect 13 0 0 1;
#X connect 13 0 12 0;
#X connect 14 0 0 2;
#X connect 14 0 15 0;
#X connect 16 0 0 0;
#X connect 18 0 17 0;
#X connect 18 1 19 0;
#X connect 22 0 2 0;
#X connect 22 0 1 0;
#X coords 0 -1 1 1 36 36 2 100 47;
#X restore 551 481 pd sim_1;
#X obj 74 391 r stop_sound_2;
#X obj 107 413 r start_sound_2;
#X obj 507 541 == 0;
#X obj 107 550 / 12;
#X obj 589 279 r RAW_DATA_4;
#X obj 13 390 tgl 15 0 empty permanent_2 empty 17 7 0 10 -262144 -1
-1 0 1;
#X obj 44 433 bng 15 250 50 0 empty empty empty 17 7 0 10 -262144 -1
-1;
#X obj 13 409 sel 0 1;
#X obj 208 458 tgl 15 0 empty permanent_2 empty 17 7 0 10 -262144 -1
-1 0 1;
#X msg 235 496 0;
#X msg 208 514 5000;
#X obj 208 476 sel 0;
#X obj 9 -50 r level_x_2;
#X connect 0 0 2 0;
#X connect 2 0 1 1;
#X connect 3 0 2 0;
#X connect 4 0 2 0;
#X connect 5 0 3 0;
#X connect 6 0 4 0;
#X connect 7 0 11 0;
#X connect 8 0 12 0;
#X connect 9 0 13 0;
#X connect 10 0 14 0;
#X connect 11 0 2 0;
#X connect 12 0 2 0;
#X connect 13 0 2 0;
#X connect 14 0 2 0;
#X connect 15 0 16 0;
#X connect 16 0 1 1;
#X connect 17 0 16 1;
#X connect 18 0 2 0;
#X connect 19 0 2 0;
#X connect 21 0 18 0;
#X connect 22 0 19 0;
#X connect 23 0 5 1;
#X connect 24 0 6 1;
#X connect 25 0 7 1;
#X connect 26 0 8 1;
#X connect 27 0 9 1;
#X connect 28 0 10 1;
#X connect 29 0 21 1;
#X connect 30 0 22 1;
#X connect 31 0 33 0;
#X connect 32 0 17 0;
#X connect 33 0 32 0;
#X connect 34 0 5 0;
#X connect 34 0 6 0;
#X connect 34 0 7 0;
#X connect 34 0 8 0;
#X connect 34 0 9 0;
#X connect 34 0 10 0;
#X connect 34 0 21 0;
#X connect 34 0 22 0;
#X connect 34 0 0 0;
#X connect 35 0 64 0;
#X connect 36 0 72 0;
#X connect 37 0 71 0;
#X connect 38 0 37 0;
#X connect 38 0 41 0;
#X connect 39 0 37 1;
#X connect 39 0 40 0;
#X connect 41 0 42 0;
#X connect 42 0 36 0;
#X connect 44 0 34 0;
#X connect 45 0 43 0;
#X connect 46 0 82 0;
#X connect 47 0 61 0;
#X connect 48 0 44 1;
#X connect 49 0 2 1;
#X connect 49 0 15 1;
#X connect 51 0 60 0;
#X connect 52 0 61 0;
#X connect 53 0 81 0;
#X connect 54 0 63 0;
#X connect 55 0 44 0;
#X connect 56 0 55 0;
#X connect 57 0 58 0;
#X connect 57 0 67 0;
#X connect 57 0 68 0;
#X connect 58 0 53 0;
#X connect 59 0 44 0;
#X connect 61 0 46 0;
#X connect 63 0 62 0;
#X connect 64 0 61 0;
#X connect 65 0 66 0;
#X connect 66 0 77 0;
#X connect 67 0 50 0;
#X connect 68 0 54 0;
#X connect 69 0 55 1;
#X connect 70 0 31 0;
#X connect 79 0 47 0;
#X connect 80 0 35 0;
#X connect 81 0 65 0;
#X connect 82 0 45 0;
#X connect 83 0 51 0;
#X connect 84 0 86 0;
#X connect 85 0 47 0;
#X connect 86 0 85 0;
#X connect 86 1 35 0;
#X connect 87 0 90 0;
#X connect 88 0 61 1;
#X connect 89 0 61 1;
#X connect 90 0 89 0;
#X connect 90 1 88 0;
#X connect 91 0 44 0;
#X coords 0 -1 1 1 170 232 2 500 300;
#X restore 219 19 pd sound_1;
#N canvas 329 200 827 792 sound_1 0;
#X obj 98 158 osc~;
#X obj 99 327 dac~;
#X obj 99 216 *~;
#X obj 136 158 osc~;
#X obj 174 158 osc~;
#X obj 136 131 * 1.5;
#X obj 174 131 * 1.33333;
#X obj 241 131 * 1.125;
#X obj 291 131 * 1.77778;
#X obj 353 131 * 1.25;
#X obj 398 131 * 1.6;
#X obj 208 158 osc~;
#X obj 245 158 osc~;
#X obj 284 158 osc~;
#X obj 318 158 osc~;
#X obj 127 240 *~;
#X obj 126 291 *~;
#X obj 155 291 osc~;
#X obj 351 158 osc~;
#X obj 385 158 osc~;
#X obj 437 131 * 1.11;
#X obj 482 131 * 1.09;
#X obj 163 59 vsl 10 57 1 1.5 0 0 empty CH_1A empty 0 -9 0 10 -262144
-1 -1 0 1;
#X obj 225 61 vsl 10 57 1 1.33 0 0 empty CH_2A empty 0 -9 0 10 -262144
-1 -1 0 1;
#X obj 280 63 vsl 10 57 1 1.33 0 0 empty CH_3A empty 0 -9 0 10 -262144
-1 -1 0 1;
#X obj 342 62 vsl 10 57 1 1.778 0 0 empty CH_4A empty 0 -9 0 10 -262144
-1 -1 0 1;
#X obj 386 63 vsl 10 57 1 1.25 0 0 empty CH_5A empty 0 -9 0 10 -262144
-1 -1 0 1;
#X obj 425 64 vsl 10 57 1 1.6 0 0 empty CH_6A empty 0 -9 0 10 -262144
-1 -1 0 1;
#X obj 470 65 vsl 10 57 1 1.11 0 0 empty CH_7A empty 0 -9 0 10 -262144
-1 -1 0 1;
#X obj 515 65 vsl 10 57 1 1.09 0 0 empty CH_8A empty 0 -9 0 10 -262144
-1 -1 0 1;
#X floatatom 192 267 5 0 0 0 - - -;
#X floatatom 155 267 5 0 0 0 - - -;
#X obj 192 291 / 36;
#X floatatom 98 18 5 0 0 0 - - -;
#X obj 107 433 bng 15 250 50 0 empty empty empty 17 7 0 10 -262144
-1 -1;
#X msg 575 -86 100;
#X obj 657 -61 gate 1;
#X obj 630 -59 tgl 15 0 empty empty empty 17 7 0 10 -262144 -1 -1 0
1;
#X obj 690 -89 bng 15 250 50 0 empty empty empty 17 7 0 10 -262144
-1 -1;
#X obj 632 -84 pipe 5;
#X obj 599 -23 sel 0;
#X obj 552 -85 bng 15 250 50 0 empty empty empty 17 7 0 10 -262144
-1 -1;
#X obj 110 626 hsl 128 15 0 0.055 0 0 volume_1 empty empty -2 -8 0
10 -262144 -1 -1 6335 1;
#X obj 595 481 bng 35 250 50 0 avarage_1 empty scan 3 17 0 10 -262130
-258113 -1;
#X obj 98 -6 / 3;
#X floatatom 107 604 5 0 0 0 - - -;
#X obj 107 529 line;
#X msg 74 459 0;
#X obj 116 -24 hsl 128 15 1 7 0 0 empty frq_1 empty -2 -8 0 10 -262144
-1 -1 10583 1;
#X obj 505 310 vsl 35 128 0 0.055 0 0 empty volume_1 VOL 7 145 0 14
-262144 -1 -1 6335 1;
#X obj 547 310 vsl 35 128 7 1 0 0 frq_1 empty FRQ 6 145 0 14 -262144
-1 -1 2117 1;
#X obj 589 310 vsl 35 128 0 1023 0 0 empty UNIT_1 U_1 5 145 0 14 -13330
-262144 -1 2036 1;
#X floatatom 167 459 5 0 0 0 - - -;
#X obj 507 482 tgl 35 0 permanent_1 empty PERM 2 17 0 14 -262144 -1
-1 0 1;
#X obj 629 310 vsl 35 128 1 33 0 0 %_of_avarage_1 empty % 13 145 0
14 -83269 -262144 -1 4366 1;
#X obj 98 -84 gate 1;
#X obj 98 -107 tgl 15 0 empty permanent_1 empty 17 7 0 10 -262144 -1
-1 0 1;
#X obj 398 509 loadbang;
#X msg 463 509 1;
#X obj 111 -49 nbx 5 14 -1e+37 1e+37 0 0 empty base_FRQ_1 avarage_number
0 -8 0 10 -262144 -1 -1 395 256;
#X floatatom 590 424 5 0 0 0 - - -;
#X obj 107 502 pack f 5000;
#X floatatom 630 425 5 0 0 0 - - -;
#X obj 679 424 int;
#X msg 107 459 0.33;
#X obj 507 571 metro 5000;
#X obj 507 603 bng 15 250 50 0 empty empty empty 17 7 0 10 -262144
-1 -1;
#X msg 463 488 6;
#X msg 463 528 12;
#N canvas 816 233 648 491 random_2 0;
#X floatatom 83 -26 5 0 0 0 - - -;
#X obj 83 4 / 100;
#X floatatom 83 28 5 0 0 0 - - -;
#X obj 83 49 + 1;
#X obj 83 -51 random 50;
#X floatatom 149 -26 5 0 0 0 - - -;
#X obj 149 4 / 100;
#X floatatom 149 28 5 0 0 0 - - -;
#X obj 149 49 + 1;
#X obj 149 -51 random 33;
#X floatatom 217 -26 5 0 0 0 - - -;
#X obj 217 4 / 100;
#X floatatom 217 28 5 0 0 0 - - -;
#X obj 217 49 + 1;
#X floatatom 280 -27 5 0 0 0 - - -;
#X obj 280 3 / 100;
#X floatatom 280 27 5 0 0 0 - - -;
#X floatatom 346 -27 5 0 0 0 - - -;
#X obj 346 3 / 100;
#X floatatom 346 27 5 0 0 0 - - -;
#X obj 346 48 + 1;
#X floatatom 414 -27 5 0 0 0 - - -;
#X obj 414 3 / 100;
#X floatatom 414 27 5 0 0 0 - - -;
#X obj 414 48 + 1;
#X obj 217 -51 random 12;
#X obj 280 -52 random 77;
#X obj 346 -52 random 25;
#X obj 414 -52 random 60;
#X obj 280 49 + 1;
#X floatatom 479 -27 5 0 0 0 - - -;
#X obj 479 3 / 100;
#X floatatom 479 27 5 0 0 0 - - -;
#X obj 479 48 + 1;
#X floatatom 547 -27 5 0 0 0 - - -;
#X obj 547 3 / 100;
#X floatatom 547 27 5 0 0 0 - - -;
#X obj 547 48 + 1;
#X obj 479 -52 random 11;
#X obj 547 -52 random 10;
#X floatatom 955 -69 4 0 0 2 highest_note - -;
#X floatatom 868 -69 4 0 0 2 lowest_note - -;
#X floatatom 1047 -71 4 0 0 2 brown_factor - -;
#X floatatom 783 2 4 0 0 1 note - -;
#X floatatom 939 -4 4 0 0 1 interval - -;
#X obj 783 -70 bng 15 250 50 0 empty empty rhythm_bangs 0 -6 0 8 -262144
-1 -1;
#X floatatom 939 98 5 0 0 0 - - -;
#X obj 939 16 bng 15 250 50 0 empty empty empty 17 7 0 10 -262144 -1
-1;
#X obj 783 86 pipe 100;
#X obj 783 110 s test_r;
#X obj 783 48 mtof;
#X obj 1008 46 s trigger_rand_r;
#X obj 783 -35 brown-melody 44 83 0.7;
#X obj 939 75 brownian 52 77 0.3;
#X obj 964 16 tgl 25 0 ratio_rand empty empty 17 7 0 10 -13381 -262144
-1 0 1;
#X obj 964 46 gate 1;
#X text 1002 26 ON = RATIO RANDOM;
#X obj 83 75 nbx 5 14 -1e+37 1e+37 0 0 CH_1A empty empty 0 -8 0 10
-262144 -1 -1 0 256;
#X obj 149 75 nbx 5 14 -1e+37 1e+37 0 0 CH_2A empty empty 0 -8 0 10
-262144 -1 -1 0 256;
#X obj 217 75 nbx 5 14 -1e+37 1e+37 0 0 CH_3A empty empty 0 -8 0 10
-262144 -1 -1 0 256;
#X obj 280 75 nbx 5 14 -1e+37 1e+37 0 0 CH_4A empty empty 0 -8 0 10
-262144 -1 -1 0 256;
#X obj 346 75 nbx 5 14 -1e+37 1e+37 0 0 CH_5A empty empty 0 -8 0 10
-262144 -1 -1 0 256;
#X obj 414 75 nbx 5 14 -1e+37 1e+37 0 0 CH_6A empty empty 0 -8 0 10
-262144 -1 -1 0 256;
#X obj 479 75 nbx 5 14 -1e+37 1e+37 0 0 CH_7A empty empty 0 -8 0 10
-262144 -1 -1 0 256;
#X obj 547 75 nbx 5 14 -1e+37 1e+37 0 0 CH_8A empty empty 0 -8 0 10
-262144 -1 -1 0 256;
#X obj 83 -94 r random_1;
#X obj 546 -93 r init_1;
#X connect 0 0 1 0;
#X connect 1 0 2 0;
#X connect 2 0 3 0;
#X connect 3 0 57 0;
#X connect 4 0 0 0;
#X connect 5 0 6 0;
#X connect 6 0 7 0;
#X connect 7 0 8 0;
#X connect 8 0 58 0;
#X connect 9 0 5 0;
#X connect 10 0 11 0;
#X connect 11 0 12 0;
#X connect 12 0 13 0;
#X connect 13 0 59 0;
#X connect 14 0 15 0;
#X connect 15 0 16 0;
#X connect 16 0 29 0;
#X connect 17 0 18 0;
#X connect 18 0 19 0;
#X connect 19 0 20 0;
#X connect 20 0 61 0;
#X connect 21 0 22 0;
#X connect 22 0 23 0;
#X connect 23 0 24 0;
#X connect 24 0 62 0;
#X connect 25 0 10 0;
#X connect 26 0 14 0;
#X connect 27 0 17 0;
#X connect 28 0 21 0;
#X connect 29 0 60 0;
#X connect 30 0 31 0;
#X connect 31 0 32 0;
#X connect 32 0 33 0;
#X connect 33 0 63 0;
#X connect 34 0 35 0;
#X connect 35 0 36 0;
#X connect 36 0 37 0;
#X connect 37 0 64 0;
#X connect 38 0 30 0;
#X connect 39 0 34 0;
#X connect 40 0 52 2;
#X connect 41 0 52 1;
#X connect 42 0 52 3;
#X connect 43 0 50 0;
#X connect 44 0 47 0;
#X connect 45 0 52 0;
#X connect 46 0 41 0;
#X connect 47 0 53 0;
#X connect 47 0 55 1;
#X connect 48 0 49 0;
#X connect 50 0 48 0;
#X connect 52 0 43 0;
#X connect 52 1 44 0;
#X connect 53 0 46 0;
#X connect 54 0 55 0;
#X connect 55 0 51 0;
#X connect 65 0 4 0;
#X connect 65 0 9 0;
#X connect 65 0 25 0;
#X connect 65 0 26 0;
#X connect 65 0 27 0;
#X connect 65 0 28 0;
#X connect 65 0 38 0;
#X connect 65 0 39 0;
#X connect 66 0 0 0;
#X connect 66 0 5 0;
#X connect 66 0 10 0;
#X connect 66 0 14 0;
#X connect 66 0 17 0;
#X connect 66 0 21 0;
#X connect 66 0 30 0;
#X connect 66 0 34 0;
#X restore 499 182 pd random_2;
#N canvas 448 336 776 550 recognize 0;
#X obj 40 319 tgl 15 0 empty empty empty 17 7 0 10 -262144 -1 -1 0
1;
#X obj 40 142 gate 2;
#X obj 40 113 + 1;
#X obj 40 84 tgl 15 0 empty empty empty 17 7 0 10 -262144 -1 -1 1 1
;
#X floatatom 126 145 5 0 0 0 - - -;
#X obj 73 121 f;
#X obj 15 109 bng 15 250 50 0 empty empty empty 17 7 0 10 -262144 -1
-1;
#X obj 40 344 sel 0 1;
#X floatatom 140 183 5 0 0 0 - - -;
#X floatatom 140 232 5 0 0 0 - - -;
#X floatatom 40 231 5 0 0 0 - - -;
#X floatatom 241 232 5 0 0 0 - - -;
#X floatatom 40 278 5 0 0 0 - - -;
#X obj 40 253 expr (($f1 > $f2) & ($f1 < $f3)) \;;
#X obj 40 56 metro 100;
#X obj 140 211 - 1;
#X obj 241 211 + 1;
#X obj 88 97 r RAW_DATA_1;
#X obj 40 15 tgl 15 0 empty permanent_1 empty 17 7 0 10 -262144 -1
-1 0 1;
#X obj 40 35 == 0;
#X obj 40 427 s start_sound_1;
#X obj 161 427 s stop_sound_1;
#X connect 0 0 7 0;
#X connect 1 0 10 0;
#X connect 1 1 8 0;
#X connect 2 0 1 0;
#X connect 3 0 2 0;
#X connect 3 0 6 0;
#X connect 5 0 1 1;
#X connect 6 0 5 0;
#X connect 7 0 20 0;
#X connect 7 1 21 0;
#X connect 8 0 15 0;
#X connect 8 0 16 0;
#X connect 9 0 13 1;
#X connect 10 0 13 0;
#X connect 11 0 13 2;
#X connect 12 0 0 0;
#X connect 13 0 12 0;
#X connect 14 0 3 0;
#X connect 15 0 9 0;
#X connect 16 0 11 0;
#X connect 17 0 4 0;
#X connect 17 0 5 1;
#X connect 18 0 19 0;
#X connect 19 0 14 0;
#X restore 499 228 pd recognize UNIT_1;
#X obj 131 -109 r RAW_DATA_1;
#X obj 575 -61 s init_1;
#X obj 657 -32 s random_1;
#X text 132 328 left CH;
#X text 144 435 LEFT CHANNEL;
#X obj 192 239 r RAW_DATA_1;
#N canvas 30 401 731 467 sim_1 0;
#X obj 100 231 between;
#X floatatom 100 254 5 0 0 0 - - -;
#X obj 101 47 tgl 35 0 empty empty test_1 3 17 0 9 -258113 -262144
-262144 0 1;
#X obj 185 49 sel 0 1;
#X obj 137 146 hsl 128 15 0 50 0 0 empty empty empty -2 -8 0 10 -262144
-1 -1 0 1;
#X obj 173 165 hsl 128 15 0 50 0 0 empty empty empty -2 -8 0 10 -262144
-1 -1 0 1;
#X obj 170 184 int;
#X obj 134 184 int;
#X floatatom 194 213 5 0 0 0 - - -;
#X floatatom 194 232 5 0 0 0 - - -;
#X floatatom 46 236 5 0 0 0 - - -;
#X obj 119 209 +;
#X obj 155 209 -;
#X floatatom 217 267 5 0 0 0 - - -;
#X obj 100 88 metro 250;
#X obj 747 228 s stop_sound _3;
#X obj 747 205 sel 0 1;
#X obj 766 252 s start_sound _3;
#X obj 185 72 s stop_sound_1;
#X obj 204 96 s start_sound_1;
#X obj 100 277 s RAW_DATA_1;
#X obj 204 120 loadbang;
#X msg 119 111 455;
#X msg 155 111 486;
#X connect 0 0 1 0;
#X connect 1 0 20 0;
#X connect 2 0 14 0;
#X connect 2 0 3 0;
#X connect 3 0 18 0;
#X connect 3 1 19 0;
#X connect 4 0 7 0;
#X connect 5 0 6 0;
#X connect 6 0 8 0;
#X connect 6 0 12 1;
#X connect 7 0 9 0;
#X connect 7 0 11 1;
#X connect 11 0 0 1;
#X connect 11 0 10 0;
#X connect 12 0 0 2;
#X connect 12 0 13 0;
#X connect 14 0 0 0;
#X connect 16 0 15 0;
#X connect 16 1 17 0;
#X connect 21 0 23 0;
#X connect 21 0 22 0;
#X connect 22 0 11 0;
#X connect 23 0 12 0;
#X coords 0 -1 1 1 36 36 2 100 47;
#X restore 550 481 pd sim_1;
#X obj 74 391 r stop_sound_1;
#X obj 107 413 r start_sound_1;
#X obj 507 539 == 0;
#X obj 107 550 / 12;
#X obj 589 278 r RAW_DATA_1;
#N canvas 285 216 847 632 avarage_1 0;
#X obj -165 -229 sum;
#X obj -87 -300 gate 1;
#X floatatom -165 -208 5 0 0 0 - - -;
#X obj -87 -258 list prepend;
#X obj -18 -279 t l;
#X obj -87 -231 list length;
#X obj -165 -287 bng 15 250 50 0 empty empty clear 17 7 0 10 -262144
-1 -1;
#X msg -165 -255 0;
#X obj -180 -162 f;
#X obj -102 -190 /;
#X floatatom -47 -207 5 0 0 0 - - -;
#X floatatom -45 -300 5 0 0 0 - - -;
#X obj -87 -328 tgl 15 0 empty empty empty 17 7 0 10 -262144 -1 -1
1 1;
#X obj -130 -328 sel 0;
#X obj -102 -148 nbx 5 14 -1e+37 1e+37 0 0 base_FRQ_1 empty avarage_number
0 -8 0 10 -262144 -1 -1 395 256;
#X msg -130 73 stop;
#X obj -94 73 metro 20;
#X obj -94 97 count 100;
#X obj -94 127 sel 99;
#X obj -35 127 < 99;
#X floatatom -35 155 5 0 0 0 - - -;
#X floatatom 267 -36 5 0 0 0 - - -;
#X obj 267 -2 / 100;
#X obj 267 37 *;
#X obj 339 -61 vsl 15 128 0 55 0 0 empty %_of_avarage_1 empty 0 -9
0 10 -262144 -1 -1 2771 1;
#X floatatom 267 65 5 0 0 0 - - -;
#X obj 339 92 int;
#X floatatom 397 107 5 0 0 0 - - -;
#X obj 108 -214 expr $f4 \; (($f1 > $f2) & ($f1 <= $f3)) \;;
#X floatatom 108 -177 5 0 0 0 - - -;
#X floatatom 165 -288 5 0 0 0 - - -;
#X floatatom 165 -239 5 0 0 0 - - -;
#X floatatom 108 -237 5 0 0 0 - - -;
#X floatatom 222 -239 5 0 0 0 - - -;
#X msg 106 -343 bang;
#X obj 165 -317 f;
#X obj 180 -336 nbx 5 14 -1e+37 1e+37 0 0 empty base_FRQ_1 avarage_number
0 -8 0 10 -262144 -1 -1 395 256;
#X msg 279 -239 1;
#X msg 313 -240 0;
#N canvas 651 49 628 879 example 0;
#X obj -331 50 expr (($f1 > 0) & ($f1 <= 3)) \;;
#X floatatom -331 74 5 0 0 0 - - -;
#X floatatom -331 13 5 0 0 0 - - -;
#X text -334 93 between statics numbers;
#X text -335 -73 All expressions created for Biosensoring project 2011
by M.hug;
#X floatatom -230 125 5 0 0 0 - - -;
#X floatatom -230 174 5 0 0 0 - - -;
#X obj -330 195 expr (($f1 > $f2) & ($f1 <= $f3)) \;;
#X floatatom -330 173 5 0 0 0 - - -;
#X floatatom -129 174 5 0 0 0 - - -;
#X obj -129 153 + 5;
#X obj -230 153 - 5;
#X text -333 240 between dynamic numbers;
#X obj -329 428 expr $f4 \; (($f1 > $f2) & ($f1 <= $f3)) \;;
#X floatatom -329 464 5 0 0 0 - - -;
#X floatatom -158 465 5 0 0 0 - - -;
#X floatatom -272 355 5 0 0 0 - - -;
#X floatatom -272 404 5 0 0 0 - - -;
#X floatatom -329 405 5 0 0 0 - - -;
#X floatatom -215 404 5 0 0 0 - - -;
#X obj -215 383 + 5;
#X obj -272 383 - 5;
#X msg -310 302 bang;
#X obj -272 326 f;
#X msg -158 402 1;
#X msg -127 402 0;
#X floatatom -257 306 5 0 0 0 - - -;
#X text -334 489 between dynamic numbers in contition of $f4;
#X text -161 384 if true the function is evaluated;
#X floatatom -330 220 5 0 0 0 - - -;
#X connect 0 0 1 0;
#X connect 2 0 0 0;
#X connect 5 0 10 0;
#X connect 5 0 11 0;
#X connect 6 0 7 1;
#X connect 7 0 29 0;
#X connect 8 0 7 0;
#X connect 9 0 7 2;
#X connect 10 0 9 0;
#X connect 11 0 6 0;
#X connect 13 0 14 0;
#X connect 13 1 15 0;
#X connect 16 0 20 0;
#X connect 16 0 21 0;
#X connect 17 0 13 1;
#X connect 18 0 13 0;
#X connect 19 0 13 2;
#X connect 20 0 19 0;
#X connect 21 0 17 0;
#X connect 22 0 23 0;
#X connect 23 0 16 0;
#X connect 24 0 13 3;
#X connect 25 0 13 3;
#X connect 26 0 23 1;
#X restore 51 -65 pd example expressions;
#X obj -176 -46 metro 300;
#X obj -94 -46 counter;
#X floatatom -94 -20 5 0 0 0 - - -;
#X obj -176 -84 tgl 35 0 empty Ev_timer_1 empty 17 7 0 10 -13330 -258113
-262144 0 1;
#X floatatom -34 -82 5 0 0 0 - - -;
#X msg -65 -82 0;
#X obj -106 -81 sel 0;
#X obj -94 1 sel 11;
#X obj -61 24 bng 15 250 50 0 empty empty empty 17 7 0 10 -262144 -1
-1;
#X obj -94 25 bng 15 250 50 0 empty empty empty 17 7 0 10 -262144 -1
-1;
#X text 303 -179 result;
#X text 145 -173 On/Off;
#X obj 279 -178 tgl 15 0 Ev_timer_3 empty empty 17 7 0 10 -262144 -1
-1 0 1;
#X obj 279 -156 sel 1;
#X msg -107 -108 300;
#X obj 65 -177 sel 1;
#X obj -17 35 bng 15 250 50 0 empty avarage_1 empty 17 7 0 10 -262144
-1 -1;
#X obj 165 -260 - 55;
#X obj 222 -260 + 55;
#X obj 81 91 moses;
#X obj 267 -78 nbx 5 14 -1e+37 1e+37 0 0 empty base_FRQ_1 avarage_number
0 -8 0 10 -262144 -1 -1 395 256;
#X floatatom 108 115 5 0 0 0 - - -;
#X obj 108 68 +;
#X floatatom 140 67 5 0 0 0 - - -;
#X obj 196 127 moses;
#X obj 223 95 +;
#X obj 382 45 t b;
#X obj -87 -356 r reset_1;
#X obj 279 -270 r reset_1;
#X obj -54 -330 r RAW_DATA_1;
#X obj -35 191 s reset_1;
#X obj 81 37 r RAW_DATA_1;
#X obj 108 193 s level_x_1;
#X connect 0 0 2 0;
#X connect 1 0 3 0;
#X connect 2 0 8 1;
#X connect 3 0 0 0;
#X connect 3 0 5 0;
#X connect 3 0 4 0;
#X connect 4 0 3 1;
#X connect 5 0 9 1;
#X connect 5 0 10 0;
#X connect 6 0 3 1;
#X connect 6 0 7 0;
#X connect 7 0 0 0;
#X connect 8 0 9 0;
#X connect 9 0 14 0;
#X connect 12 0 1 0;
#X connect 12 0 13 0;
#X connect 13 0 8 0;
#X connect 13 0 6 0;
#X connect 15 0 16 0;
#X connect 16 0 17 0;
#X connect 17 0 18 0;
#X connect 17 0 19 0;
#X connect 18 0 15 0;
#X connect 19 0 20 0;
#X connect 20 0 70 0;
#X connect 21 0 22 0;
#X connect 22 0 23 0;
#X connect 23 0 25 0;
#X connect 24 0 26 0;
#X connect 25 0 62 1;
#X connect 25 0 65 1;
#X connect 26 0 23 1;
#X connect 26 0 27 0;
#X connect 27 0 66 0;
#X connect 28 0 29 0;
#X connect 28 0 55 0;
#X connect 28 1 52 0;
#X connect 30 0 57 0;
#X connect 30 0 58 0;
#X connect 31 0 28 1;
#X connect 32 0 28 0;
#X connect 33 0 28 2;
#X connect 34 0 35 0;
#X connect 35 0 30 0;
#X connect 36 0 35 1;
#X connect 37 0 28 3;
#X connect 38 0 28 3;
#X connect 40 0 41 0;
#X connect 41 0 42 0;
#X connect 42 0 47 0;
#X connect 43 0 40 0;
#X connect 43 0 46 0;
#X connect 44 0 41 4;
#X connect 45 0 41 3;
#X connect 46 0 45 0;
#X connect 47 0 49 0;
#X connect 47 1 48 0;
#X connect 49 0 43 0;
#X connect 49 0 16 0;
#X connect 52 0 53 0;
#X connect 53 0 38 0;
#X connect 54 0 40 1;
#X connect 55 0 34 0;
#X connect 56 0 16 0;
#X connect 57 0 31 0;
#X connect 58 0 33 0;
#X connect 59 1 61 0;
#X connect 60 0 21 0;
#X connect 60 0 62 0;
#X connect 61 0 72 0;
#X connect 62 0 63 0;
#X connect 62 0 59 1;
#X connect 63 0 65 0;
#X connect 64 1 72 0;
#X connect 65 0 64 1;
#X connect 66 0 60 0;
#X connect 67 0 12 0;
#X connect 68 0 37 0;
#X connect 69 0 1 1;
#X connect 69 0 11 0;
#X connect 69 0 32 0;
#X connect 71 0 59 0;
#X connect 71 0 64 0;
#X restore 499 206 pd avarage_1;
#X obj 19 393 tgl 15 0 empty permanent_1 empty 17 7 0 10 -262144 -1
-1 0 1;
#X obj 50 436 bng 15 250 50 0 empty empty empty 17 7 0 10 -262144 -1
-1;
#X obj 19 412 sel 0 1;
#X obj 205 460 tgl 15 0 empty permanent_1 empty 17 7 0 10 -262144 -1
-1 0 1;
#X msg 232 498 0;
#X msg 205 516 5000;
#X obj 205 478 sel 0;
#X obj 16 -52 r level_x_1;
#X connect 0 0 2 0;
#X connect 2 0 1 0;
#X connect 3 0 2 0;
#X connect 4 0 2 0;
#X connect 5 0 3 0;
#X connect 6 0 4 0;
#X connect 7 0 11 0;
#X connect 8 0 12 0;
#X connect 9 0 13 0;
#X connect 10 0 14 0;
#X connect 11 0 2 0;
#X connect 12 0 2 0;
#X connect 13 0 2 0;
#X connect 14 0 2 0;
#X connect 15 0 16 0;
#X connect 16 0 1 0;
#X connect 17 0 16 1;
#X connect 18 0 2 0;
#X connect 19 0 2 0;
#X connect 20 0 18 0;
#X connect 21 0 19 0;
#X connect 22 0 5 1;
#X connect 23 0 6 1;
#X connect 24 0 7 1;
#X connect 25 0 8 1;
#X connect 26 0 9 1;
#X connect 27 0 10 1;
#X connect 28 0 20 1;
#X connect 29 0 21 1;
#X connect 30 0 32 0;
#X connect 31 0 17 0;
#X connect 32 0 31 0;
#X connect 33 0 5 0;
#X connect 33 0 6 0;
#X connect 33 0 7 0;
#X connect 33 0 8 0;
#X connect 33 0 9 0;
#X connect 33 0 10 0;
#X connect 33 0 20 0;
#X connect 33 0 21 0;
#X connect 33 0 0 0;
#X connect 34 0 64 0;
#X connect 35 0 72 0;
#X connect 36 0 73 0;
#X connect 37 0 36 0;
#X connect 37 0 40 0;
#X connect 38 0 36 1;
#X connect 38 0 39 0;
#X connect 40 0 41 0;
#X connect 41 0 35 0;
#X connect 44 0 33 0;
#X connect 45 0 42 0;
#X connect 46 0 81 0;
#X connect 47 0 61 0;
#X connect 48 0 44 1;
#X connect 49 0 2 1;
#X connect 49 0 15 1;
#X connect 51 0 60 0;
#X connect 52 0 61 0;
#X connect 53 0 80 0;
#X connect 54 0 63 0;
#X connect 55 0 44 0;
#X connect 56 0 55 0;
#X connect 57 0 58 0;
#X connect 57 0 67 0;
#X connect 57 0 68 0;
#X connect 58 0 53 0;
#X connect 59 0 44 0;
#X connect 61 0 46 0;
#X connect 63 0 62 0;
#X connect 64 0 61 0;
#X connect 65 0 66 0;
#X connect 66 0 43 0;
#X connect 67 0 50 0;
#X connect 68 0 54 0;
#X connect 71 0 55 1;
#X connect 76 0 30 0;
#X connect 78 0 47 0;
#X connect 79 0 34 0;
#X connect 80 0 65 0;
#X connect 81 0 45 0;
#X connect 82 0 51 0;
#X connect 84 0 86 0;
#X connect 85 0 47 0;
#X connect 86 0 85 0;
#X connect 86 1 34 0;
#X connect 87 0 90 0;
#X connect 88 0 61 1;
#X connect 89 0 61 1;
#X connect 90 0 89 0;
#X connect 90 1 88 0;
#X connect 91 0 44 0;
#X coords 0 -1 1 1 170 232 2 500 300;
#X restore 24 19 pd sound_1;
#X text 21 257 UNIT_1;
#X text 217 255 UNIT_2;
#X text 410 255 UNIT_3;
#N canvas 754 10 666 964 program 0;
#X msg 27 -4 \; pd dsp 1;
#X text 92 12 ON;
#X obj 26 62 tgl 35 0 1 empty PERM 2 17 0 14 -262144 -1 -1 0 1;
#X obj 27 147 tgl 35 0 1 empty test_1 2 17 0 9 -258113 -262144 -262144
0 1;
#X obj 28 222 bng 35 250 50 0 empty empty scan 3 17 0 10 -262130 -258113
-1;
#X obj 29 285 vsl 35 128 0 0.055 0 0 empty empty VOL 7 145 0 14 -262144
-1 -1 0 1;
#X obj 30 455 vsl 35 128 7 1 0 0 frq_1 empty FRQ 6 145 0 14 -262144
-1 -1 0 1;
#X text 99 450 Adjust the basic pitch of the sound.;
#X obj 32 621 vsl 35 128 0 1023 0 0 empty UNIT_2 U_X 5 145 0 14 -13330
-262144 -1 0 1;
#X floatatom 33 745 5 0 0 0 - - -;
#X text 105 615 Visual control of the entrance data.;
#X obj 33 808 vsl 35 128 1 33 0 0 %_of_avarage_2 empty % 13 145 0 14
-83269 -262144 -1 0 1;
#X floatatom 34 923 5 0 0 0 - - -;
#X text 91 -8 Start-UP: make sure to press;
#X text 31 131 comment;
#X text 91 55 On start-up \, PERM-mode is ON. All incomming data are
represented in pitch values of the sound. When the button is OFF the
system detects whether a UNIT is attached to somebodys skin or not
and determinates its avarage skin value. The volume depends how the
person is acting. If the UNIT is not attched to there is no sound.
;
#X text 91 142 Audio system sound check. For testing mode a random
number \, between 455 and 486 simulates the UNIT data. Only usefull
if no UNITS are attached.;
#X text 92 217 Avarage value of the skin-resistance of the player.
If the PERM button is OFF the system scans automatically.;
#X text 94 280 If PERM is On \, the volume can be adjusted. If PERM
is OFF the volume is adjusted automatically and can't be moved manually.
;
#X text 106 802 Affects the sound only if PERM mode is OFF. Teterminates
the percentage between the emotional changes and levels.;
#X connect 8 0 9 0;
#X restore 411 -50 pd program wiki;
#X connect 1 0 6 0;
