#N canvas 1 91 501 646 10;
#X obj 73 24 r bloodcell-render;
#X obj 73 51 separator;
#X obj 73 576 model ./media/BloodCell_MODEL_0810.obj;
#X obj 246 139 random 100;
#X obj 254 74 initbang;
#X obj 313 74 loadbang;
#X msg 251 97 1;
#X obj 321 325 line;
#X obj 73 378 rotate;
#X obj 246 117 metro 3000;
#X obj 321 284 random 100;
#X obj 264 345 pack f f f;
#X obj 291 283 line;
#X obj 291 245 random 100;
#X obj 261 245 line;
#X obj 261 204 random 100;
#X obj 182 275 line;
#X obj 182 214 random 359;
#X obj 246 180 t b b b b b;
#X obj 321 305 pack f f;
#X obj 348 195 random 5000;
#X obj 375 226 + 3000;
#X obj 291 264 pack f f;
#X obj 261 224 pack f f;
#X obj 183 238 pack f f;
#X obj 246 159 moses 50;
#X obj 73 146 translateXYZ;
#X obj 96 83 r bloodcell-pos;
#X obj 96 104 route \$1;
#X obj 96 125 unpack f f f;
#X obj 73 546 color 1 0 0;
#X obj 73 510 scale 0.15;
#X obj 254 20 r /bloodcell-init;
#X obj 131 471 r /bloodcell/scale;
#X connect 0 0 1 0;
#X connect 1 0 26 0;
#X connect 3 0 25 0;
#X connect 4 0 6 0;
#X connect 5 0 6 0;
#X connect 6 0 9 0;
#X connect 7 0 11 2;
#X connect 8 0 31 0;
#X connect 9 0 3 0;
#X connect 10 0 19 0;
#X connect 11 0 8 2;
#X connect 12 0 11 1;
#X connect 13 0 22 0;
#X connect 14 0 11 0;
#X connect 15 0 23 0;
#X connect 16 0 8 1;
#X connect 17 0 24 0;
#X connect 18 0 17 0;
#X connect 18 1 15 0;
#X connect 18 2 13 0;
#X connect 18 3 10 0;
#X connect 18 4 20 0;
#X connect 19 0 7 0;
#X connect 20 0 21 0;
#X connect 21 0 19 1;
#X connect 21 0 22 1;
#X connect 21 0 23 1;
#X connect 21 0 24 1;
#X connect 22 0 12 0;
#X connect 23 0 14 0;
#X connect 24 0 16 0;
#X connect 25 0 18 0;
#X connect 26 0 8 0;
#X connect 27 0 28 0;
#X connect 28 0 29 0;
#X connect 29 0 26 1;
#X connect 29 1 26 2;
#X connect 29 2 26 3;
#X connect 30 0 2 0;
#X connect 31 0 30 0;
#X connect 32 0 6 0;
#X connect 33 0 31 1;
