#N canvas 1 58 545 438 10;
#X obj 49 137 metro 3000;
#X obj 48 172 t b b;
#X obj 48 194 random 100;
#X obj 48 221 / 100;
#X obj 93 223 random 5000;
#X obj 48 243 pack f f;
#X obj 48 263 line;
#X obj 51 115 tgl 15 0 empty empty empty 17 7 0 10 -262144 -1 -1 0
1;
#X obj 48 284 t f f;
#X obj 75 309 t f f;
#X obj 75 328 expr if ($f1>0.1 && $f1<0.2 \, 1 \, if($f1> 0.4 & $f1<
0.5 \, 2 \, if ($f1>0.8 & $f1<0.9 \, 3 \, 0)));
#X obj 48 368 pack 0 0 \$1;
#X msg 48 397 \; /player/\$3 \$2 \$1;
#X obj 53 47 loadbang;
#X msg 52 68 1;
#X connect 0 0 1 0;
#X connect 1 0 2 0;
#X connect 1 1 4 0;
#X connect 2 0 3 0;
#X connect 3 0 5 0;
#X connect 4 0 5 1;
#X connect 5 0 6 0;
#X connect 6 0 8 0;
#X connect 7 0 0 0;
#X connect 8 0 11 0;
#X connect 8 1 9 0;
#X connect 9 0 10 0;
#X connect 10 0 11 1;
#X connect 11 0 12 0;
#X connect 13 0 14 0;
#X connect 14 0 7 0;
